{
.appVersion = "1352";
DisplayStrings = (
"0123456789/zeroinferior/oneinferior/twoinferior/threeinferior/fourinferior/fiveinferior/sixinferior/seveninferior/eightinferior/nineinferior/zerosuperior ¹²³/foursuperior/fivesuperior/sixsuperior/sevensuperior/eightsuperior/ninesuperior/fraction ½/onethird/twothirds ¼¾/oneeighth/threeeighths/fiveeighths/seveneighths",
"/Aringacute aHbcdefghijklmnpopqrstuvwxyz",
noHOt,
"/nbspace",
"/Abrevehookabove/commaaccentcomb.case/space/commaaccentcomb ./space/Scommaaccent",
"/Otildeacute",
"/dieresiscomb.case/space/dotaccentcomb.case/space/gravecomb.case/space/acutecomb.case/space/circumflexcomb.case/space/caroncomb.case/space/brevecomb.case/space/ringcomb.case/space/tildecomb.case/space/macroncomb.case/space/hookabovecomb.case/space/dblgravecomb.case/space/breveinvertedcomb.case/space/commaturnedabovecomb.case/space/horncomb.case/space/dotbelowcomb.case/space/dieresisbelowcomb.case/space/commaaccentcomb.case/space/cedillacomb.case/space/ogonekcomb.case/space/brevebelowcomb.case/space/macronbelowcomb.case/space/strokelongcomb.case/space/circumflexcomb_acutecomb.case/space/circumflexcomb_gravecomb.case/space/circumflexcomb_hookabovecomb.case/space/circumflexcomb_tildecomb.case/space/space/space/space/space",
"AÁ/Abreve/Abreveacute/Abrevedotbelow/Abrevegrave/Abrevehookabove/Abrevetilde/Acaron Â/circumflexcomb_acutecomb/Acircumflexacute/Acircumflexdotbelow/circumflexcomb_gravecomb/Acircumflexgrave/Acircumflexhookabove/Acircumflextilde/Adblgrave Ä/Adieresismacron/Adotaccent/Adotbelow/Adotmacron À/Ahookabove/Ainvertedbreve/Amacron Å/Aringacute"
);
classes = (
{
automatic = 1;

glyphs = (
{
glyphname = .notdef;
layers = (
{
background = {
paths = (
{
closed = 1;
nodes = (
"523 0 LINE",
"523 750 LINE",
"129 750 LINE",
"129 0 LINE"
);
},
{
closed = 1;
nodes = (
"256 65 LINE",
"325 274 LINE",
"292 374 LINE",
"196 77 LINE",
"196 668 LINE",
"183 708 LINE",
"242 728 LINE",
"256 685 LINE",
"393 685 LINE",
"325 474 LINE",
"357 374 LINE",
"456 677 LINE",
"456 68 LINE",
"466 37 LINE",
"402 37 LINE",
"393 65 LINE"
);
},
{
closed = 1;
nodes = (
"196 668 LINE",
"292 374 LINE",
"325 474 LINE",
"256 685 LINE",
"196 685 LINE"
);
},
{
closed = 1;
nodes = (
"325 274 LINE",
"393 65 LINE",
"456 65 LINE",
"456 68 LINE",
"357 374 LINE"
);
}
);
};
layerId = "849A9C4C-BF7C-40C5-8614-1FD725A2A379";
paths = (
{
closed = 1;
nodes = (
"523 0 LINE",
"523 750 LINE",
"129 750 LINE",
"129 0 LINE"
);
},
{
closed = 1;
nodes = (
"256 685 LINE",
"393 685 LINE",
"325 474 LINE"
);
},
{
closed = 1;
nodes = (
"456 677 LINE",
"456 68 LINE",
"357 374 LINE"
);
},
{
closed = 1;
nodes = (
"196 77 LINE",
"196 668 LINE",
"292 374 LINE"
);
},
{
closed = 1;
nodes = (
"256 65 LINE",
"325 275 LINE",
"393 65 LINE"
);
}
);
width = 648;
}
);
},
{
glyphname = A;
layers = (
{
anchors = (
{
name = bottom;
position = "{269, 0}";
},
{
name = ogonek;
position = "{537, 3}";
},
{
name = top;
position = "{259, 750}";
}
);
background = {
paths = (
{
closed = 1;
nodes = (
"537 3 LINE",
"364 762 LINE",
"165 741 LINE",
"12 0 LINE",
"154 0 LINE",
"191 220 LINE",
"184 224 LINE",
"245 548 LINE SMOOTH",
"250 572 OFFCURVE",
"253 590 OFFCURVE",
"257 617 CURVE",
"261 594 OFFCURVE",
"265 572 OFFCURVE",
"270 549 CURVE SMOOTH",
"335 224 LINE",
"334 219 LINE",
"382 -14 LINE"
);
},
{
closed = 1;
nodes = (
"364 137 LINE",
"364 259 LINE",
"157 259 LINE",
"157 137 LINE"
);
}
);
};
guideLines = (
{
angle = 7;
position = "{380, -9}";
showMeasurement = 1;
},
{
angle = -78.4216;
position = "{242, 615}";
},
{
angle = 7;
position = "{167, 740}";
}
);
layerId = "849A9C4C-BF7C-40C5-8614-1FD725A2A379";
paths = (
{
closed = 1;
nodes = (
"154 0 LINE",
"191 220 LINE",
"184 224 LINE",
"257 617 LINE",
"335 224 LINE",
"334 219 LINE",
"382 -14 LINE",
"537 3 LINE",
"364 762 LINE",
"165 741 LINE",
"12 0 LINE"
);
},
{
closed = 1;
nodes = (
"364 137 LINE",
"364 259 LINE",
"157 259 LINE",
"157 137 LINE"
);
}
);
width = 548;
}
);
leftKerningGroup = A;
rightKerningGroup = A;
unicode = 0041;
},
{
glyphname = "Alpha-latin";
layers = (
{
background = {
paths = (
{
closed = 1;
nodes = (
"451 -14 OFFCURVE",
"452 138 OFFCURVE",
"452 375 CURVE SMOOTH",
"452 612 OFFCURVE",
"451 764 OFFCURVE",
"277 764 CURVE SMOOTH",
"104 764 OFFCURVE",
"32 612 OFFCURVE",
"32 375 CURVE SMOOTH",
"32 138 OFFCURVE",
"104 -14 OFFCURVE",
"277 -14 CURVE SMOOTH"
);
},
{
closed = 1;
nodes = (
"195 115 OFFCURVE",
"187 238 OFFCURVE",
"187 375 CURVE SMOOTH",
"187 512 OFFCURVE",
"195 635 OFFCURVE",
"277 635 CURVE SMOOTH",
"360 635 OFFCURVE",
"367 512 OFFCURVE",
"367 375 CURVE SMOOTH",
"367 238 OFFCURVE",
"360 115 OFFCURVE",
"277 115 CURVE SMOOTH"
);
},
{
closed = 1;
nodes = (
"367 0 LINE",
"514 0 LINE",
"513 342 OFFCURVE",
"512 609 OFFCURVE",
"514 756 CURVE",
"465 750 OFFCURVE",
"415 746 OFFCURVE",
"367 744 CURVE"
);
}
);
};
layerId = "849A9C4C-BF7C-40C5-8614-1FD725A2A379";
paths = (
{
closed = 1;
nodes = (
"324 -13 OFFCURVE",
"379 76 OFFCURVE",
"379 197 CURVE",
"351 318 LINE",
"351 183 OFFCURVE",
"333 106 OFFCURVE",
"274 106 CURVE SMOOTH",
"218 106 OFFCURVE",
"192 207 OFFCURVE",
"192 376 CURVE SMOOTH",
"192 544 OFFCURVE",
"218 645 OFFCURVE",
"277 645 CURVE SMOOTH",
"332 645 OFFCURVE",
"351 563 OFFCURVE",
"351 431 CURVE",
"379 548 LINE",
"379 654 OFFCURVE",
"339 764 OFFCURVE",
"238 764 CURVE SMOOTH",
"104 764 OFFCURVE",
"42 593 OFFCURVE",
"42 375 CURVE SMOOTH",
"42 135 OFFCURVE",
"104 -13 OFFCURVE",
"229 -13 CURVE SMOOTH"
);
},
{
closed = 1;
nodes = (
"527 -13 OFFCURVE",
"548 -7 OFFCURVE",
"571 1 CURVE",
"559 122 LINE",
"551 119 OFFCURVE",
"544 118 OFFCURVE",
"535 118 CURVE SMOOTH",
"509 118 OFFCURVE",
"498 135 OFFCURVE",
"498 173 CURVE SMOOTH",
"498 760 LINE",
"351 743 LINE",
"351 170 LINE SMOOTH",
"351 72 OFFCURVE",
"394 -13 OFFCURVE",
"499 -13 CURVE SMOOTH"
);
}
);
width = 571;
}
);
leftKerningGroup = ROUND;
unicode = 2C6D;
},
{
glyphname = Aringacute;
layers = (
{
background = {
components = (
{
name = acutecomb;
transform = "{1, 0, 0, 1, 194, 499}";
}
);
};
components = (
{
name = A;
},
{
name = ringcomb.case;
transform = "{1, 0, 0, 1, 262, 0}";
}
);
layerId = "849A9C4C-BF7C-40C5-8614-1FD725A2A379";
paths = (
{
closed = 1;
nodes = (
"502 1074 LINE",
"399 1169 LINE",
"305 1005 LINE",
"337 978 LINE"
);
}
);
width = 530;
}
);
leftKerningGroup = A;
rightKerningGroup = A;
unicode = 01FA;
},
{
glyphname = Astroke;
layers = (
{
background = {
paths = (
{
closed = 1;
nodes = (
"248 -90 LINE",
"382 832 LINE",
"314 840 LINE",
"180 -82 LINE"
);
}
);
};
components = (
{
name = A;
}
);
layerId = "849A9C4C-BF7C-40C5-8614-1FD725A2A379";
paths = (
{
closed = 1;
nodes = (
"311 206 LINE",
"242 206 LINE",
"200 -82 LINE",
"268 -90 LINE"
);
},
{
closed = 1;
nodes = (
"351 619 LINE",
"382 832 LINE",
"314 840 LINE",
"282 619 LINE"
);
}
);
width = 530;
}
);
unicode = 023A;
},
{
glyphname = AE;
layers = (
{
anchors = (
{
name = bottom;
position = "{328, 0}";
},
{
name = top;
position = "{418, 750}";
}
);
background = {
paths = (
{
closed = 1;
nodes = (
"147 0 LINE",
"195 161 LINE",
"334 161 LINE",
"333 0 LINE",
"709 0 LINE",
"724 122 LINE",
"481 122 LINE",
"481 315 LINE",
"641 315 LINE",
"656 433 LINE",
"481 433 LINE",
"481 633 LINE",
"703 633 LINE",
"717 750 LINE",
"247 750 LINE",
"-3 0 LINE"
);
},
{
closed = 1;
nodes = (
"334 630 LINE",
"333 277 LINE",
"228 277 LINE"
);
}
);
};
guideLines = (
{
angle = 168;
position = "{156, 0}";
},
{
angle = 160;
position = "{173, -53}";
}
);
layerId = "849A9C4C-BF7C-40C5-8614-1FD725A2A379";
paths = (
{
closed = 1;
nodes = (
"147 0 LINE",
"195 161 LINE",
"334 161 LINE",
"334 0 LINE",
"709 0 LINE",
"724 122 LINE",
"481 122 LINE",
"481 315 LINE",
"641 315 LINE",
"656 433 LINE",
"481 433 LINE",
"481 633 LINE",
"703 633 LINE",
"717 750 LINE",
"361 750 LINE",
"247 750 LINE",
"-3 0 LINE"
);
},
{
closed = 1;
nodes = (
"334 630 LINE",
"334 277 LINE",
"228 277 LINE"
);
}
);
width = 748;
}
);
leftKerningGroup = AE;
rightKerningGroup = KINDAOPEN;
rightMetricsKey = E;
unicode = 00C6;
},
{
glyphname = B;
layers = (
{
anchors = (
{
name = bottom;
position = "{276, 0}";
},
{
name = top;
position = "{276, 750}";
}
);
background = {
paths = (
{
closed = 1;
nodes = (
"256 0 LINE SMOOTH",
"427 0 OFFCURVE",
"520 72 OFFCURVE",
"520 213 CURVE SMOOTH",
"520 311 OFFCURVE",
"485 356 OFFCURVE",
"408 382 CURVE",
"473 412 OFFCURVE",
"503 478 OFFCURVE",
"503 548 CURVE SMOOTH",
"503 678 OFFCURVE",
"431 750 OFFCURVE",
"254 750 CURVE SMOOTH",
"70 750 LINE",
"70 0 LINE"
);
},
{
closed = 1;
nodes = (
"217 322 LINE",
"256 322 LINE SMOOTH",
"326 322 OFFCURVE",
"370 297 OFFCURVE",
"370 223 CURVE SMOOTH",
"370 145 OFFCURVE",
"326 116 OFFCURVE",
"256 116 CURVE SMOOTH",
"217 116 LINE"
);
},
{
closed = 1;
nodes = (
"217 634 LINE",
"254 634 LINE SMOOTH",
"319 634 OFFCURVE",
"359 607 OFFCURVE",
"359 537 CURVE SMOOTH",
"359 472 OFFCURVE",
"315 435 OFFCURVE",
"265 435 CURVE SMOOTH",
"217 435 LINE"
);
}
);
};
layerId = "849A9C4C-BF7C-40C5-8614-1FD725A2A379";
paths = (
{
closed = 1;
nodes = (
"256 0 LINE SMOOTH",
"427 0 OFFCURVE",
"520 72 OFFCURVE",
"520 213 CURVE SMOOTH",
"520 312 OFFCURVE",
"473 369 OFFCURVE",
"373 393 CURVE",
"363 368 LINE",
"459 385 OFFCURVE",
"503 463 OFFCURVE",
"503 548 CURVE SMOOTH",
"503 678 OFFCURVE",
"431 750 OFFCURVE",
"254 750 CURVE SMOOTH",
"70 750 LINE",
"70 0 LINE"
);
},
{
closed = 1;
nodes = (
"209 322 LINE",
"256 322 LINE SMOOTH",
"331 322 OFFCURVE",
"375 297 OFFCURVE",
"375 223 CURVE SMOOTH",
"375 145 OFFCURVE",
"331 116 OFFCURVE",
"256 116 CURVE SMOOTH",
"209 116 LINE"
);
},
{
closed = 1;
nodes = (
"209 634 LINE",
"254 634 LINE SMOOTH",
"324 634 OFFCURVE",
"364 607 OFFCURVE",
"364 537 CURVE SMOOTH",
"364 472 OFFCURVE",
"320 435 OFFCURVE",
"265 435 CURVE SMOOTH",
"209 435 LINE"
);
}
);
width = 550;
}
);
leftKerningGroup = STRAIGHT;
rightKerningGroup = SMALL;
unicode = 0042;
},
{
glyphname = "Beta-latin";
layers = (
{
background = {
paths = (
{
closed = 1;
nodes = (
"256 0 LINE SMOOTH",
"427 0 OFFCURVE",
"520 72 OFFCURVE",
"520 213 CURVE SMOOTH",
"520 312 OFFCURVE",
"473 369 OFFCURVE",
"373 393 CURVE",
"363 368 LINE",
"459 385 OFFCURVE",
"503 463 OFFCURVE",
"503 548 CURVE SMOOTH",
"503 678 OFFCURVE",
"431 750 OFFCURVE",
"254 750 CURVE SMOOTH",
"70 750 LINE",
"70 0 LINE"
);
},
{
closed = 1;
nodes = (
"209 322 LINE",
"256 322 LINE SMOOTH",
"331 322 OFFCURVE",
"375 297 OFFCURVE",
"375 223 CURVE SMOOTH",
"375 145 OFFCURVE",
"331 116 OFFCURVE",
"256 116 CURVE SMOOTH",
"209 116 LINE"
);
},
{
closed = 1;
nodes = (
"209 634 LINE",
"254 634 LINE SMOOTH",
"324 634 OFFCURVE",
"364 607 OFFCURVE",
"364 537 CURVE SMOOTH",
"364 472 OFFCURVE",
"320 435 OFFCURVE",
"265 435 CURVE SMOOTH",
"209 435 LINE"
);
},
{
closed = 1;
nodes = (
"70 -185 LINE",
"209 -167 LINE",
"209 47 LINE",
"70 47 LINE"
);
}
);
};
layerId = "849A9C4C-BF7C-40C5-8614-1FD725A2A379";
paths = (
{
closed = 1;
nodes = (
"209 -167 LINE",
"209 0 LINE",
"256 0 LINE SMOOTH",
"427 0 OFFCURVE",
"520 72 OFFCURVE",
"520 213 CURVE SMOOTH",
"520 316 OFFCURVE",
"469 374 OFFCURVE",
"361 395 CURVE",
"365 368 LINE",
"459 385 OFFCURVE",
"503 463 OFFCURVE",
"503 548 CURVE SMOOTH",
"503 678 OFFCURVE",
"431 750 OFFCURVE",
"254 750 CURVE SMOOTH",
"70 750 LINE",
"70 -185 LINE"
);
},
{
closed = 1;
nodes = (
"209 322 LINE",
"256 322 LINE SMOOTH",
"331 322 OFFCURVE",
"375 297 OFFCURVE",
"375 223 CURVE SMOOTH",
"375 145 OFFCURVE",
"331 116 OFFCURVE",
"256 116 CURVE SMOOTH",
"209 116 LINE"
);
},
{
closed = 1;
nodes = (
"209 634 LINE",
"254 634 LINE SMOOTH",
"324 634 OFFCURVE",
"364 607 OFFCURVE",
"364 537 CURVE SMOOTH",
"364 472 OFFCURVE",
"320 435 OFFCURVE",
"265 435 CURVE SMOOTH",
"209 435 LINE"
);
}
);
width = 550;
}
);
unicode = A7B4;
},
{
glyphname = Bhook;
layers = (
{
layerId = "849A9C4C-BF7C-40C5-8614-1FD725A2A379";
paths = (
{
closed = 1;
nodes = (
"366 0 LINE SMOOTH",
"537 0 OFFCURVE",
"630 72 OFFCURVE",
"630 213 CURVE SMOOTH",
"630 316 OFFCURVE",
"579 374 OFFCURVE",
"471 395 CURVE",
"475 368 LINE",
"569 385 OFFCURVE",
"613 463 OFFCURVE",
"613 548 CURVE SMOOTH",
"613 678 OFFCURVE",
"541 750 OFFCURVE",
"364 750 CURVE SMOOTH",
"170 750 LINE SMOOTH",
"65 750 OFFCURVE",
"0 690 OFFCURVE",
"0 596 CURVE SMOOTH",
"0 550 OFFCURVE",
"16 507 OFFCURVE",
"36 481 CURVE",
"135 518 LINE",
"118 540 OFFCURVE",
"108 561 OFFCURVE",
"108 584 CURVE SMOOTH",
"108 614 OFFCURVE",
"125 634 OFFCURVE",
"154 634 CURVE SMOOTH",
"180 634 LINE",
"180 0 LINE"
);
},
{
closed = 1;
nodes = (
"319 322 LINE",
"366 322 LINE SMOOTH",
"441 322 OFFCURVE",
"485 297 OFFCURVE",
"485 223 CURVE SMOOTH",
"485 145 OFFCURVE",
"441 116 OFFCURVE",
"366 116 CURVE SMOOTH",
"319 116 LINE"
);
},
{
closed = 1;
nodes = (
"319 634 LINE",
"364 634 LINE SMOOTH",
"434 634 OFFCURVE",
"474 607 OFFCURVE",
"474 537 CURVE SMOOTH",
"474 472 OFFCURVE",
"430 435 OFFCURVE",
"375 435 CURVE SMOOTH",
"319 435 LINE"
);
}
);
width = 660;
}
);
unicode = 0181;
},
{
glyphname = Bstroke;
layers = (
{
components = (
{
name = B;
}
);
layerId = "849A9C4C-BF7C-40C5-8614-1FD725A2A379";
paths = (
{
closed = 1;
nodes = (
"286 176 LINE",
"286 266 LINE",
"8 266 LINE",
"8 176 LINE"
);
}
);
width = 550;
}
);
unicode = 0243;
},
{
glyphname = C;
layers = (
{
anchors = (
{
name = bottom;
position = "{290, 0}";
},
{
name = top;
position = "{292, 752}";
}
);
background = {
components = (
{
name = O;
transform = "{1, 0, 0, 1, 4, 0}";
}
);
};
layerId = "849A9C4C-BF7C-40C5-8614-1FD725A2A379";
paths = (
{
closed = 1;
nodes = (
"439 -15 OFFCURVE",
"504 109 OFFCURVE",
"513 240 CURVE",
"376 255 LINE",
"371 187 OFFCURVE",
"353 108 OFFCURVE",
"291 108 CURVE SMOOTH",
"219 108 OFFCURVE",
"195 203 OFFCURVE",
"195 375 CURVE SMOOTH",
"195 543 OFFCURVE",
"221 642 OFFCURVE",
"292 642 CURVE SMOOTH",
"352 642 OFFCURVE",
"370 549 OFFCURVE",
"374 481 CURVE",
"513 510 LINE",
"506 646 OFFCURVE",
"434 765 OFFCURVE",
"293 765 CURVE SMOOTH",
"120 765 OFFCURVE",
"40 628 OFFCURVE",
"40 375 CURVE SMOOTH",
"40 144 OFFCURVE",
"118 -15 OFFCURVE",
"291 -15 CURVE SMOOTH"
);
}
);
width = 548;
}
);
leftKerningGroup = ROUND;
rightKerningGroup = ROPEN;
unicode = 0043;
},
{
glyphname = "Chi-latin";
layers = (
{
background = {
paths = (
{
closed = 1;
nodes = (
"528 -153 OFFCURVE",
"577 -126 OFFCURVE",
"603 -79 CURVE",
"537 3 LINE",
"525 -20 OFFCURVE",
"510 -33 OFFCURVE",
"492 -33 CURVE SMOOTH",
"474 -33 OFFCURVE",
"467 -23 OFFCURVE",
"459 2 CURVE SMOOTH",
"349 367 LINE",
"341 365 LINE",
"280 629 LINE SMOOTH",
"259 719 OFFCURVE",
"211 760 OFFCURVE",
"133 760 CURVE SMOOTH",
"72 760 OFFCURVE",
"23 733 OFFCURVE",
"-3 686 CURVE",
"63 604 LINE",
"75 627 OFFCURVE",
"90 640 OFFCURVE",
"108 640 CURVE SMOOTH",
"126 640 OFFCURVE",
"134 630 OFFCURVE",
"141 605 CURVE SMOOTH",
"241 255 LINE",
"245 257 LINE",
"319 -22 LINE SMOOTH",
"343 -111 OFFCURVE",
"389 -153 OFFCURVE",
"467 -153 CURVE SMOOTH"
);
},
{
closed = 1;
nodes = (
"188 -143 LINE",
"320 241 LINE",
"368 241 LINE",
"554 748 LINE",
"421 748 LINE",
"280 342 LINE",
"237 342 LINE",
"55 -143 LINE"
);
}
);
};
layerId = "849A9C4C-BF7C-40C5-8614-1FD725A2A379";
paths = (
{
closed = 1;
nodes = (
"525 -20 OFFCURVE",
"510 -33 OFFCURVE",
"492 -33 CURVE SMOOTH",
"474 -33 OFFCURVE",
"467 -23 OFFCURVE",
"459 2 CURVE SMOOTH",
"378 269 LINE",
"554 750 LINE",
"421 750 LINE",
"320 457 LINE",
"280 629 LINE SMOOTH",
"259 719 OFFCURVE",
"211 760 OFFCURVE",
"133 760 CURVE SMOOTH",
"72 760 OFFCURVE",
"23 733 OFFCURVE",
"-3 686 CURVE",
"63 604 LINE",
"75 627 OFFCURVE",
"90 640 OFFCURVE",
"108 640 CURVE SMOOTH",
"126 640 OFFCURVE",
"134 630 OFFCURVE",
"141 605 CURVE SMOOTH",
"225 310 LINE",
"55 -143 LINE",
"188 -143 LINE",
"280 125 LINE",
"319 -22 LINE SMOOTH",
"343 -111 OFFCURVE",
"389 -153 OFFCURVE",
"467 -153 CURVE SMOOTH",
"528 -153 OFFCURVE",
"577 -126 OFFCURVE",
"603 -79 CURVE",
"537 3 LINE"
);
}
);
width = 600;
}
);
unicode = A7B3;
},
{
glyphname = Chook;
layers = (
{
background = {
paths = (
{
closed = 1;
nodes = (
"439 -15 OFFCURVE",
"504 109 OFFCURVE",
"513 240 CURVE",
"376 255 LINE",
"371 187 OFFCURVE",
"353 108 OFFCURVE",
"291 108 CURVE SMOOTH",
"219 108 OFFCURVE",
"195 203 OFFCURVE",
"195 375 CURVE SMOOTH",
"195 543 OFFCURVE",
"221 642 OFFCURVE",
"292 642 CURVE SMOOTH",
"352 642 OFFCURVE",
"370 549 OFFCURVE",
"374 481 CURVE",
"513 510 LINE",
"464 641 OFFCURVE",
"434 765 OFFCURVE",
"293 765 CURVE SMOOTH",
"120 765 OFFCURVE",
"40 628 OFFCURVE",
"40 375 CURVE SMOOTH",
"40 144 OFFCURVE",
"118 -15 OFFCURVE",
"291 -15 CURVE SMOOTH"
);
},
{
closed = 1;
nodes = (
"604 854 OFFCURVE",
"571 870 OFFCURVE",
"529 870 CURVE SMOOTH",
"441 870 OFFCURVE",
"393 805 OFFCURVE",
"393 730 CURVE SMOOTH",
"393 681 OFFCURVE",
"396 652 OFFCURVE",
"403 630 CURVE",
"513 510 LINE",
"472 698 OFFCURVE",
"484 752 OFFCURVE",
"533 752 CURVE SMOOTH",
"553 752 OFFCURVE",
"565 744 OFFCURVE",
"582 725 CURVE",
"619 834 LINE"
);
}
);
};
layerId = "849A9C4C-BF7C-40C5-8614-1FD725A2A379";
paths = (
{
closed = 1;
nodes = (
"439 -15 OFFCURVE",
"504 109 OFFCURVE",
"513 240 CURVE",
"376 255 LINE",
"371 187 OFFCURVE",
"353 108 OFFCURVE",
"291 108 CURVE SMOOTH",
"219 108 OFFCURVE",
"195 203 OFFCURVE",
"195 375 CURVE SMOOTH",
"195 543 OFFCURVE",
"221 642 OFFCURVE",
"292 642 CURVE SMOOTH",
"352 642 OFFCURVE",
"370 549 OFFCURVE",
"374 481 CURVE",
"513 510 LINE",
"496 588 OFFCURVE",
"488 642 OFFCURVE",
"488 680 CURVE SMOOTH",
"488 733 OFFCURVE",
"504 752 OFFCURVE",
"533 752 CURVE SMOOTH",
"553 752 OFFCURVE",
"565 744 OFFCURVE",
"582 725 CURVE",
"619 834 LINE",
"604 854 OFFCURVE",
"571 870 OFFCURVE",
"529 870 CURVE SMOOTH",
"441 870 OFFCURVE",
"393 805 OFFCURVE",
"393 729 CURVE SMOOTH",
"393 717 OFFCURVE",
"394 704 OFFCURVE",
"397 691 CURVE",
"421 709 LINE",
"391 744 OFFCURVE",
"352 765 OFFCURVE",
"293 765 CURVE SMOOTH",
"120 765 OFFCURVE",
"40 628 OFFCURVE",
"40 375 CURVE SMOOTH",
"40 144 OFFCURVE",
"118 -15 OFFCURVE",
"291 -15 CURVE SMOOTH"
);
}
);
width = 579;
}
);
leftKerningGroup = ROUND;
unicode = 0187;
},
{
glyphname = Cstroke;
layers = (
{
components = (
{
name = C;
}
);
layerId = "849A9C4C-BF7C-40C5-8614-1FD725A2A379";
paths = (
{
closed = 1;
nodes = (
"379 832 LINE",
"311 840 LINE",
"177 -82 LINE",
"245 -90 LINE"
);
}
);
width = 548;
}
);
leftKerningGroup = ROUND;
rightKerningGroup = ROPEN;
unicode = 023B;
},
{
glyphname = D;
layers = (
{
anchors = (
{
name = bottom;
position = "{267, 0}";
},
{
name = center;
position = "{277, 375}";
},
{
name = top;
position = "{276, 750}";
}
);
background = {
components = (
{
name = O;
transform = "{1, 0, 0, 1, -8, 1}";
},
{
name = H;
transform = "{1, 0, 0, 1, 6, 0}";
}
);
};
layerId = "849A9C4C-BF7C-40C5-8614-1FD725A2A379";
paths = (
{
closed = 1;
nodes = (
"229 0 LINE SMOOTH",
"431 0 OFFCURVE",
"530 182 OFFCURVE",
"530 375 CURVE SMOOTH",
"530 627 OFFCURVE",
"425 750 OFFCURVE",
"229 750 CURVE SMOOTH",
"70 750 LINE",
"70 0 LINE"
);
},
{
closed = 1;
nodes = (
"212 633 LINE",
"229 633 LINE SMOOTH",
"329 633 OFFCURVE",
"375 546 OFFCURVE",
"375 375 CURVE SMOOTH",
"375 227 OFFCURVE",
"340 120 OFFCURVE",
"233 120 CURVE SMOOTH",
"212 120 LINE"
);
}
);
width = 566;
}
);
leftKerningGroup = STRAIGHT;
rightKerningGroup = ROUND;
unicode = 0044;
},
{
glyphname = Dcroat;
layers = (
{
layerId = "849A9C4C-BF7C-40C5-8614-1FD725A2A379";
paths = (
{
closed = 1;
nodes = (
"211 0 LINE SMOOTH",
"413 0 OFFCURVE",
"511 182 OFFCURVE",
"511 376 CURVE SMOOTH",
"511 627 OFFCURVE",
"407 750 OFFCURVE",
"211 750 CURVE SMOOTH",
"52 750 LINE",
"52 420 LINE",
"2 420 LINE",
"2 330 LINE",
"52 330 LINE",
"52 0 LINE"
);
},
{
closed = 1;
nodes = (
"195 330 LINE",
"285 330 LINE",
"285 420 LINE",
"195 420 LINE",
"195 633 LINE",
"213 633 LINE SMOOTH",
"311 633 OFFCURVE",
"357 546 OFFCURVE",
"357 376 CURVE SMOOTH",
"357 227 OFFCURVE",
"322 120 OFFCURVE",
"217 120 CURVE SMOOTH",
"195 120 LINE"
);
}
);
width = 547;
}
);
rightKerningGroup = ROUND;
unicode = 0110;
},
{
glyphname = Dhook;
layers = (
{
background = {
paths = (
{
closed = 1;
nodes = (
"135 531 LINE",
"118 553 OFFCURVE",
"108 574 OFFCURVE",
"108 597 CURVE SMOOTH",
"108 627 OFFCURVE",
"125 647 OFFCURVE",
"154 647 CURVE SMOOTH",
"183 647 LINE",
"183 750 LINE",
"170 750 LINE SMOOTH",
"65 750 OFFCURVE",
"0 690 OFFCURVE",
"0 596 CURVE SMOOTH",
"0 550 OFFCURVE",
"16 520 OFFCURVE",
"36 494 CURVE"
);
},
{
closed = 1;
nodes = (
"339 0 LINE SMOOTH",
"541 0 OFFCURVE",
"640 182 OFFCURVE",
"640 375 CURVE SMOOTH",
"640 627 OFFCURVE",
"535 750 OFFCURVE",
"339 750 CURVE SMOOTH",
"180 750 LINE",
"180 0 LINE"
);
},
{
closed = 1;
nodes = (
"322 633 LINE",
"339 633 LINE SMOOTH",
"439 633 OFFCURVE",
"485 546 OFFCURVE",
"485 375 CURVE SMOOTH",
"485 227 OFFCURVE",
"450 120 OFFCURVE",
"343 120 CURVE SMOOTH",
"322 120 LINE"
);
}
);
};
layerId = "849A9C4C-BF7C-40C5-8614-1FD725A2A379";
paths = (
{
closed = 1;
nodes = (
"339 0 LINE SMOOTH",
"541 0 OFFCURVE",
"640 182 OFFCURVE",
"640 375 CURVE SMOOTH",
"640 627 OFFCURVE",
"535 750 OFFCURVE",
"339 750 CURVE SMOOTH",
"170 750 LINE SMOOTH",
"65 750 OFFCURVE",
"0 690 OFFCURVE",
"0 596 CURVE SMOOTH",
"0 550 OFFCURVE",
"16 506 OFFCURVE",
"36 480 CURVE",
"135 517 LINE",
"118 539 OFFCURVE",
"108 560 OFFCURVE",
"108 583 CURVE SMOOTH",
"108 613 OFFCURVE",
"125 633 OFFCURVE",
"154 633 CURVE SMOOTH",
"180 633 LINE",
"180 0 LINE"
);
},
{
closed = 1;
nodes = (
"322 633 LINE",
"339 633 LINE SMOOTH",
"439 633 OFFCURVE",
"485 546 OFFCURVE",
"485 375 CURVE SMOOTH",
"485 227 OFFCURVE",
"450 120 OFFCURVE",
"343 120 CURVE SMOOTH",
"322 120 LINE"
);
}
);
width = 676;
}
);
rightKerningGroup = ROUND;
unicode = 018A;
},
{
glyphname = E;
layers = (
{
anchors = (
{
name = bottom;
position = "{269, 0}";
},
{
name = ogonek;
position = "{480, 0}";
},
{
name = top;
position = "{269, 750}";
},
{
name = topleft;
position = "{10, 750}";
}
);
background = {
paths = (
{
closed = 1;
nodes = (
"459 0 LINE",
"473 122 LINE",
"214 122 LINE",
"214 326 LINE",
"392 326 LINE",
"407 446 LINE",
"214 446 LINE",
"214 628 LINE",
"453 628 LINE",
"468 750 LINE",
"70 750 LINE",
"70 0 LINE"
);
}
);
};
guideLines = (
{
position = "{447, 622}";
},
{
position = "{405, 446}";
},
{
angle = 83;
position = "{431, 750}";
}
);
layerId = "849A9C4C-BF7C-40C5-8614-1FD725A2A379";
paths = (
{
closed = 1;
nodes = (
"459 0 LINE",
"473 122 LINE",
"214 122 LINE",
"214 326 LINE",
"387 326 LINE",
"387 446 LINE",
"214 446 LINE",
"214 628 LINE",
"453 628 LINE",
"468 750 LINE",
"70 750 LINE",
"70 0 LINE"
);
}
);
width = 497;
}
);
leftKerningGroup = STRAIGHT;
leftMetricsKey = H;
rightKerningGroup = KINDAOPEN;
unicode = 0045;
},
{
glyphname = Emacronacute;
layers = (
{
background = {
components = (
{
name = E;
},
{
alignment = -1;
name = macroncomb.case;
transform = "{1, 0, 0, 1, 259, -42}";
}
);
paths = (
{
closed = 1;
nodes = (
"386 994 LINE",
"322 1118 LINE",
"132 978 LINE",
"164 913 LINE"
);
}
);
};
components = (
{
name = E;
},
{
name = macroncomb_acutecomb;
transform = "{1, 0, 0, 1, 269, 187}";
}
);
layerId = "849A9C4C-BF7C-40C5-8614-1FD725A2A379";
width = 497;
}
);
leftKerningGroup = STRAIGHT;
rightKerningGroup = KINDAOPEN;
unicode = 1E16;
},
{
glyphname = Emacrongrave;
layers = (
{
background = {
components = (
{
name = E;
},
{
alignment = -1;
name = macroncomb.case;
transform = "{1, 0, 0, 1, 259, -42}";
}
);
paths = (
{
closed = 1;
nodes = (
"386 978 LINE",
"196 1118 LINE",
"132 994 LINE",
"354 913 LINE"
);
}
);
};
components = (
{
name = E;
},
{
name = macroncomb_gravecomb;
transform = "{1, 0, 0, 1, 269, 187}";
}
);
layerId = "849A9C4C-BF7C-40C5-8614-1FD725A2A379";
width = 497;
}
);
leftKerningGroup = STRAIGHT;
rightKerningGroup = KINDAOPEN;
unicode = 1E14;
},
{
glyphname = Eopen;
layers = (
{
background = {
paths = (
{
closed = 1;
nodes = (
"387 -14 OFFCURVE",
"474 63 OFFCURVE",
"477 192 CURVE",
"358 217 LINE",
"356 152 OFFCURVE",
"326 104 OFFCURVE",
"263 104 CURVE SMOOTH",
"188 104 OFFCURVE",
"167 155 OFFCURVE",
"167 210 CURVE SMOOTH",
"167 292 OFFCURVE",
"221 326 OFFCURVE",
"314 326 CURVE",
"314 434 LINE",
"228 434 OFFCURVE",
"180 467 OFFCURVE",
"180 551 CURVE SMOOTH",
"180 611 OFFCURVE",
"210 647 OFFCURVE",
"263 647 CURVE SMOOTH",
"322 647 OFFCURVE",
"348 598 OFFCURVE",
"352 531 CURVE",
"470 558 LINE",
"460 692 OFFCURVE",
"386 764 OFFCURVE",
"257 764 CURVE SMOOTH",
"131 764 OFFCURVE",
"40 696 OFFCURVE",
"40 555 CURVE SMOOTH",
"40 463 OFFCURVE",
"86 387 OFFCURVE",
"210 368 CURVE",
"208 395 LINE",
"88 376 OFFCURVE",
"30 304 OFFCURVE",
"30 207 CURVE SMOOTH",
"30 86 OFFCURVE",
"112 -14 OFFCURVE",
"261 -14 CURVE SMOOTH"
);
}
);
};
layerId = "849A9C4C-BF7C-40C5-8614-1FD725A2A379";
paths = (
{
closed = 1;
nodes = (
"387 -14 OFFCURVE",
"477 66 OFFCURVE",
"477 192 CURVE",
"358 217 LINE",
"358 152 OFFCURVE",
"326 104 OFFCURVE",
"263 104 CURVE SMOOTH",
"188 104 OFFCURVE",
"167 155 OFFCURVE",
"167 210 CURVE SMOOTH",
"167 292 OFFCURVE",
"221 326 OFFCURVE",
"314 326 CURVE",
"314 434 LINE",
"228 434 OFFCURVE",
"180 467 OFFCURVE",
"180 551 CURVE SMOOTH",
"180 611 OFFCURVE",
"210 647 OFFCURVE",
"263 647 CURVE SMOOTH",
"322 647 OFFCURVE",
"348 598 OFFCURVE",
"352 531 CURVE",
"470 558 LINE",
"460 692 OFFCURVE",
"386 764 OFFCURVE",
"257 764 CURVE SMOOTH",
"131 764 OFFCURVE",
"40 696 OFFCURVE",
"40 555 CURVE SMOOTH",
"40 463 OFFCURVE",
"86 387 OFFCURVE",
"210 368 CURVE",
"208 395 LINE",
"88 376 OFFCURVE",
"30 304 OFFCURVE",
"30 207 CURVE SMOOTH",
"30 86 OFFCURVE",
"112 -14 OFFCURVE",
"261 -14 CURVE SMOOTH"
);
}
);
width = 512;
}
);
rightKerningGroup = ROPEN;
unicode = 0190;
},
{
glyphname = Ereversed;
layers = (
{
layerId = "849A9C4C-BF7C-40C5-8614-1FD725A2A379";
paths = (
{
closed = 1;
nodes = (
"427 0 LINE",
"427 750 LINE",
"45 750 LINE",
"30 628 LINE",
"283 628 LINE",
"283 446 LINE",
"99 446 LINE",
"99 326 LINE",
"283 326 LINE",
"283 122 LINE",
"38 122 LINE",
"24 0 LINE"
);
}
);
width = 497;
}
);
unicode = 018E;
},
{
glyphname = Esh;
layers = (
{
background = {
paths = (
{
closed = 1;
nodes = (
"439 0 LINE",
"453 122 LINE",
"194 122 LINE",
"194 326 LINE",
"372 326 LINE",
"387 446 LINE",
"194 446 LINE",
"194 628 LINE",
"433 628 LINE",
"448 750 LINE",
"50 750 LINE",
"50 0 LINE"
);
}
);
};
layerId = "849A9C4C-BF7C-40C5-8614-1FD725A2A379";
paths = (
{
closed = 1;
nodes = (
"439 0 LINE",
"453 122 LINE",
"142 122 LINE",
"182 67 LINE",
"363 375 LINE",
"182 683 LINE",
"142 628 LINE",
"433 628 LINE",
"448 750 LINE",
"50 750 LINE",
"50 638 LINE",
"205 375 LINE",
"50 112 LINE",
"50 0 LINE"
);
}
);
width = 477;
}
);
unicode = 01A9;
},
{
glyphname = Estroke;
layers = (
{
layerId = "849A9C4C-BF7C-40C5-8614-1FD725A2A379";
paths = (
{
closed = 1;
nodes = (
"459 0 LINE",
"473 122 LINE",
"214 122 LINE",
"214 326 LINE",
"419 326 LINE",
"434 446 LINE",
"214 446 LINE",
"214 628 LINE",
"453 628 LINE",
"468 750 LINE",
"70 750 LINE",
"70 0 LINE"
);
},
{
closed = 1;
nodes = (
"427 832 LINE",
"359 840 LINE",
"225 -82 LINE",
"293 -90 LINE"
);
}
);
width = 497;
}
);
leftKerningGroup = STRAIGHT;
rightKerningGroup = KINDAOPEN;
unicode = 0246;
},
{
glyphname = Ezh;
layers = (
{
anchors = (
{
name = bottom;
position = "{238, 0}";
},
{
name = top;
position = "{238, 750}";
}
);
background = {
paths = (
{
closed = 1;
nodes = (
"359 -154 OFFCURVE",
"441 -54 OFFCURVE",
"441 117 CURVE SMOOTH",
"441 264 OFFCURVE",
"383 366 OFFCURVE",
"263 385 CURVE",
"147 389 LINE",
"147 301 LINE",
"239 300 OFFCURVE",
"304 252 OFFCURVE",
"304 120 CURVE SMOOTH",
"304 15 OFFCURVE",
"283 -36 OFFCURVE",
"221 -36 CURVE SMOOTH",
"167 -36 OFFCURVE",
"141 12 OFFCURVE",
"139 117 CURVE",
"10 92 LINE",
"13 -77 OFFCURVE",
"100 -154 OFFCURVE",
"218 -154 CURVE SMOOTH"
);
},
{
closed = 1;
nodes = (
"428 638 LINE",
"428 750 LINE",
"46 750 LINE",
"31 628 LINE",
"347 628 LINE",
"303 680 LINE",
"147 396 LINE",
"147 369 LINE",
"250 320 LINE"
);
}
);
};
layerId = "849A9C4C-BF7C-40C5-8614-1FD725A2A379";
paths = (
{
closed = 1;
nodes = (
"359 -154 OFFCURVE",
"441 -54 OFFCURVE",
"441 117 CURVE SMOOTH",
"441 272 OFFCURVE",
"376 378 OFFCURVE",
"241 388 CURVE",
"253 326 LINE",
"428 638 LINE",
"428 750 LINE",
"46 750 LINE",
"31 628 LINE",
"337 628 LINE",
"304 683 LINE",
"147 396 LINE",
"147 301 LINE",
"239 301 OFFCURVE",
"304 252 OFFCURVE",
"304 120 CURVE SMOOTH",
"304 15 OFFCURVE",
"283 -36 OFFCURVE",
"221 -36 CURVE SMOOTH",
"167 -36 OFFCURVE",
"141 12 OFFCURVE",
"141 117 CURVE",
"10 92 LINE",
"10 -73 OFFCURVE",
"100 -154 OFFCURVE",
"218 -154 CURVE SMOOTH"
);
}
);
width = 471;
}
);
rightKerningGroup = SMALL;
unicode = 01B7;
},
{
glyphname = Ezhreversed;
layers = (
{
background = {
paths = (
{
closed = 1;
nodes = (
"371 -154 OFFCURVE",
"458 -77 OFFCURVE",
"461 92 CURVE",
"332 117 LINE",
"330 12 OFFCURVE",
"310 -36 OFFCURVE",
"255 -36 CURVE SMOOTH",
"198 -36 OFFCURVE",
"167 15 OFFCURVE",
"167 120 CURVE SMOOTH",
"167 252 OFFCURVE",
"232 300 OFFCURVE",
"324 301 CURVE",
"324 389 LINE",
"208 385 LINE",
"88 366 OFFCURVE",
"30 264 OFFCURVE",
"30 117 CURVE SMOOTH",
"30 -54 OFFCURVE",
"112 -154 OFFCURVE",
"253 -154 CURVE SMOOTH"
);
},
{
closed = 1;
nodes = (
"324 369 LINE",
"324 396 LINE",
"168 680 LINE",
"124 628 LINE",
"427 628 LINE",
"441 750 LINE",
"43 750 LINE",
"43 638 LINE",
"221 320 LINE"
);
}
);
};
layerId = "849A9C4C-BF7C-40C5-8614-1FD725A2A379";
paths = (
{
closed = 1;
nodes = (
"371 -154 OFFCURVE",
"461 -73 OFFCURVE",
"461 92 CURVE",
"332 117 LINE",
"332 15 OFFCURVE",
"310 -36 OFFCURVE",
"255 -36 CURVE SMOOTH",
"198 -36 OFFCURVE",
"167 15 OFFCURVE",
"167 120 CURVE SMOOTH",
"167 252 OFFCURVE",
"232 301 OFFCURVE",
"324 301 CURVE",
"324 396 LINE",
"167 683 LINE",
"134 628 LINE",
"427 628 LINE",
"441 750 LINE",
"43 750 LINE",
"43 638 LINE",
"218 326 LINE",
"230 388 LINE",
"95 378 OFFCURVE",
"30 272 OFFCURVE",
"30 117 CURVE SMOOTH",
"30 -54 OFFCURVE",
"112 -154 OFFCURVE",
"253 -154 CURVE SMOOTH"
);
}
);
width = 471;
}
);
rightKerningGroup = KINDAOPEN;
unicode = 01B8;
},
{
glyphname = F;
layers = (
{
anchors = (
{
name = bottom;
position = "{230, 0}";
},
{
name = top;
position = "{270, 750}";
}
);
background = {
components = (
{
name = E;
transform = "{1, 0, 0, 1, 10, 0}";
}
);
};
guideLines = (
{
position = "{7, 438}";
},
{
angle = 83;
position = "{424, 750}";
},
{
angle = 3;
position = "{217, 0}";
}
);
layerId = "849A9C4C-BF7C-40C5-8614-1FD725A2A379";
paths = (
{
closed = 1;
nodes = (
"214 6 LINE",
"214 313 LINE",
"379 313 LINE",
"379 435 LINE",
"214 435 LINE",
"214 628 LINE",
"445 628 LINE",
"460 750 LINE",
"70 750 LINE",
"70 -6 LINE"
);
}
);
width = 469;
}
);
leftKerningGroup = STRAIGHT;
rightKerningGroup = KINDAOPEN;
unicode = 0046;
},
{
glyphname = Fhook;
layers = (
{
layerId = "849A9C4C-BF7C-40C5-8614-1FD725A2A379";
paths = (
{
closed = 1;
nodes = (
"145 -173 OFFCURVE",
"204 -114 OFFCURVE",
"204 0 CURVE SMOOTH",
"204 313 LINE",
"369 313 LINE",
"369 435 LINE",
"204 435 LINE",
"204 628 LINE",
"435 628 LINE",
"450 750 LINE",
"60 750 LINE",
"60 13 LINE SMOOTH",
"60 -30 OFFCURVE",
"49 -47 OFFCURVE",
"23 -47 CURVE SMOOTH",
"14 -47 OFFCURVE",
"7 -46 OFFCURVE",
"-1 -43 CURVE",
"-13 -159 LINE",
"10 -167 OFFCURVE",
"31 -173 OFFCURVE",
"59 -173 CURVE SMOOTH"
);
}
);
width = 460;
}
);
leftKerningGroup = STRAIGHT;
rightKerningGroup = KINDAOPEN;
unicode = 0191;
},
{
glyphname = G;
layers = (
{
anchors = (
{
name = bottom;
position = "{291, 0}";
},
{
name = top;
position = "{292, 750}";
}
);
background = {
components = (
{
name = C;
transform = "{1, 0, 0, 1, 4, 0}";
}
);
};
guideLines = (
{
angle = 83;
position = "{302, 375}";
},
{
angle = 7;
position = "{445, -12}";
}
);
layerId = "849A9C4C-BF7C-40C5-8614-1FD725A2A379";
paths = (
{
closed = 1;
nodes = (
"346 -14 OFFCURVE",
"402 30 OFFCURVE",
"428 80 CURVE",
"447 -17 LINE",
"515 -8 LINE",
"515 374 LINE",
"304 374 LINE",
"290 262 LINE",
"383 262 LINE",
"383 228 LINE SMOOTH",
"383 178 OFFCURVE",
"360 107 OFFCURVE",
"293 107 CURVE SMOOTH",
"202 107 OFFCURVE",
"188 238 OFFCURVE",
"188 361 CURVE SMOOTH",
"188 509 OFFCURVE",
"205 641 OFFCURVE",
"290 641 CURVE SMOOTH",
"353 641 OFFCURVE",
"371 569 OFFCURVE",
"377 493 CURVE",
"509 521 LINE",
"501 662 OFFCURVE",
"432 764 OFFCURVE",
"295 764 CURVE SMOOTH",
"114 764 OFFCURVE",
"40 609 OFFCURVE",
"40 363 CURVE SMOOTH",
"40 114 OFFCURVE",
"129 -14 OFFCURVE",
"273 -14 CURVE SMOOTH"
);
}
);
width = 565;
}
);
leftKerningGroup = ROUND;
leftMetricsKey = C;
rightKerningGroup = ROPEN;
unicode = 0047;
},
{
glyphname = Ghook;
layers = (
{
anchors = (
{
name = bottom;
position = "{291, 0}";
},
{
name = top;
position = "{292, 750}";
}
);
background = {
paths = (
{
closed = 1;
nodes = (
"346 -14 OFFCURVE",
"402 30 OFFCURVE",
"428 80 CURVE",
"447 -17 LINE",
"515 -8 LINE",
"515 374 LINE",
"304 374 LINE",
"290 262 LINE",
"383 262 LINE",
"383 228 LINE SMOOTH",
"383 178 OFFCURVE",
"360 107 OFFCURVE",
"293 107 CURVE SMOOTH",
"202 107 OFFCURVE",
"188 238 OFFCURVE",
"188 361 CURVE SMOOTH",
"188 509 OFFCURVE",
"205 641 OFFCURVE",
"290 641 CURVE SMOOTH",
"353 641 OFFCURVE",
"371 569 OFFCURVE",
"377 493 CURVE",
"509 521 LINE",
"467 658 OFFCURVE",
"432 764 OFFCURVE",
"295 764 CURVE SMOOTH",
"114 764 OFFCURVE",
"40 609 OFFCURVE",
"40 363 CURVE SMOOTH",
"40 114 OFFCURVE",
"129 -14 OFFCURVE",
"273 -14 CURVE SMOOTH"
);
},
{
closed = 1;
nodes = (
"604 854 OFFCURVE",
"571 870 OFFCURVE",
"529 870 CURVE SMOOTH",
"441 870 OFFCURVE",
"393 805 OFFCURVE",
"393 730 CURVE SMOOTH",
"393 681 OFFCURVE",
"396 652 OFFCURVE",
"403 630 CURVE",
"509 521 LINE",
"468 709 OFFCURVE",
"484 752 OFFCURVE",
"533 752 CURVE SMOOTH",
"553 752 OFFCURVE",
"565 744 OFFCURVE",
"582 725 CURVE",
"619 834 LINE"
);
}
);
};
layerId = "849A9C4C-BF7C-40C5-8614-1FD725A2A379";
paths = (
{
closed = 1;
nodes = (
"346 -14 OFFCURVE",
"402 30 OFFCURVE",
"428 80 CURVE",
"447 -17 LINE",
"515 -8 LINE",
"515 374 LINE",
"304 374 LINE",
"290 262 LINE",
"383 262 LINE",
"383 228 LINE SMOOTH",
"383 178 OFFCURVE",
"360 107 OFFCURVE",
"293 107 CURVE SMOOTH",
"202 107 OFFCURVE",
"188 238 OFFCURVE",
"188 361 CURVE SMOOTH",
"188 509 OFFCURVE",
"205 641 OFFCURVE",
"290 641 CURVE SMOOTH",
"353 641 OFFCURVE",
"371 569 OFFCURVE",
"377 493 CURVE",
"509 521 LINE",
"493 595 OFFCURVE",
"486 646 OFFCURVE",
"486 681 CURVE SMOOTH",
"486 736 OFFCURVE",
"503 752 OFFCURVE",
"533 752 CURVE SMOOTH",
"553 752 OFFCURVE",
"565 744 OFFCURVE",
"582 725 CURVE",
"619 834 LINE",
"604 854 OFFCURVE",
"571 870 OFFCURVE",
"529 870 CURVE SMOOTH",
"441 870 OFFCURVE",
"393 805 OFFCURVE",
"393 732 CURVE SMOOTH",
"393 720 OFFCURVE",
"394 707 OFFCURVE",
"397 695 CURVE",
"420 713 LINE",
"393 746 OFFCURVE",
"353 764 OFFCURVE",
"295 764 CURVE SMOOTH",
"114 764 OFFCURVE",
"40 609 OFFCURVE",
"40 363 CURVE SMOOTH",
"40 114 OFFCURVE",
"129 -14 OFFCURVE",
"273 -14 CURVE SMOOTH"
);
}
);
width = 579;
}
);
leftKerningGroup = ROUND;
rightKerningGroup = ROPEN;
unicode = 0193;
},
{
glyphname = Glottalstop;
layers = (
{
background = {
paths = (
{
closed = 1;
nodes = (
"252 243 LINE",
"242 257 OFFCURVE",
"236 273 OFFCURVE",
"236 296 CURVE SMOOTH",
"236 346 OFFCURVE",
"272 380 OFFCURVE",
"311 417 CURVE SMOOTH",
"369 472 OFFCURVE",
"391 516 OFFCURVE",
"391 582 CURVE SMOOTH",
"391 691 OFFCURVE",
"304 764 OFFCURVE",
"199 764 CURVE SMOOTH",
"85 764 OFFCURVE",
"7 693 OFFCURVE",
"4 573 CURVE",
"123 548 LINE",
"128 601 OFFCURVE",
"143 648 OFFCURVE",
"197 648 CURVE SMOOTH",
"228 648 OFFCURVE",
"255 620 OFFCURVE",
"255 572 CURVE SMOOTH",
"255 519 OFFCURVE",
"220 493 OFFCURVE",
"170 445 CURVE SMOOTH",
"132 408 OFFCURVE",
"104 367 OFFCURVE",
"104 308 CURVE SMOOTH",
"104 273 OFFCURVE",
"114 238 OFFCURVE",
"129 217 CURVE"
);
}
);
};
layerId = "849A9C4C-BF7C-40C5-8614-1FD725A2A379";
paths = (
{
closed = 1;
nodes = (
"297 12 LINE",
"283 32 OFFCURVE",
"272 54 OFFCURVE",
"272 97 CURVE SMOOTH",
"272 157 OFFCURVE",
"289 189 OFFCURVE",
"371 271 CURVE SMOOTH",
"449 349 OFFCURVE",
"498 431 OFFCURVE",
"498 524 CURVE SMOOTH",
"498 679 OFFCURVE",
"403 764 OFFCURVE",
"278 764 CURVE SMOOTH",
"141 764 OFFCURVE",
"24 678 OFFCURVE",
"24 518 CURVE",
"156 488 LINE",
"164 593 OFFCURVE",
"202 641 OFFCURVE",
"269 641 CURVE SMOOTH",
"327 641 OFFCURVE",
"351 604 OFFCURVE",
"351 539 CURVE SMOOTH",
"351 454 OFFCURVE",
"310 389 OFFCURVE",
"232 311 CURVE SMOOTH",
"175 254 OFFCURVE",
"129 184 OFFCURVE",
"129 101 CURVE SMOOTH",
"129 51 OFFCURVE",
"142 12 OFFCURVE",
"163 -18 CURVE"
);
}
);
width = 522;
}
);
unicode = 0241;
},
{
glyphname = Gstroke;
layers = (
{
layerId = "849A9C4C-BF7C-40C5-8614-1FD725A2A379";
paths = (
{
closed = 1;
nodes = (
"346 -14 OFFCURVE",
"402 30 OFFCURVE",
"428 80 CURVE",
"447 -17 LINE",
"515 -8 LINE",
"515 426 LINE",
"304 426 LINE",
"290 314 LINE",
"383 314 LINE",
"383 208 LINE SMOOTH",
"383 168 OFFCURVE",
"360 107 OFFCURVE",
"293 107 CURVE SMOOTH",
"202 107 OFFCURVE",
"188 238 OFFCURVE",
"188 361 CURVE SMOOTH",
"188 509 OFFCURVE",
"205 641 OFFCURVE",
"290 641 CURVE SMOOTH",
"353 641 OFFCURVE",
"371 569 OFFCURVE",
"377 493 CURVE",
"509 521 LINE",
"501 662 OFFCURVE",
"432 764 OFFCURVE",
"295 764 CURVE SMOOTH",
"114 764 OFFCURVE",
"40 609 OFFCURVE",
"40 363 CURVE SMOOTH",
"40 114 OFFCURVE",
"129 -14 OFFCURVE",
"273 -14 CURVE SMOOTH"
);
},
{
closed = 1;
nodes = (
"550 168 LINE",
"550 258 LINE",
"282 258 LINE",
"282 168 LINE"
);
}
);
width = 565;
}
);
leftKerningGroup = ROUND;
unicode = 01E4;
},
{
glyphname = H;
layers = (
{
anchors = (
{
name = bottom;
position = "{292, 0}";
},
{
name = center;
position = "{292, 375}";
},
{
name = top;
position = "{292, 750}";
},
{
name = topleft;
position = "{15, 750}";
}
);
background = {
paths = (
{
closed = 1;
nodes = (
"217 0 LINE",
"217 304 LINE",
"375 304 LINE",
"375 0 LINE",
"522 0 LINE",
"522 750 LINE",
"375 750 LINE",
"375 426 LINE",
"217 426 LINE",
"217 750 LINE",
"70 750 LINE",
"70 0 LINE"
);
}
);
};
guideLines = (
{
position = "{-248, 761}";
},
{
angle = 3;
position = "{519, 0}";
},
{
angle = 3;
position = "{212, 0}";
},
{
angle = 7;
position = "{212, 754}";
},
{
angle = 7;
position = "{522, 750}";
}
);
layerId = "849A9C4C-BF7C-40C5-8614-1FD725A2A379";
paths = (
{
closed = 1;
nodes = (
"217 6 LINE",
"217 304 LINE",
"375 304 LINE",
"375 -6 LINE",
"522 6 LINE",
"522 750 LINE",
"375 738 LINE",
"375 426 LINE",
"217 426 LINE",
"217 750 LINE",
"70 738 LINE",
"70 -6 LINE"
);
}
);
width = 592;
}
);
leftKerningGroup = STRAIGHT;
rightKerningGroup = STRAIGHT;
unicode = 0048;
},
{
glyphname = Hbar;
layers = (
{
background = {
components = (
{
name = H;
transform = "{1, 0, 0, 1, 10, 0}";
}
);
};
components = (
{
name = H;
}
);
guideLines = (
{
angle = 83;
position = "{573, 656}";
}
);
layerId = "849A9C4C-BF7C-40C5-8614-1FD725A2A379";
paths = (
{
closed = 1;
nodes = (
"560 550 LINE",
"571 639 LINE",
"13 639 LINE",
"13 550 LINE"
);
}
);
width = 592;
}
);
leftKerningGroup = STRAIGHT;
rightKerningGroup = STRAIGHT;
unicode = 0126;
},
{
glyphname = Heng;
layers = (
{
layerId = "849A9C4C-BF7C-40C5-8614-1FD725A2A379";
paths = (
{
closed = 1;
nodes = (
"479 -173 OFFCURVE",
"522 -88 OFFCURVE",
"522 10 CURVE SMOOTH",
"522 750 LINE",
"375 738 LINE",
"375 426 LINE",
"217 426 LINE",
"217 750 LINE",
"70 738 LINE",
"70 -6 LINE",
"217 6 LINE",
"217 304 LINE",
"375 304 LINE",
"375 13 LINE SMOOTH",
"375 -30 OFFCURVE",
"364 -47 OFFCURVE",
"338 -47 CURVE SMOOTH",
"329 -47 OFFCURVE",
"322 -46 OFFCURVE",
"314 -43 CURVE",
"302 -159 LINE",
"325 -167 OFFCURVE",
"346 -173 OFFCURVE",
"377 -173 CURVE SMOOTH"
);
}
);
width = 592;
}
);
leftKerningGroup = STRAIGHT;
rightKerningGroup = STRAIGHT;
unicode = A726;
},
{
glyphname = Hhook;
layers = (
{
layerId = "849A9C4C-BF7C-40C5-8614-1FD725A2A379";
paths = (
{
closed = 1;
nodes = (
"329 6 LINE",
"329 304 LINE",
"487 304 LINE",
"487 -6 LINE",
"634 6 LINE",
"634 750 LINE",
"487 738 LINE",
"487 426 LINE",
"329 426 LINE",
"329 750 LINE",
"170 750 LINE SMOOTH",
"65 750 OFFCURVE",
"0 690 OFFCURVE",
"0 596 CURVE SMOOTH",
"0 550 OFFCURVE",
"16 520 OFFCURVE",
"36 494 CURVE",
"135 531 LINE",
"118 553 OFFCURVE",
"108 574 OFFCURVE",
"108 597 CURVE SMOOTH",
"108 627 OFFCURVE",
"125 647 OFFCURVE",
"154 647 CURVE SMOOTH",
"182 647 LINE",
"182 -6 LINE"
);
}
);
width = 704;
}
);
rightKerningGroup = STRAIGHT;
unicode = A7AA;
},
{
glyphname = Hturned;
layers = (
{
layerId = "849A9C4C-BF7C-40C5-8614-1FD725A2A379";
paths = (
{
closed = 1;
nodes = (
"512 6 LINE",
"512 750 LINE",
"365 738 LINE",
"365 426 LINE",
"207 426 LINE",
"207 750 LINE",
"60 738 LINE",
"60 304 LINE",
"365 304 LINE",
"365 -6 LINE"
);
}
);
width = 582;
}
);
rightKerningGroup = STRAIGHT;
unicode = A78D;
},
{
glyphname = I;
layers = (
{
anchors = (
{
name = bottom;
position = "{144, 0}";
},
{
name = ogonek;
position = "{272, 5}";
},
{
name = top;
position = "{144, 750}";
},
{
name = topleft;
position = "{10, 750}";
}
);
background = {
paths = (
{
closed = 1;
nodes = (
"217 0 LINE",
"217 750 LINE",
"70 750 LINE",
"70 0 LINE"
);
}
);
};
layerId = "849A9C4C-BF7C-40C5-8614-1FD725A2A379";
paths = (
{
closed = 1;
nodes = (
"217 6 LINE",
"217 750 LINE",
"70 738 LINE",
"70 -6 LINE"
);
}
);
width = 287;
}
);
leftKerningGroup = STRAIGHT;
rightKerningGroup = STRAIGHT;
unicode = 0049;
},
{
glyphname = IJ;
layers = (
{
background = {
paths = (
{
closed = 1;
nodes = (
"220 247 LINE",
"220 750 LINE",
"73 750 LINE",
"73 247 LINE"
);
},
{
closed = 1;
nodes = (
"423 -14 OFFCURVE",
"506 83 OFFCURVE",
"506 235 CURVE SMOOTH",
"506 750 LINE",
"359 750 LINE",
"359 262 LINE SMOOTH",
"359 169 OFFCURVE",
"324 117 OFFCURVE",
"238 117 CURVE SMOOTH",
"182 117 OFFCURVE",
"130 130 OFFCURVE",
"87 150 CURVE",
"60 23 LINE",
"119 -3 OFFCURVE",
"172 -14 OFFCURVE",
"253 -14 CURVE SMOOTH"
);
}
);
};
layerId = "849A9C4C-BF7C-40C5-8614-1FD725A2A379";
paths = (
{
closed = 1;
nodes = (
"423 -14 OFFCURVE",
"506 75 OFFCURVE",
"506 235 CURVE SMOOTH",
"506 750 LINE",
"359 738 LINE",
"359 246 LINE SMOOTH",
"359 163 OFFCURVE",
"324 117 OFFCURVE",
"243 117 CURVE SMOOTH",
"192 117 OFFCURVE",
"140 130 OFFCURVE",
"97 150 CURVE",
"70 23 LINE",
"129 -3 OFFCURVE",
"182 -14 OFFCURVE",
"258 -14 CURVE SMOOTH"
);
},
{
closed = 1;
nodes = (
"230 247 LINE",
"230 750 LINE",
"83 738 LINE",
"83 247 LINE"
);
}
);
width = 572;
}
);
leftKerningGroup = STRAIGHT;
rightKerningGroup = STRAIGHT;
unicode = 0132;
},
{
glyphname = Idieresisacute;
layers = (
{
components = (
{
name = I;
},
{
alignment = -1;
name = dieresiscomb.case;
transform = "{1, 0, 0, 1, 138, -56}";
}
);
layerId = "849A9C4C-BF7C-40C5-8614-1FD725A2A379";
paths = (
{
closed = 1;
nodes = (
"274 986 LINE",
"232 1120 LINE",
"21 1014 LINE",
"41 945 LINE"
);
}
);
width = 275;
}
);
leftKerningGroup = STRAIGHT;
rightKerningGroup = STRAIGHT;
unicode = 1E2E;
},
{
glyphname = Iotaafrican;
layers = (
{
layerId = "849A9C4C-BF7C-40C5-8614-1FD725A2A379";
paths = (
{
closed = 1;
nodes = (
"258 -13 OFFCURVE",
"279 -8 OFFCURVE",
"302 3 CURVE",
"290 124 LINE",
"282 121 OFFCURVE",
"265 118 OFFCURVE",
"250 118 CURVE SMOOTH",
"223 118 OFFCURVE",
"207 135 OFFCURVE",
"207 173 CURVE SMOOTH",
"207 750 LINE",
"60 750 LINE",
"60 170 LINE SMOOTH",
"60 72 OFFCURVE",
"108 -13 OFFCURVE",
"224 -13 CURVE SMOOTH"
);
}
);
width = 302;
}
);
leftKerningGroup = STRAIGHT;
rightKerningGroup = STRAIGHT;
unicode = 0196;
},
{
glyphname = Istroke;
layers = (
{
components = (
{
name = I;
}
);
layerId = "849A9C4C-BF7C-40C5-8614-1FD725A2A379";
paths = (
{
closed = 1;
nodes = (
"270 346 LINE",
"270 436 LINE",
"5 436 LINE",
"5 346 LINE"
);
}
);
width = 275;
}
);
leftKerningGroup = STRAIGHT;
rightKerningGroup = STRAIGHT;
unicode = 0197;
},
{
glyphname = J;
layers = (
{
anchors = (
{
name = bottom;
position = "{201, 0}";
},
{
name = top;
position = "{232, 750}";
}
);
guideLines = (
{
angle = 83;
position = "{27, 2}";
},
{
angle = 7;
position = "{301, 758}";
}
);
layerId = "849A9C4C-BF7C-40C5-8614-1FD725A2A379";
paths = (
{
closed = 1;
nodes = (
"246 -14 OFFCURVE",
"301 60 OFFCURVE",
"301 176 CURVE SMOOTH",
"301 750 LINE",
"155 750 LINE",
"155 192 LINE SMOOTH",
"155 140 OFFCURVE",
"146 110 OFFCURVE",
"98 110 CURVE SMOOTH",
"76 110 OFFCURVE",
"61 114 OFFCURVE",
"42 124 CURVE",
"27 5 LINE",
"61 -10 OFFCURVE",
"89 -14 OFFCURVE",
"129 -14 CURVE SMOOTH"
);
}
);
width = 367;
}
);
leftKerningGroup = J;
rightKerningGroup = STRAIGHT;
unicode = 004A;
},
{
glyphname = Jcrossedtail;
layers = (
{
background = {
paths = (
{
closed = 1;
nodes = (
"331 -14 OFFCURVE",
"386 60 OFFCURVE",
"386 176 CURVE SMOOTH",
"386 750 LINE",
"240 750 LINE",
"240 192 LINE SMOOTH",
"240 140 OFFCURVE",
"231 110 OFFCURVE",
"197 110 CURVE",
"198 -14 LINE"
);
},
{
closed = 1;
nodes = (
"197 110 LINE",
"163 110 OFFCURVE",
"146 139 OFFCURVE",
"146 201 CURVE SMOOTH",
"146 271 OFFCURVE",
"193 322 OFFCURVE",
"257 322 CURVE",
"258 446 LINE",
"105 446 OFFCURVE",
"10 341 OFFCURVE",
"10 201 CURVE SMOOTH",
"10 69 OFFCURVE",
"65 -14 OFFCURVE",
"198 -14 CURVE"
);
},
{
closed = 1;
nodes = (
"456 423 LINE",
"422 438 OFFCURVE",
"394 442 OFFCURVE",
"354 442 CURVE",
"385 318 LINE",
"407 318 OFFCURVE",
"422 314 OFFCURVE",
"441 304 CURVE"
);
}
);
};
layerId = "849A9C4C-BF7C-40C5-8614-1FD725A2A379";
paths = (
{
closed = 1;
nodes = (
"321 -14 OFFCURVE",
"386 70 OFFCURVE",
"386 186 CURVE SMOOTH",
"386 750 LINE",
"240 750 LINE",
"240 192 LINE SMOOTH",
"240 140 OFFCURVE",
"231 110 OFFCURVE",
"197 110 CURVE SMOOTH",
"163 110 OFFCURVE",
"146 139 OFFCURVE",
"146 201 CURVE SMOOTH",
"146 271 OFFCURVE",
"193 322 OFFCURVE",
"258 322 CURVE",
"258 446 LINE",
"105 446 OFFCURVE",
"10 341 OFFCURVE",
"10 201 CURVE SMOOTH",
"10 69 OFFCURVE",
"65 -14 OFFCURVE",
"198 -14 CURVE SMOOTH"
);
},
{
closed = 1;
nodes = (
"456 423 LINE",
"422 438 OFFCURVE",
"394 442 OFFCURVE",
"354 442 CURVE",
"385 318 LINE",
"407 318 OFFCURVE",
"422 314 OFFCURVE",
"441 304 CURVE"
);
}
);
width = 456;
}
);
unicode = A7B2;
},
{
glyphname = Jstroke;
layers = (
{
components = (
{
name = J;
}
);
layerId = "849A9C4C-BF7C-40C5-8614-1FD725A2A379";
paths = (
{
closed = 1;
nodes = (
"368 356 LINE",
"368 446 LINE",
"90 446 LINE",
"90 356 LINE"
);
}
);
width = 343;
}
);
unicode = 0248;
},
{
glyphname = K;
layers = (
{
anchors = (
{
name = bottom;
position = "{291, 0}";
},
{
name = top;
position = "{281, 750}";
}
);
background = {
paths = (
{
closed = 1;
nodes = (
"216 0 LINE",
"216 217 LINE",
"275 315 LINE",
"313 300 LINE",
"526 716 LINE",
"404 765 LINE",
"216 392 LINE",
"216 750 LINE",
"72 750 LINE",
"72 0 LINE"
);
},
{
closed = 1;
nodes = (
"539 33 LINE",
"350 444 LINE",
"253 328 LINE",
"404 -16 LINE"
);
}
);
};
guideLines = (
{
angle = 60.6558;
position = "{273, 335}";
},
{
angle = 20;
position = "{402, -19}";
}
);
layerId = "849A9C4C-BF7C-40C5-8614-1FD725A2A379";
paths = (
{
closed = 1;
nodes = (
"217 0 LINE",
"217 280 LINE",
"182 163 LINE",
"273 315 LINE",
"311 300 LINE",
"541 750 LINE",
"395 750 LINE",
"186 336 LINE",
"217 329 LINE",
"217 750 LINE",
"70 738 LINE",
"70 0 LINE"
);
},
{
closed = 1;
nodes = (
"547 33 LINE",
"358 444 LINE",
"261 328 LINE",
"412 -16 LINE"
);
}
);
width = 557;
}
);
leftKerningGroup = STRAIGHT;
leftMetricsKey = H;
rightKerningGroup = VOID;
unicode = 004B;
},
{
glyphname = Khook;
layers = (
{
layerId = "849A9C4C-BF7C-40C5-8614-1FD725A2A379";
paths = (
{
closed = 1;
nodes = (
"214 0 LINE",
"214 196 LINE",
"273 315 LINE",
"311 300 LINE",
"452 615 LINE SMOOTH",
"459 630 OFFCURVE",
"470 640 OFFCURVE",
"489 640 CURVE SMOOTH",
"507 640 OFFCURVE",
"519 632 OFFCURVE",
"533 615 CURVE",
"591 717 LINE",
"560 747 OFFCURVE",
"528 763 OFFCURVE",
"481 763 CURVE SMOOTH",
"397 763 OFFCURVE",
"353 721 OFFCURVE",
"314 629 CURVE SMOOTH",
"214 392 LINE",
"214 750 LINE",
"70 750 LINE",
"70 0 LINE"
);
},
{
closed = 1;
nodes = (
"547 33 LINE",
"358 444 LINE",
"261 328 LINE",
"412 -16 LINE"
);
}
);
width = 571;
}
);
leftKerningGroup = STRAIGHT;
rightKerningGroup = VOID;
unicode = 0198;
},
{
glyphname = Kstroke;
layers = (
{
components = (
{
name = K;
}
);
layerId = "849A9C4C-BF7C-40C5-8614-1FD725A2A379";
paths = (
{
closed = 1;
nodes = (
"273 589 LINE",
"273 679 LINE",
"5 679 LINE",
"5 589 LINE"
);
}
);
width = 557;
}
);
leftKerningGroup = STRAIGHT;
rightKerningGroup = VOID;
unicode = A740;
},
{
glyphname = L;
layers = (
{
anchors = (
{
name = bottom;
position = "{274, 0}";
},
{
name = center;
position = "{156, 405}";
},
{
name = top;
position = "{143, 750}";
},
{
name = topright;
position = "{289, 521}";
}
);
guideLines = (
{
angle = 7;
position = "{216, 750}";
},
{
angle = 83;
position = "{462, 123}";
}
);
layerId = "849A9C4C-BF7C-40C5-8614-1FD725A2A379";
paths = (
{
closed = 1;
nodes = (
"444 0 LINE",
"459 123 LINE",
"217 123 LINE",
"217 750 LINE",
"70 738 LINE",
"70 0 LINE"
);
}
);
width = 466;
}
);
leftKerningGroup = STRAIGHT;
leftMetricsKey = H;
rightKerningGroup = L;
unicode = 004C;
},
{
glyphname = Lbelt;
layers = (
{
layerId = "849A9C4C-BF7C-40C5-8614-1FD725A2A379";
paths = (
{
closed = 1;
nodes = (
"500 0 LINE",
"515 123 LINE",
"272 123 LINE",
"272 750 LINE",
"126 750 LINE",
"126 0 LINE"
);
},
{
closed = 1;
nodes = (
"371 263 LINE",
"381 353 LINE",
"126 353 LINE SMOOTH",
"92 353 OFFCURVE",
"81 371 OFFCURVE",
"81 393 CURVE SMOOTH",
"81 414 OFFCURVE",
"92 433 OFFCURVE",
"126 433 CURVE SMOOTH",
"195 433 LINE",
"195 523 LINE",
"124 523 LINE SMOOTH",
"53 523 OFFCURVE",
"-8 472 OFFCURVE",
"-8 392 CURVE SMOOTH",
"-8 315 OFFCURVE",
"53 263 OFFCURVE",
"124 263 CURVE SMOOTH"
);
}
);
width = 522;
}
);
rightKerningGroup = L;
unicode = A7AD;
},
{
glyphname = Ldot;
layers = (
{
components = (
{
alignment = -1;
name = L;
}
);
layerId = "849A9C4C-BF7C-40C5-8614-1FD725A2A379";
paths = (
{
closed = 1;
nodes = (
"443 346 LINE",
"443 487 LINE",
"303 487 LINE",
"303 346 LINE"
);
}
);
width = 466;
}
);
leftKerningGroup = STRAIGHT;
rightKerningGroup = KINDAOPEN;
unicode = 013F;
},
{
glyphname = Lslash;
layers = (
{
background = {
components = (
{
name = L;
transform = "{1, 0, 0, 1, 7, 0}";
}
);
paths = (
{
closed = 1;
nodes = (
"352 433 LINE",
"333 546 LINE",
"-1 319 LINE",
"18 206 LINE"
);
}
);
};
components = (
{
name = L;
transform = "{1, 0, 0, 1, 7, 0}";
}
);
layerId = "849A9C4C-BF7C-40C5-8614-1FD725A2A379";
paths = (
{
closed = 1;
nodes = (
"327 429 LINE",
"308 529 LINE",
"-1 319 LINE",
"18 219 LINE"
);
}
);
width = 471;
}
);
leftKerningGroup = STRAIGHT;
rightKerningGroup = KINDAOPEN;
unicode = 0141;
},
{
glyphname = M;
layers = (
{
anchors = (
{
name = bottom;
position = "{402, 0}";
},
{
name = top;
position = "{402, 750}";
}
);
background = {
paths = (
{
closed = 1;
nodes = (
"729 6 LINE",
"729 744 LINE",
"533 732 LINE",
"414 285 LINE",
"290 749 LINE",
"75 743 LINE",
"75 0 LINE",
"196 6 LINE",
"196 559 LINE",
"347 0 LINE",
"437 0 LINE",
"577 557 LINE",
"577 -6 LINE"
);
}
);
};
guideLines = (
{
angle = 7;
position = "{259, 758}";
},
{
angle = 7;
position = "{344, -4}";
},
{
angle = 7;
position = "{72, 768}";
}
);
layerId = "849A9C4C-BF7C-40C5-8614-1FD725A2A379";
paths = (
{
closed = 1;
nodes = (
"197 6 LINE",
"197 516 LINE",
"190 628 LINE",
"180 626 LINE",
"347 0 LINE",
"446 0 LINE",
"606 627 LINE",
"597 629 LINE",
"589 520 LINE",
"589 -6 LINE",
"724 6 LINE",
"724 750 LINE",
"532 740 LINE",
"404 243 LINE",
"267 750 LINE",
"70 743 LINE",
"70 0 LINE"
);
}
);
width = 794;
}
);
leftKerningGroup = STRAIGHT;
rightKerningGroup = STRAIGHT;
unicode = 004D;
},
{
glyphname = Mturned;
layers = (
{
layerId = "849A9C4C-BF7C-40C5-8614-1FD725A2A379";
paths = (
{
closed = 1;
nodes = (
"249 -6 OFFCURVE",
"293 37 OFFCURVE",
"317 102 CURVE",
"328 44 OFFCURVE",
"365 -6 OFFCURVE",
"431 -6 CURVE SMOOTH",
"500 -6 OFFCURVE",
"558 47 OFFCURVE",
"578 127 CURVE",
"578 0 LINE",
"719 17 LINE",
"719 750 LINE",
"572 750 LINE",
"572 241 LINE SMOOTH",
"572 190 OFFCURVE",
"543 117 OFFCURVE",
"504 117 CURVE SMOOTH",
"473 117 OFFCURVE",
"460 146 OFFCURVE",
"460 198 CURVE SMOOTH",
"460 750 LINE",
"313 750 LINE",
"313 230 LINE SMOOTH",
"313 171 OFFCURVE",
"286 117 OFFCURVE",
"251 117 CURVE SMOOTH",
"214 117 OFFCURVE",
"201 150 OFFCURVE",
"201 197 CURVE SMOOTH",
"201 750 LINE",
"54 750 LINE",
"54 154 LINE SMOOTH",
"54 61 OFFCURVE",
"96 -6 OFFCURVE",
"185 -6 CURVE SMOOTH"
);
}
);
width = 779;
}
);
leftKerningGroup = STRAIGHT;
rightKerningGroup = STRAIGHT;
unicode = 019C;
},
{
glyphname = N;
layers = (
{
anchors = (
{
name = bottom;
position = "{303, 0}";
},
{
name = top;
position = "{303, 750}";
}
);
background = {
paths = (
{
closed = 1;
nodes = (
"541 750 LINE",
"417 738 LINE",
"417 304 LINE",
"223 750 LINE",
"70 744 LINE",
"70 0 LINE",
"201 6 LINE",
"201 463 LINE",
"420 -6 LINE",
"541 6 LINE"
);
}
);
};
layerId = "849A9C4C-BF7C-40C5-8614-1FD725A2A379";
paths = (
{
closed = 1;
nodes = (
"200 6 LINE",
"200 533 LINE",
"174 527 LINE",
"420 -9 LINE",
"543 7 LINE",
"543 750 LINE",
"413 738 LINE",
"413 240 LINE",
"439 246 LINE",
"208 750 LINE",
"70 744 LINE",
"70 0 LINE"
);
}
);
width = 613;
}
);
leftKerningGroup = STRAIGHT;
leftMetricsKey = H;
rightKerningGroup = STRAIGHT;
rightMetricsKey = H;
unicode = 004E;
},
{
glyphname = Eng;
layers = (
{
layerId = "849A9C4C-BF7C-40C5-8614-1FD725A2A379";
paths = (
{
closed = 1;
nodes = (
"200 0 LINE",
"200 533 LINE",
"173 527 LINE",
"413 20 LINE",
"413 -28 OFFCURVE",
"396 -52 OFFCURVE",
"361 -52 CURVE SMOOTH",
"347 -52 OFFCURVE",
"337 -50 OFFCURVE",
"326 -46 CURVE",
"313 -151 LINE",
"341 -161 OFFCURVE",
"369 -166 OFFCURVE",
"407 -166 CURVE SMOOTH",
"503 -166 OFFCURVE",
"543 -90 OFFCURVE",
"543 23 CURVE SMOOTH",
"543 750 LINE",
"413 750 LINE",
"413 239 LINE",
"439 245 LINE",
"203 760 LINE",
"70 744 LINE",
"70 0 LINE"
);
}
);
width = 613;
}
);
leftKerningGroup = STRAIGHT;
rightKerningGroup = STRAIGHT;
unicode = 014A;
},
{
glyphname = Nhookleft;
layers = (
{
background = {
paths = (
{
closed = 1;
nodes = (
"154 -166 OFFCURVE",
"200 -87 OFFCURVE",
"200 13 CURVE SMOOTH",
"200 540 LINE",
"174 534 LINE",
"424 -9 LINE",
"546 7 LINE",
"546 750 LINE",
"416 750 LINE",
"416 233 LINE",
"442 239 LINE",
"207 758 LINE",
"70 741 LINE",
"70 33 LINE SMOOTH",
"70 -25 OFFCURVE",
"59 -52 OFFCURVE",
"18 -52 CURVE SMOOTH",
"4 -52 OFFCURVE",
"-6 -50 OFFCURVE",
"-17 -46 CURVE",
"-30 -151 LINE",
"-2 -161 OFFCURVE",
"26 -166 OFFCURVE",
"59 -166 CURVE SMOOTH"
);
}
);
};
layerId = "849A9C4C-BF7C-40C5-8614-1FD725A2A379";
paths = (
{
closed = 1;
nodes = (
"154 -166 OFFCURVE",
"200 -87 OFFCURVE",
"200 13 CURVE SMOOTH",
"200 540 LINE",
"174 534 LINE",
"424 -9 LINE",
"546 7 LINE",
"546 750 LINE",
"416 750 LINE",
"416 233 LINE",
"442 239 LINE",
"207 758 LINE",
"70 741 LINE",
"70 33 LINE SMOOTH",
"70 -25 OFFCURVE",
"59 -52 OFFCURVE",
"18 -52 CURVE SMOOTH",
"4 -52 OFFCURVE",
"-6 -50 OFFCURVE",
"-17 -46 CURVE",
"-30 -151 LINE",
"-2 -161 OFFCURVE",
"26 -166 OFFCURVE",
"59 -166 CURVE SMOOTH"
);
}
);
width = 613;
}
);
leftKerningGroup = STRAIGHT;
rightKerningGroup = STRAIGHT;
unicode = 019D;
},
{
glyphname = Nlongrightleg;
layers = (
{
background = {
components = (
{
name = N;
transform = "{1, 0, 0, 1, -2, 0}";
}
);
};
layerId = "849A9C4C-BF7C-40C5-8614-1FD725A2A379";
paths = (
{
closed = 1;
nodes = (
"518 -158 LINE",
"518 561 LINE SMOOTH",
"518 704 OFFCURVE",
"472 762 OFFCURVE",
"382 762 CURVE SMOOTH",
"295 762 OFFCURVE",
"224 716 OFFCURVE",
"187 545 CURVE",
"217 404 LINE",
"217 528 OFFCURVE",
"254 632 OFFCURVE",
"308 632 CURVE SMOOTH",
"364 632 OFFCURVE",
"371 572 OFFCURVE",
"371 493 CURVE SMOOTH",
"371 -158 LINE"
);
},
{
closed = 1;
nodes = (
"217 0 LINE",
"217 538 LINE",
"201 538 LINE",
"201 762 LINE",
"70 744 LINE",
"70 0 LINE"
);
}
);
width = 584;
}
);
leftKerningGroup = STRAIGHT;
rightKerningGroup = STRAIGHT;
unicode = 0220;
},
{
glyphname = O;
layers = (
{
anchors = (
{
name = bottom;
position = "{282, 0}";
},
{
name = center;
position = "{283, 375}";
},
{
name = ogonek;
position = "{449, 5}";
},
{
name = top;
position = "{282, 752}";
},
{
name = topleft;
position = "{18, 750}";
},
{
name = topright;
position = "{454, 515}";
}
);
background = {
components = (
{
name = O.ori;
transform = "{1, 0, 0, 1, 8, 0}";
}
);
paths = (
{
closed = 1;
nodes = (
"114 764 OFFCURVE",
"40 612 OFFCURVE",
"40 375 CURVE SMOOTH",
"40 138 OFFCURVE",
"114 -14 OFFCURVE",
"282 -14 CURVE SMOOTH",
"449 -14 OFFCURVE",
"524 138 OFFCURVE",
"524 375 CURVE SMOOTH",
"524 612 OFFCURVE",
"449 764 OFFCURVE",
"282 764 CURVE SMOOTH"
);
},
{
closed = 1;
nodes = (
"360 641 OFFCURVE",
"371 520 OFFCURVE",
"371 375 CURVE SMOOTH",
"371 230 OFFCURVE",
"360 108 OFFCURVE",
"282 108 CURVE SMOOTH",
"203 108 OFFCURVE",
"193 230 OFFCURVE",
"193 375 CURVE SMOOTH",
"193 520 OFFCURVE",
"203 641 OFFCURVE",
"282 641 CURVE SMOOTH"
);
}
);
};
layerId = "849A9C4C-BF7C-40C5-8614-1FD725A2A379";
paths = (
{
closed = 1;
nodes = (
"451 -14 OFFCURVE",
"522 138 OFFCURVE",
"522 375 CURVE SMOOTH",
"522 612 OFFCURVE",
"451 764 OFFCURVE",
"282 764 CURVE SMOOTH",
"114 764 OFFCURVE",
"42 612 OFFCURVE",
"42 375 CURVE SMOOTH",
"42 138 OFFCURVE",
"114 -14 OFFCURVE",
"282 -14 CURVE SMOOTH"
);
},
{
closed = 1;
nodes = (
"205 115 OFFCURVE",
"197 238 OFFCURVE",
"197 375 CURVE SMOOTH",
"197 512 OFFCURVE",
"205 635 OFFCURVE",
"282 635 CURVE SMOOTH",
"360 635 OFFCURVE",
"367 512 OFFCURVE",
"367 375 CURVE SMOOTH",
"367 238 OFFCURVE",
"360 115 OFFCURVE",
"282 115 CURVE SMOOTH"
);
}
);
width = 564;
}
);
leftKerningGroup = ROUND;
rightKerningGroup = ROUND;
unicode = 004F;
},
{
glyphname = OU;
layers = (
{
layerId = "849A9C4C-BF7C-40C5-8614-1FD725A2A379";
paths = (
{
closed = 1;
nodes = (
"464 -14 OFFCURVE",
"535 138 OFFCURVE",
"535 245 CURVE SMOOTH",
"535 352 OFFCURVE",
"464 489 OFFCURVE",
"290 489 CURVE SMOOTH",
"117 489 OFFCURVE",
"45 352 OFFCURVE",
"45 245 CURVE SMOOTH",
"45 138 OFFCURVE",
"117 -14 OFFCURVE",
"290 -14 CURVE SMOOTH"
);
},
{
closed = 1;
nodes = (
"208 115 OFFCURVE",
"200 208 OFFCURVE",
"200 245 CURVE SMOOTH",
"200 282 OFFCURVE",
"208 375 OFFCURVE",
"290 375 CURVE SMOOTH",
"373 375 OFFCURVE",
"380 282 OFFCURVE",
"380 245 CURVE SMOOTH",
"380 208 OFFCURVE",
"373 115 OFFCURVE",
"290 115 CURVE SMOOTH"
);
},
{
closed = 1;
nodes = (
"443 375 OFFCURVE",
"513 477 OFFCURVE",
"513 623 CURVE SMOOTH",
"513 750 LINE",
"376 750 LINE",
"376 610 LINE SMOOTH",
"376 537 OFFCURVE",
"348 489 OFFCURVE",
"292 489 CURVE SMOOTH",
"236 489 OFFCURVE",
"208 537 OFFCURVE",
"208 610 CURVE SMOOTH",
"208 750 LINE",
"61 750 LINE",
"61 623 LINE SMOOTH",
"61 456 OFFCURVE",
"131 375 OFFCURVE",
"290 375 CURVE SMOOTH"
);
}
);
width = 580;
}
);
unicode = 0222;
},
{
glyphname = Ohorn;
layers = (
{
anchors = (
{
name = bottom;
position = "{288, 0}";
},
{
name = top;
position = "{288, 750}";
}
);
background = {
components = (
{
alignment = -1;
name = O;
transform = "{1, 0, 0, 1, 7, 0}";
},
{
alignment = -1;
name = horncomb.case;
transform = "{1, 0, 0, 1, 459, 10}";
}
);
};
layerId = "849A9C4C-BF7C-40C5-8614-1FD725A2A379";
paths = (
{
closed = 1;
nodes = (
"461 -14 OFFCURVE",
"532 138 OFFCURVE",
"532 375 CURVE SMOOTH",
"532 439 OFFCURVE",
"527 497 OFFCURVE",
"516 547 CURVE",
"580 560 OFFCURVE",
"636 616 OFFCURVE",
"636 691 CURVE SMOOTH",
"636 744 OFFCURVE",
"618 780 OFFCURVE",
"608 793 CURVE",
"501 753 LINE",
"514 731 OFFCURVE",
"528 699 OFFCURVE",
"528 673 CURVE SMOOTH",
"528 650 OFFCURVE",
"514 633 OFFCURVE",
"489 630 CURVE",
"451 715 OFFCURVE",
"386 764 OFFCURVE",
"287 764 CURVE SMOOTH",
"114 764 OFFCURVE",
"42 612 OFFCURVE",
"42 375 CURVE SMOOTH",
"42 138 OFFCURVE",
"114 -14 OFFCURVE",
"287 -14 CURVE SMOOTH"
);
},
{
closed = 1;
nodes = (
"205 115 OFFCURVE",
"197 238 OFFCURVE",
"197 375 CURVE SMOOTH",
"197 512 OFFCURVE",
"205 635 OFFCURVE",
"287 635 CURVE SMOOTH",
"370 635 OFFCURVE",
"377 512 OFFCURVE",
"377 375 CURVE SMOOTH",
"377 238 OFFCURVE",
"370 115 OFFCURVE",
"287 115 CURVE SMOOTH"
);
}
);
width = 606;
}
);
leftKerningGroup = ROUND;
rightKerningGroup = ROUND;
unicode = 01A0;
},
{
glyphname = "Omega-latin";
layers = (
{
background = {
components = (
{
name = M;
transform = "{1, 0, 0, 1, -6, 0}";
}
);
};
layerId = "849A9C4C-BF7C-40C5-8614-1FD725A2A379";
paths = (
{
closed = 1;
nodes = (
"307 -14 OFFCURVE",
"365 40 OFFCURVE",
"393 143 CURVE",
"357 143 LINE",
"385 40 OFFCURVE",
"443 -14 OFFCURVE",
"528 -14 CURVE SMOOTH",
"652 -14 OFFCURVE",
"715 104 OFFCURVE",
"715 337 CURVE SMOOTH",
"715 494 OFFCURVE",
"686 625 OFFCURVE",
"625 750 CURVE",
"478 750 LINE",
"542 617 OFFCURVE",
"568 492 OFFCURVE",
"568 312 CURVE SMOOTH",
"568 163 OFFCURVE",
"550 109 OFFCURVE",
"500 109 CURVE SMOOTH",
"464 109 OFFCURVE",
"445 138 OFFCURVE",
"445 195 CURVE SMOOTH",
"445 429 LINE",
"305 429 LINE",
"305 195 LINE SMOOTH",
"305 138 OFFCURVE",
"286 109 OFFCURVE",
"250 109 CURVE SMOOTH",
"200 109 OFFCURVE",
"182 163 OFFCURVE",
"182 312 CURVE SMOOTH",
"182 492 OFFCURVE",
"208 617 OFFCURVE",
"272 750 CURVE",
"125 750 LINE",
"64 625 OFFCURVE",
"35 494 OFFCURVE",
"35 337 CURVE SMOOTH",
"35 104 OFFCURVE",
"98 -14 OFFCURVE",
"222 -14 CURVE SMOOTH"
);
}
);
width = 750;
}
);
leftKerningGroup = ROUND;
rightKerningGroup = ROUND;
unicode = A7B6;
},
{
glyphname = Oopen;
layers = (
{
layerId = "849A9C4C-BF7C-40C5-8614-1FD725A2A379";
paths = (
{
closed = 1;
nodes = (
"428 -15 OFFCURVE",
"508 122 OFFCURVE",
"508 375 CURVE SMOOTH",
"508 606 OFFCURVE",
"430 765 OFFCURVE",
"257 765 CURVE SMOOTH",
"109 765 OFFCURVE",
"44 641 OFFCURVE",
"35 510 CURVE",
"172 495 LINE",
"177 563 OFFCURVE",
"195 642 OFFCURVE",
"257 642 CURVE SMOOTH",
"329 642 OFFCURVE",
"353 547 OFFCURVE",
"353 375 CURVE SMOOTH",
"353 207 OFFCURVE",
"327 108 OFFCURVE",
"256 108 CURVE SMOOTH",
"196 108 OFFCURVE",
"178 201 OFFCURVE",
"174 269 CURVE",
"35 240 LINE",
"42 104 OFFCURVE",
"114 -15 OFFCURVE",
"255 -15 CURVE SMOOTH"
);
}
);
width = 548;
}
);
rightKerningGroup = ROUND;
unicode = 0186;
},
{
glyphname = Oslash;
layers = (
{
anchors = (
{
name = bottom;
position = "{304, 0}";
},
{
name = top;
position = "{304, 750}";
}
);
background = {
paths = (
{
closed = 1;
nodes = (
"491 -16 OFFCURVE",
"532 190 OFFCURVE",
"532 400 CURVE SMOOTH",
"532 464 OFFCURVE",
"525 521 OFFCURVE",
"513 572 CURVE",
"576 648 LINE",
"529 693 LINE",
"488 643 LINE",
"451 721 OFFCURVE",
"389 766 OFFCURVE",
"298 766 CURVE SMOOTH",
"136 766 OFFCURVE",
"66 621 OFFCURVE",
"66 400 CURVE SMOOTH",
"66 315 OFFCURVE",
"73 233 OFFCURVE",
"93 163 CURVE",
"38 97 LINE",
"85 52 LINE",
"120 94 LINE",
"155 27 OFFCURVE",
"210 -16 OFFCURVE",
"298 -16 CURVE SMOOTH"
);
},
{
closed = 1;
nodes = (
"252 109 OFFCURVE",
"231 148 OFFCURVE",
"221 217 CURVE",
"385 417 LINE",
"385 400 LINE SMOOTH",
"385 221 OFFCURVE",
"377 109 OFFCURVE",
"298 109 CURVE SMOOTH"
);
},
{
closed = 1;
nodes = (
"212 337 OFFCURVE",
"212 367 OFFCURVE",
"212 400 CURVE SMOOTH",
"212 494 OFFCURVE",
"218 649 OFFCURVE",
"298 649 CURVE SMOOTH",
"351 649 OFFCURVE",
"372 583 OFFCURVE",
"380 512 CURVE",
"213 310 LINE"
);
}
);
};
layerId = "849A9C4C-BF7C-40C5-8614-1FD725A2A379";
paths = (
{
closed = 1;
nodes = (
"472 -14 OFFCURVE",
"548 138 OFFCURVE",
"548 375 CURVE SMOOTH",
"548 607 OFFCURVE",
"467 764 OFFCURVE",
"304 764 CURVE SMOOTH",
"137 764 OFFCURVE",
"60 612 OFFCURVE",
"60 375 CURVE SMOOTH",
"60 143 OFFCURVE",
"142 -14 OFFCURVE",
"304 -14 CURVE SMOOTH"
);
},
{
closed = 1;
nodes = (
"221 108 OFFCURVE",
"215 238 OFFCURVE",
"215 375 CURVE SMOOTH",
"215 512 OFFCURVE",
"226 642 OFFCURVE",
"304 642 CURVE SMOOTH",
"388 642 OFFCURVE",
"393 512 OFFCURVE",
"393 375 CURVE SMOOTH",
"393 238 OFFCURVE",
"383 108 OFFCURVE",
"304 108 CURVE SMOOTH"
);
},
{
closed = 1;
nodes = (
"173 139 LINE",
"167 144 LINE",
"503 570 LINE",
"506 568 LINE",
"594 678 LINE",
"532 730 LINE",
"444 621 LINE",
"449 617 LINE",
"113 189 LINE",
"111 191 LINE",
"14 69 LINE",
"77 17 LINE"
);
}
);
width = 593;
}
);
leftKerningGroup = ROUND;
rightKerningGroup = ROUND;
unicode = 00D8;
},
{
color = 1;
glyphname = Otildeacute;
layers = (
{
components = (
{
name = O;
},
{
alignment = -1;
name = tildecomb.case;
transform = "{1, 0, 0, 1, 452, -29}";
}
);
layerId = "849A9C4C-BF7C-40C5-8614-1FD725A2A379";
paths = (
{
closed = 1;
nodes = (
"409 1045 LINE",
"345 1169 LINE",
"155 1029 LINE",
"187 964 LINE"
);
}
);
width = 560;
}
);
leftKerningGroup = ROUND;
rightKerningGroup = ROUND;
unicode = 1E4C;
},
{
glyphname = OE;
layers = (
{
background = {
paths = (
{
closed = 1;
nodes = (
"751 0 LINE",
"765 122 LINE",
"522 122 LINE",
"522 315 LINE",
"690 315 LINE",
"690 433 LINE",
"522 433 LINE",
"522 628 LINE",
"743 628 LINE",
"759 750 LINE",
"333 750 LINE SMOOTH",
"150 750 OFFCURVE",
"42 620 OFFCURVE",
"42 375 CURVE SMOOTH",
"42 146 OFFCURVE",
"154 0 OFFCURVE",
"337 0 CURVE SMOOTH"
);
},
{
closed = 1;
nodes = (
"238 120 OFFCURVE",
"196 220 OFFCURVE",
"196 375 CURVE SMOOTH",
"196 536 OFFCURVE",
"238 633 OFFCURVE",
"345 633 CURVE SMOOTH",
"375 633 LINE",
"375 120 LINE",
"345 120 LINE SMOOTH"
);
}
);
};
layerId = "849A9C4C-BF7C-40C5-8614-1FD725A2A379";
paths = (
{
closed = 1;
nodes = (
"326 -14 OFFCURVE",
"365 7 OFFCURVE",
"397 46 CURVE",
"397 0 LINE",
"763 0 LINE",
"763 122 LINE",
"511 122 LINE",
"511 326 LINE",
"684 326 LINE",
"684 446 LINE",
"511 446 LINE",
"511 628 LINE",
"758 628 LINE",
"758 750 LINE",
"397 750 LINE",
"397 704 LINE",
"365 743 OFFCURVE",
"326 764 OFFCURVE",
"282 764 CURVE SMOOTH",
"114 764 OFFCURVE",
"42 612 OFFCURVE",
"42 375 CURVE SMOOTH",
"42 138 OFFCURVE",
"114 -14 OFFCURVE",
"282 -14 CURVE SMOOTH"
);
},
{
closed = 1;
nodes = (
"205 115 OFFCURVE",
"197 238 OFFCURVE",
"197 375 CURVE SMOOTH",
"197 512 OFFCURVE",
"205 635 OFFCURVE",
"282 635 CURVE SMOOTH",
"354 635 OFFCURVE",
"367 529 OFFCURVE",
"367 405 CURVE SMOOTH",
"367 338 LINE SMOOTH",
"367 217 OFFCURVE",
"353 115 OFFCURVE",
"282 115 CURVE SMOOTH"
);
}
);
width = 787;
}
);
leftKerningGroup = ROUND;
rightKerningGroup = KINDAOPEN;
unicode = 0152;
},
{
glyphname = P;
layers = (
{
anchors = (
{
name = bottom;
position = "{267, 0}";
},
{
name = top;
position = "{267, 750}";
}
);
background = {
components = (
{
name = R;
transform = "{1, 0, 0, 1, 4, 0}";
}
);
};
layerId = "849A9C4C-BF7C-40C5-8614-1FD725A2A379";
paths = (
{
closed = 1;
nodes = (
"214 0 LINE",
"214 631 LINE",
"249 631 LINE SMOOTH",
"322 631 OFFCURVE",
"362 599 OFFCURVE",
"362 512 CURVE SMOOTH",
"362 428 OFFCURVE",
"322 391 OFFCURVE",
"249 391 CURVE SMOOTH",
"178 391 LINE",
"178 273 LINE",
"238 273 LINE SMOOTH",
"404 273 OFFCURVE",
"508 347 OFFCURVE",
"508 512 CURVE SMOOTH",
"508 684 OFFCURVE",
"404 750 OFFCURVE",
"238 750 CURVE SMOOTH",
"70 750 LINE",
"70 0 LINE"
);
}
);
width = 527;
}
);
leftKerningGroup = STRAIGHT;
leftMetricsKey = H;
rightKerningGroup = P;
unicode = 0050;
},
{
glyphname = Phook;
layers = (
{
layerId = "849A9C4C-BF7C-40C5-8614-1FD725A2A379";
paths = (
{
closed = 1;
nodes = (
"340 0 LINE",
"340 631 LINE",
"375 631 LINE SMOOTH",
"448 631 OFFCURVE",
"488 599 OFFCURVE",
"488 512 CURVE SMOOTH",
"488 428 OFFCURVE",
"448 391 OFFCURVE",
"375 391 CURVE SMOOTH",
"324 391 LINE",
"324 273 LINE",
"364 273 LINE SMOOTH",
"530 273 OFFCURVE",
"634 347 OFFCURVE",
"634 512 CURVE SMOOTH",
"634 684 OFFCURVE",
"530 750 OFFCURVE",
"364 750 CURVE SMOOTH",
"185 750 LINE SMOOTH",
"80 750 OFFCURVE",
"15 690 OFFCURVE",
"15 596 CURVE SMOOTH",
"15 550 OFFCURVE",
"31 504 OFFCURVE",
"51 478 CURVE",
"150 515 LINE",
"133 537 OFFCURVE",
"123 558 OFFCURVE",
"123 581 CURVE SMOOTH",
"123 611 OFFCURVE",
"140 631 OFFCURVE",
"169 631 CURVE SMOOTH",
"196 631 LINE",
"196 0 LINE"
);
}
);
width = 649;
}
);
rightKerningGroup = P;
unicode = 01A4;
},
{
glyphname = Thorn;
layers = (
{
layerId = "849A9C4C-BF7C-40C5-8614-1FD725A2A379";
paths = (
{
closed = 1;
nodes = (
"247 151 LINE SMOOTH",
"413 151 OFFCURVE",
"517 225 OFFCURVE",
"517 390 CURVE SMOOTH",
"517 562 OFFCURVE",
"413 628 OFFCURVE",
"247 628 CURVE SMOOTH",
"195 628 LINE",
"195 509 LINE",
"258 509 LINE SMOOTH",
"331 509 OFFCURVE",
"371 477 OFFCURVE",
"371 390 CURVE SMOOTH",
"371 306 OFFCURVE",
"331 269 OFFCURVE",
"258 269 CURVE SMOOTH",
"195 269 LINE",
"195 151 LINE"
);
},
{
closed = 1;
nodes = (
"215 -2 LINE",
"215 752 LINE",
"68 752 LINE",
"68 -2 LINE"
);
}
);
width = 533;
}
);
leftKerningGroup = STRAIGHT;
rightKerningGroup = P;
unicode = 00DE;
},
{
glyphname = Pstroke;
layers = (
{
components = (
{
name = P;
}
);
layerId = "849A9C4C-BF7C-40C5-8614-1FD725A2A379";
paths = (
{
closed = 1;
nodes = (
"285 469 LINE",
"285 559 LINE",
"7 559 LINE",
"7 469 LINE"
);
}
);
width = 513;
}
);
leftKerningGroup = STRAIGHT;
rightKerningGroup = P;
unicode = 2C63;
},
{
glyphname = Q;
layers = (
{
background = {
paths = (
{
closed = 1;
nodes = (
"444 -10 OFFCURVE",
"530 142 OFFCURVE",
"530 375 CURVE SMOOTH",
"530 612 OFFCURVE",
"454 764 OFFCURVE",
"286 764 CURVE SMOOTH",
"119 764 OFFCURVE",
"42 612 OFFCURVE",
"42 375 CURVE SMOOTH",
"42 138 OFFCURVE",
"119 -18 OFFCURVE",
"281 -14 CURVE SMOOTH"
);
},
{
closed = 1;
nodes = (
"208 109 OFFCURVE",
"195 224 OFFCURVE",
"195 375 CURVE SMOOTH",
"195 525 OFFCURVE",
"208 642 OFFCURVE",
"286 642 CURVE SMOOTH",
"365 642 OFFCURVE",
"377 525 OFFCURVE",
"377 375 CURVE SMOOTH",
"377 224 OFFCURVE",
"371 109 OFFCURVE",
"286 109 CURVE SMOOTH"
);
},
{
closed = 1;
nodes = (
"526 -68 LINE",
"453 -22 OFFCURVE",
"403 16 OFFCURVE",
"349 71 CURVE",
"295 44 LINE",
"313 -51 OFFCURVE",
"380 -118 OFFCURVE",
"455 -153 CURVE"
);
}
);
};
layerId = "849A9C4C-BF7C-40C5-8614-1FD725A2A379";
paths = (
{
closed = 1;
nodes = (
"442 -14 OFFCURVE",
"530 142 OFFCURVE",
"530 375 CURVE SMOOTH",
"530 612 OFFCURVE",
"454 764 OFFCURVE",
"286 764 CURVE SMOOTH",
"119 764 OFFCURVE",
"42 612 OFFCURVE",
"42 375 CURVE SMOOTH",
"42 138 OFFCURVE",
"116 -14 OFFCURVE",
"277 -14 CURVE SMOOTH"
);
},
{
closed = 1;
nodes = (
"208 109 OFFCURVE",
"195 224 OFFCURVE",
"195 375 CURVE SMOOTH",
"195 525 OFFCURVE",
"208 642 OFFCURVE",
"286 642 CURVE SMOOTH",
"365 642 OFFCURVE",
"377 525 OFFCURVE",
"377 375 CURVE SMOOTH",
"377 224 OFFCURVE",
"371 109 OFFCURVE",
"286 109 CURVE SMOOTH"
);
},
{
closed = 1;
nodes = (
"313 -51 OFFCURVE",
"380 -118 OFFCURVE",
"455 -153 CURVE",
"526 -68 LINE",
"453 -22 OFFCURVE",
"403 16 OFFCURVE",
"349 71 CURVE",
"295 44 LINE"
);
}
);
width = 572;
}
);
leftKerningGroup = ROUND;
leftMetricsKey = O;
rightKerningGroup = ROUND;
rightMetricsKey = O;
unicode = 0051;
},
{
glyphname = Qhooktail;
layers = (
{
background = {
paths = (
{
closed = 1;
nodes = (
"339 645 OFFCURVE",
"358 563 OFFCURVE",
"358 431 CURVE",
"386 548 LINE",
"386 654 OFFCURVE",
"346 764 OFFCURVE",
"240 764 CURVE SMOOTH",
"101 764 OFFCURVE",
"39 593 OFFCURVE",
"39 375 CURVE SMOOTH",
"39 135 OFFCURVE",
"101 -13 OFFCURVE",
"231 -13 CURVE SMOOTH",
"331 -13 OFFCURVE",
"386 76 OFFCURVE",
"386 197 CURVE",
"358 318 LINE",
"358 183 OFFCURVE",
"340 106 OFFCURVE",
"277 106 CURVE SMOOTH",
"217 106 OFFCURVE",
"191 207 OFFCURVE",
"191 376 CURVE SMOOTH",
"191 544 OFFCURVE",
"217 645 OFFCURVE",
"280 645 CURVE SMOOTH"
);
},
{
closed = 1;
nodes = (
"505 760 LINE",
"358 743 LINE",
"358 -2 LINE SMOOTH",
"358 -100 OFFCURVE",
"401 -185 OFFCURVE",
"506 -185 CURVE SMOOTH",
"534 -185 OFFCURVE",
"555 -179 OFFCURVE",
"578 -171 CURVE",
"566 -50 LINE",
"558 -53 OFFCURVE",
"551 -54 OFFCURVE",
"542 -54 CURVE SMOOTH",
"516 -54 OFFCURVE",
"505 -37 OFFCURVE",
"505 1 CURVE SMOOTH"
);
}
);
};
layerId = "849A9C4C-BF7C-40C5-8614-1FD725A2A379";
paths = (
{
closed = 1;
nodes = (
"324 -13 OFFCURVE",
"379 76 OFFCURVE",
"379 197 CURVE",
"351 318 LINE",
"351 183 OFFCURVE",
"333 106 OFFCURVE",
"274 106 CURVE SMOOTH",
"218 106 OFFCURVE",
"192 207 OFFCURVE",
"192 376 CURVE SMOOTH",
"192 544 OFFCURVE",
"218 645 OFFCURVE",
"277 645 CURVE SMOOTH",
"332 645 OFFCURVE",
"351 563 OFFCURVE",
"351 431 CURVE",
"379 548 LINE",
"379 654 OFFCURVE",
"339 764 OFFCURVE",
"238 764 CURVE SMOOTH",
"104 764 OFFCURVE",
"42 593 OFFCURVE",
"42 375 CURVE SMOOTH",
"42 135 OFFCURVE",
"104 -13 OFFCURVE",
"229 -13 CURVE SMOOTH"
);
},
{
closed = 1;
nodes = (
"527 -185 OFFCURVE",
"548 -179 OFFCURVE",
"571 -171 CURVE",
"559 -50 LINE",
"551 -53 OFFCURVE",
"544 -54 OFFCURVE",
"535 -54 CURVE SMOOTH",
"509 -54 OFFCURVE",
"498 -37 OFFCURVE",
"498 1 CURVE SMOOTH",
"498 760 LINE",
"351 743 LINE",
"351 -2 LINE SMOOTH",
"351 -100 OFFCURVE",
"394 -185 OFFCURVE",
"499 -185 CURVE SMOOTH"
);
}
);
width = 561;
}
);
leftKerningGroup = ROUND;
rightKerningGroup = STRAIGHT;
unicode = 024A;
},
{
glyphname = R;
layers = (
{
anchors = (
{
name = bottom;
position = "{297, 0}";
},
{
name = top;
position = "{283, 750}";
}
);
background = {
paths = (
{
closed = 1;
nodes = (
"242 286 OFFCURVE",
"262 286 OFFCURVE",
"290 288 CURVE",
"305 289 LINE",
"437 310 OFFCURVE",
"516 394 OFFCURVE",
"516 519 CURVE SMOOTH",
"516 679 OFFCURVE",
"421 750 OFFCURVE",
"258 750 CURVE SMOOTH",
"199 750 OFFCURVE",
"129 750 OFFCURVE",
"70 750 CURVE",
"70 0 LINE",
"214 0 LINE",
"214 286 LINE"
);
},
{
closed = 1;
nodes = (
"214 633 LINE",
"255 633 LINE SMOOTH",
"324 633 OFFCURVE",
"371 605 OFFCURVE",
"371 518 CURVE SMOOTH",
"371 439 OFFCURVE",
"318 397 OFFCURVE",
"255 397 CURVE SMOOTH",
"214 397 LINE"
);
},
{
closed = 1;
nodes = (
"411 -16 LINE",
"546 33 LINE",
"392 352 LINE",
"276 301 LINE"
);
}
);
};
guideLines = (
{
angle = 20;
position = "{411, -19}";
},
{
angle = 3;
position = "{217, 0}";
}
);
layerId = "849A9C4C-BF7C-40C5-8614-1FD725A2A379";
paths = (
{
closed = 1;
nodes = (
"214 6 LINE",
"214 306 LINE",
"290 308 LINE",
"421 317 OFFCURVE",
"516 410 OFFCURVE",
"516 529 CURVE SMOOTH",
"516 679 OFFCURVE",
"421 750 OFFCURVE",
"258 750 CURVE SMOOTH",
"70 750 LINE",
"70 -6 LINE"
);
},
{
closed = 1;
nodes = (
"214 633 LINE",
"255 633 LINE SMOOTH",
"324 633 OFFCURVE",
"371 605 OFFCURVE",
"371 528 CURVE SMOOTH",
"371 459 OFFCURVE",
"318 417 OFFCURVE",
"255 417 CURVE SMOOTH",
"214 417 LINE"
);
},
{
closed = 1;
nodes = (
"546 33 LINE",
"392 372 LINE",
"276 321 LINE",
"411 -16 LINE"
);
}
);
width = 560;
}
);
leftKerningGroup = STRAIGHT;
rightKerningGroup = VOID;
unicode = 0052;
},
{
glyphname = Rstroke;
layers = (
{
components = (
{
name = R;
transform = "{1, 0, 0, 1, 10, 0}";
}
);
layerId = "849A9C4C-BF7C-40C5-8614-1FD725A2A379";
paths = (
{
closed = 1;
nodes = (
"295 312 LINE",
"295 414 LINE",
"0 414 LINE",
"0 312 LINE"
);
}
);
width = 561;
}
);
leftKerningGroup = STRAIGHT;
rightKerningGroup = VOID;
unicode = 024C;
},
{
glyphname = Rtail;
layers = (
{
layerId = "849A9C4C-BF7C-40C5-8614-1FD725A2A379";
paths = (
{
closed = 1;
nodes = (
"236 -173 OFFCURVE",
"257 -167 OFFCURVE",
"280 -159 CURVE",
"268 -43 LINE",
"260 -46 OFFCURVE",
"253 -47 OFFCURVE",
"244 -47 CURVE SMOOTH",
"218 -47 OFFCURVE",
"204 -30 OFFCURVE",
"204 13 CURVE SMOOTH",
"204 286 LINE",
"280 288 LINE",
"411 297 OFFCURVE",
"506 390 OFFCURVE",
"506 519 CURVE SMOOTH",
"506 679 OFFCURVE",
"411 750 OFFCURVE",
"248 750 CURVE SMOOTH",
"60 750 LINE",
"60 10 LINE SMOOTH",
"60 -88 OFFCURVE",
"103 -173 OFFCURVE",
"205 -173 CURVE SMOOTH"
);
},
{
closed = 1;
nodes = (
"204 633 LINE",
"245 633 LINE SMOOTH",
"314 633 OFFCURVE",
"361 605 OFFCURVE",
"361 518 CURVE SMOOTH",
"361 439 OFFCURVE",
"308 397 OFFCURVE",
"245 397 CURVE SMOOTH",
"204 397 LINE"
);
},
{
closed = 1;
nodes = (
"536 33 LINE",
"382 352 LINE",
"266 301 LINE",
"401 -16 LINE"
);
}
);
width = 551;
}
);
leftKerningGroup = STRAIGHT;
rightKerningGroup = VOID;
unicode = 2C64;
},
{
glyphname = S;
layers = (
{
anchors = (
{
name = bottom;
position = "{260, -10}";
},
{
name = top;
position = "{262, 752}";
}
);
background = {
paths = (
{
closed = 1;
nodes = (
"383 -16 OFFCURVE",
"477 69 OFFCURVE",
"477 203 CURVE SMOOTH",
"477 295 OFFCURVE",
"429 360 OFFCURVE",
"345 410 CURVE SMOOTH",
"255 464 LINE SMOOTH",
"210 491 OFFCURVE",
"177 516 OFFCURVE",
"177 568 CURVE SMOOTH",
"177 613 OFFCURVE",
"209 646 OFFCURVE",
"251 646 CURVE SMOOTH",
"312 646 OFFCURVE",
"342 601 OFFCURVE",
"342 520 CURVE",
"470 548 LINE",
"465 699 OFFCURVE",
"384 764 OFFCURVE",
"251 764 CURVE SMOOTH",
"123 764 OFFCURVE",
"35 673 OFFCURVE",
"35 554 CURVE SMOOTH",
"35 456 OFFCURVE",
"82 391 OFFCURVE",
"160 345 CURVE SMOOTH",
"251 292 LINE SMOOTH",
"295 266 OFFCURVE",
"332 242 OFFCURVE",
"332 187 CURVE SMOOTH",
"332 136 OFFCURVE",
"302 102 OFFCURVE",
"251 102 CURVE SMOOTH",
"184 102 OFFCURVE",
"153 153 OFFCURVE",
"153 226 CURVE",
"24 212 LINE",
"24 55 OFFCURVE",
"119 -16 OFFCURVE",
"250 -16 CURVE SMOOTH"
);
}
);
};
layerId = "849A9C4C-BF7C-40C5-8614-1FD725A2A379";
paths = (
{
closed = 1;
nodes = (
"404 -16 OFFCURVE",
"498 69 OFFCURVE",
"498 203 CURVE SMOOTH",
"498 295 OFFCURVE",
"450 360 OFFCURVE",
"366 405 CURVE SMOOTH",
"261 462 LINE SMOOTH",
"208 491 OFFCURVE",
"176 516 OFFCURVE",
"176 568 CURVE SMOOTH",
"176 613 OFFCURVE",
"208 646 OFFCURVE",
"261 646 CURVE SMOOTH",
"333 646 OFFCURVE",
"363 601 OFFCURVE",
"363 520 CURVE",
"491 548 LINE",
"486 699 OFFCURVE",
"405 764 OFFCURVE",
"261 764 CURVE SMOOTH",
"122 764 OFFCURVE",
"34 673 OFFCURVE",
"34 554 CURVE SMOOTH",
"34 456 OFFCURVE",
"79 386 OFFCURVE",
"160 345 CURVE SMOOTH",
"272 288 LINE SMOOTH",
"316 266 OFFCURVE",
"353 242 OFFCURVE",
"353 187 CURVE SMOOTH",
"353 136 OFFCURVE",
"323 102 OFFCURVE",
"261 102 CURVE SMOOTH",
"183 102 OFFCURVE",
"152 153 OFFCURVE",
"152 226 CURVE",
"23 212 LINE",
"23 55 OFFCURVE",
"118 -16 OFFCURVE",
"260 -16 CURVE SMOOTH"
);
}
);
width = 524;
}
);
leftKerningGroup = SMALL;
rightKerningGroup = SMALL;
unicode = 0053;
},
{
glyphname = Sacutedotaccent;
layers = (
{
components = (
{
name = S;
},
{
name = dotaccentcomb.case;
transform = "{1, 0, 0, 1, 257, 177}";
}
);
layerId = "849A9C4C-BF7C-40C5-8614-1FD725A2A379";
paths = (
{
closed = 1;
nodes = (
"399 879 LINE",
"335 1003 LINE",
"145 863 LINE",
"177 798 LINE"
);
}
);
width = 513;
}
);
leftKerningGroup = SMALL;
rightKerningGroup = SMALL;
unicode = 1E64;
},
{
glyphname = Saltillo;
layers = (
{
layerId = "849A9C4C-BF7C-40C5-8614-1FD725A2A379";
paths = (
{
closed = 1;
nodes = (
"180 441 LINE",
"208 666 LINE",
"208 950 LINE",
"72 950 LINE",
"72 649 LINE",
"85 429 LINE"
);
}
);
width = 268;
}
);
unicode = A78B;
},
{
glyphname = Germandbls;
layers = (
{
background = {
paths = (
{
closed = 1;
nodes = (
"608 260 OFFCURVE",
"568 331 OFFCURVE",
"515 384 CURVE SMOOTH",
"472 427 LINE SMOOTH",
"440 459 OFFCURVE",
"422 475 OFFCURVE",
"422 523 CURVE SMOOTH",
"422 594 OFFCURVE",
"483 625 OFFCURVE",
"554 626 CURVE",
"568 737 LINE",
"503 755 OFFCURVE",
"392 768 OFFCURVE",
"307 768 CURVE SMOOTH",
"174 768 OFFCURVE",
"70 703 OFFCURVE",
"70 492 CURVE SMOOTH",
"70 0 LINE",
"215 0 LINE",
"215 497 LINE SMOOTH",
"215 600 OFFCURVE",
"246 651 OFFCURVE",
"324 651 CURVE SMOOTH",
"362 651 OFFCURVE",
"391 649 OFFCURVE",
"435 645 CURVE",
"434 653 LINE",
"339 646 OFFCURVE",
"287 576 OFFCURVE",
"287 492 CURVE SMOOTH",
"287 421 OFFCURVE",
"320 384 OFFCURVE",
"368 332 CURVE SMOOTH",
"415 281 LINE SMOOTH",
"445 248 OFFCURVE",
"475 209 OFFCURVE",
"475 164 CURVE SMOOTH",
"475 124 OFFCURVE",
"457 102 OFFCURVE",
"428 102 CURVE SMOOTH",
"395 102 OFFCURVE",
"368 140 OFFCURVE",
"364 212 CURVE",
"254 197 LINE",
"260 54 OFFCURVE",
"325 -14 OFFCURVE",
"431 -14 CURVE SMOOTH",
"531 -14 OFFCURVE",
"608 55 OFFCURVE",
"608 170 CURVE SMOOTH"
);
}
);
};
guideLines = (
{
angle = 7;
position = "{358, 213}";
},
{
angle = 97;
position = "{575, 642}";
}
);
layerId = "849A9C4C-BF7C-40C5-8614-1FD725A2A379";
paths = (
{
closed = 1;
nodes = (
"215 0 LINE",
"215 497 LINE SMOOTH",
"215 600 OFFCURVE",
"246 651 OFFCURVE",
"334 651 CURVE SMOOTH",
"382 651 OFFCURVE",
"411 649 OFFCURVE",
"455 645 CURVE",
"454 653 LINE",
"359 646 OFFCURVE",
"307 566 OFFCURVE",
"307 502 CURVE SMOOTH",
"307 421 OFFCURVE",
"340 384 OFFCURVE",
"388 332 CURVE SMOOTH",
"435 281 LINE SMOOTH",
"465 248 OFFCURVE",
"495 209 OFFCURVE",
"495 164 CURVE SMOOTH",
"495 124 OFFCURVE",
"477 102 OFFCURVE",
"448 102 CURVE SMOOTH",
"415 102 OFFCURVE",
"388 140 OFFCURVE",
"384 212 CURVE",
"274 197 LINE",
"280 54 OFFCURVE",
"345 -14 OFFCURVE",
"451 -14 CURVE SMOOTH",
"551 -14 OFFCURVE",
"628 55 OFFCURVE",
"628 170 CURVE SMOOTH",
"628 260 OFFCURVE",
"588 331 OFFCURVE",
"535 384 CURVE SMOOTH",
"492 427 LINE SMOOTH",
"455 464 OFFCURVE",
"442 482 OFFCURVE",
"442 525 CURVE SMOOTH",
"442 592 OFFCURVE",
"503 626 OFFCURVE",
"574 626 CURVE",
"588 737 LINE",
"523 755 OFFCURVE",
"412 768 OFFCURVE",
"317 768 CURVE SMOOTH",
"174 768 OFFCURVE",
"70 703 OFFCURVE",
"70 492 CURVE SMOOTH",
"70 0 LINE"
);
}
);
width = 654;
}
);
leftKerningGroup = STRAIGHT;
rightKerningGroup = SMALL;
unicode = 1E9E;
},
{
glyphname = Sobliquestroke;
layers = (
{
background = {
paths = (
{
closed = 1;
nodes = (
"389 -16 OFFCURVE",
"483 69 OFFCURVE",
"483 203 CURVE SMOOTH",
"483 295 OFFCURVE",
"435 360 OFFCURVE",
"351 410 CURVE SMOOTH",
"261 464 LINE SMOOTH",
"216 491 OFFCURVE",
"183 516 OFFCURVE",
"183 568 CURVE SMOOTH",
"183 613 OFFCURVE",
"215 646 OFFCURVE",
"257 646 CURVE SMOOTH",
"318 646 OFFCURVE",
"345 601 OFFCURVE",
"348 520 CURVE",
"476 548 LINE",
"470 699 OFFCURVE",
"390 764 OFFCURVE",
"257 764 CURVE SMOOTH",
"129 764 OFFCURVE",
"41 673 OFFCURVE",
"41 554 CURVE SMOOTH",
"41 456 OFFCURVE",
"88 391 OFFCURVE",
"166 345 CURVE SMOOTH",
"257 292 LINE SMOOTH",
"301 266 OFFCURVE",
"338 242 OFFCURVE",
"338 187 CURVE SMOOTH",
"338 136 OFFCURVE",
"308 102 OFFCURVE",
"257 102 CURVE SMOOTH",
"190 102 OFFCURVE",
"163 153 OFFCURVE",
"159 226 CURVE",
"30 212 LINE",
"35 55 OFFCURVE",
"125 -16 OFFCURVE",
"256 -16 CURVE SMOOTH"
);
},
{
closed = 1;
nodes = (
"490 404 LINE",
"471 501 LINE",
"22 349 LINE",
"41 252 LINE"
);
}
);
};
layerId = "849A9C4C-BF7C-40C5-8614-1FD725A2A379";
paths = (
{
closed = 1;
nodes = (
"389 -16 OFFCURVE",
"483 69 OFFCURVE",
"483 203 CURVE SMOOTH",
"483 295 OFFCURVE",
"435 360 OFFCURVE",
"351 410 CURVE SMOOTH",
"261 464 LINE SMOOTH",
"216 491 OFFCURVE",
"183 516 OFFCURVE",
"183 568 CURVE SMOOTH",
"183 613 OFFCURVE",
"215 646 OFFCURVE",
"257 646 CURVE SMOOTH",
"318 646 OFFCURVE",
"345 601 OFFCURVE",
"348 520 CURVE",
"476 548 LINE",
"470 699 OFFCURVE",
"390 764 OFFCURVE",
"257 764 CURVE SMOOTH",
"129 764 OFFCURVE",
"41 673 OFFCURVE",
"41 554 CURVE SMOOTH",
"41 456 OFFCURVE",
"88 391 OFFCURVE",
"166 345 CURVE SMOOTH",
"257 292 LINE SMOOTH",
"301 266 OFFCURVE",
"338 242 OFFCURVE",
"338 187 CURVE SMOOTH",
"338 136 OFFCURVE",
"308 102 OFFCURVE",
"257 102 CURVE SMOOTH",
"190 102 OFFCURVE",
"163 153 OFFCURVE",
"159 226 CURVE",
"30 212 LINE",
"30 65 OFFCURVE",
"125 -16 OFFCURVE",
"256 -16 CURVE SMOOTH"
);
},
{
closed = 1;
nodes = (
"490 404 LINE",
"471 501 LINE",
"22 349 LINE",
"41 252 LINE"
);
}
);
width = 513;
}
);
leftKerningGroup = SMALL;
rightKerningGroup = SMALL;
unicode = A7A8;
},
{
glyphname = Schwa;
layers = (
{
background = {
paths = (
{
closed = 1;
nodes = (
"452 -16 OFFCURVE",
"496 190 OFFCURVE",
"496 383 CURVE SMOOTH",
"496 628 OFFCURVE",
"429 764 OFFCURVE",
"260 764 CURVE SMOOTH",
"136 764 OFFCURVE",
"63 688 OFFCURVE",
"40 553 CURVE",
"174 523 LINE",
"182 590 OFFCURVE",
"207 641 OFFCURVE",
"260 641 CURVE SMOOTH",
"343 641 OFFCURVE",
"349 505 OFFCURVE",
"349 403 CURVE",
"37 403 LINE",
"35 382 OFFCURVE",
"34 360 OFFCURVE",
"34 338 CURVE SMOOTH",
"34 139 OFFCURVE",
"80 -16 OFFCURVE",
"266 -16 CURVE SMOOTH"
);
},
{
closed = 1;
nodes = (
"195 109 OFFCURVE",
"180 183 OFFCURVE",
"182 296 CURVE",
"347 296 LINE",
"345 187 OFFCURVE",
"325 109 OFFCURVE",
"266 109 CURVE SMOOTH"
);
}
);
};
guideLines = (
{
angle = -12;
position = "{39, 557}";
}
);
layerId = "849A9C4C-BF7C-40C5-8614-1FD725A2A379";
paths = (
{
closed = 1;
nodes = (
"452 -16 OFFCURVE",
"496 190 OFFCURVE",
"496 383 CURVE SMOOTH",
"496 628 OFFCURVE",
"429 764 OFFCURVE",
"260 764 CURVE SMOOTH",
"136 764 OFFCURVE",
"63 688 OFFCURVE",
"40 553 CURVE",
"174 523 LINE",
"182 590 OFFCURVE",
"207 641 OFFCURVE",
"260 641 CURVE SMOOTH",
"343 641 OFFCURVE",
"349 505 OFFCURVE",
"349 403 CURVE",
"37 403 LINE",
"35 382 OFFCURVE",
"34 360 OFFCURVE",
"34 338 CURVE SMOOTH",
"34 139 OFFCURVE",
"80 -16 OFFCURVE",
"266 -16 CURVE SMOOTH"
);
},
{
closed = 1;
nodes = (
"195 109 OFFCURVE",
"182 183 OFFCURVE",
"182 296 CURVE",
"347 296 LINE",
"347 187 OFFCURVE",
"325 109 OFFCURVE",
"263 109 CURVE SMOOTH"
);
}
);
width = 538;
}
);
leftKerningGroup = ROUND;
rightKerningGroup = ROUND;
unicode = 018F;
},
{
glyphname = T;
layers = (
{
anchors = (
{
name = bottom;
position = "{242, 0}";
},
{
name = center;
position = "{240, 375}";
},
{
name = top;
position = "{240, 750}";
}
);
background = {
paths = (
{
closed = 1;
nodes = (
"314 6 LINE",
"314 633 LINE",
"454 633 LINE",
"466 750 LINE",
"26 750 LINE",
"15 633 LINE",
"168 633 LINE",
"168 -6 LINE"
);
}
);
};
guideLines = (
{
angle = 83;
position = "{27, 750}";
},
{
angle = 83;
position = "{467, 750}";
}
);
layerId = "849A9C4C-BF7C-40C5-8614-1FD725A2A379";
paths = (
{
closed = 1;
nodes = (
"313 6 LINE",
"313 628 LINE",
"449 628 LINE",
"463 750 LINE",
"26 750 LINE",
"14 628 LINE",
"169 628 LINE",
"169 -6 LINE"
);
}
);
width = 475;
}
);
leftKerningGroup = OPEN;
rightKerningGroup = OPEN;
unicode = 0054;
},
{
glyphname = Tbar;
layers = (
{
components = (
{
name = T;
}
);
guideLines = (
{
angle = 83;
position = "{376, 393}";
}
);
layerId = "849A9C4C-BF7C-40C5-8614-1FD725A2A379";
paths = (
{
closed = 1;
nodes = (
"383 295 LINE",
"394 389 LINE",
"92 389 LINE",
"92 295 LINE"
);
}
);
width = 475;
}
);
leftKerningGroup = OPEN;
leftMetricsKey = T;
rightKerningGroup = OPEN;
rightMetricsKey = T;
unicode = 0166;
},
{
glyphname = Tdiagonalstroke;
layers = (
{
components = (
{
name = T;
}
);
layerId = "849A9C4C-BF7C-40C5-8614-1FD725A2A379";
paths = (
{
closed = 1;
nodes = (
"284 436 LINE",
"237 503 LINE",
"25 -82 LINE",
"93 -90 LINE"
);
},
{
closed = 1;
nodes = (
"365 661 LINE",
"427 832 LINE",
"359 840 LINE",
"294 661 LINE"
);
}
);
width = 457;
}
);
leftKerningGroup = OPEN;
rightKerningGroup = OPEN;
unicode = 023E;
},
{
glyphname = Thook;
layers = (
{
background = {
paths = (
{
closed = 1;
nodes = (
"150 521 LINE",
"131 542 OFFCURVE",
"123 559 OFFCURVE",
"123 582 CURVE SMOOTH",
"123 606 OFFCURVE",
"140 628 OFFCURVE",
"175 628 CURVE SMOOTH",
"230 628 LINE",
"230 750 LINE",
"185 750 LINE SMOOTH",
"80 750 OFFCURVE",
"5 690 OFFCURVE",
"5 596 CURVE SMOOTH",
"5 550 OFFCURVE",
"21 510 OFFCURVE",
"41 484 CURVE"
);
},
{
closed = 1;
nodes = (
"364 0 LINE",
"364 628 LINE",
"500 628 LINE",
"514 750 LINE",
"220 750 LINE",
"220 0 LINE"
);
}
);
};
layerId = "849A9C4C-BF7C-40C5-8614-1FD725A2A379";
paths = (
{
closed = 1;
nodes = (
"364 6 LINE",
"364 628 LINE",
"500 628 LINE",
"514 750 LINE",
"185 750 LINE SMOOTH",
"80 750 OFFCURVE",
"5 690 OFFCURVE",
"5 596 CURVE SMOOTH",
"5 550 OFFCURVE",
"21 510 OFFCURVE",
"41 484 CURVE",
"150 521 LINE",
"131 542 OFFCURVE",
"123 559 OFFCURVE",
"123 582 CURVE SMOOTH",
"123 606 OFFCURVE",
"140 628 OFFCURVE",
"175 628 CURVE SMOOTH",
"220 628 LINE",
"220 -6 LINE"
);
}
);
width = 522;
}
);
rightKerningGroup = OPEN;
unicode = 01AC;
},
{
glyphname = Tretroflexhook;
layers = (
{
layerId = "849A9C4C-BF7C-40C5-8614-1FD725A2A379";
paths = (
{
closed = 1;
nodes = (
"345 -173 OFFCURVE",
"366 -167 OFFCURVE",
"389 -159 CURVE",
"377 -43 LINE",
"369 -46 OFFCURVE",
"362 -47 OFFCURVE",
"353 -47 CURVE SMOOTH",
"327 -47 OFFCURVE",
"313 -30 OFFCURVE",
"313 13 CURVE SMOOTH",
"313 628 LINE",
"449 628 LINE",
"463 750 LINE",
"26 750 LINE",
"14 628 LINE",
"169 628 LINE",
"169 10 LINE SMOOTH",
"169 -88 OFFCURVE",
"212 -173 OFFCURVE",
"314 -173 CURVE SMOOTH"
);
}
);
width = 475;
}
);
leftKerningGroup = OPEN;
rightKerningGroup = OPEN;
unicode = 01AE;
},
{
glyphname = U;
layers = (
{
anchors = (
{
name = bottom;
position = "{288, 0}";
},
{
name = ogonek;
position = "{459, 5}";
},
{
name = top;
position = "{290, 750}";
},
{
name = topright;
position = "{505, 527}";
}
);
background = {
paths = (
{
closed = 1;
nodes = (
"446 -14 OFFCURVE",
"516 97 OFFCURVE",
"516 243 CURVE SMOOTH",
"516 750 LINE",
"379 750 LINE",
"379 230 LINE SMOOTH",
"379 157 OFFCURVE",
"351 109 OFFCURVE",
"295 109 CURVE SMOOTH",
"239 109 OFFCURVE",
"211 157 OFFCURVE",
"211 230 CURVE SMOOTH",
"211 750 LINE",
"64 750 LINE",
"64 243 LINE SMOOTH",
"64 76 OFFCURVE",
"134 -14 OFFCURVE",
"293 -14 CURVE SMOOTH"
);
}
);
};
guideLines = (
{
angle = 7;
position = "{507, 762}";
},
{
angle = 7;
position = "{215, 751}";
}
);
layerId = "849A9C4C-BF7C-40C5-8614-1FD725A2A379";
paths = (
{
closed = 1;
nodes = (
"436 -14 OFFCURVE",
"506 97 OFFCURVE",
"506 243 CURVE SMOOTH",
"506 750 LINE",
"369 738 LINE",
"369 230 LINE SMOOTH",
"369 157 OFFCURVE",
"341 109 OFFCURVE",
"290 109 CURVE SMOOTH",
"239 109 OFFCURVE",
"211 157 OFFCURVE",
"211 230 CURVE SMOOTH",
"211 750 LINE",
"64 744 LINE",
"64 243 LINE SMOOTH",
"64 76 OFFCURVE",
"134 -14 OFFCURVE",
"288 -14 CURVE SMOOTH"
);
}
);
width = 571;
}
);
leftKerningGroup = STRAIGHT;
rightKerningGroup = STRAIGHT;
unicode = 0055;
},
{
glyphname = Ubar;
layers = (
{
components = (
{
name = U;
}
);
layerId = "849A9C4C-BF7C-40C5-8614-1FD725A2A379";
paths = (
{
closed = 1;
nodes = (
"552 397 LINE",
"563 486 LINE",
"5 486 LINE",
"5 397 LINE"
);
}
);
width = 562;
}
);
leftKerningGroup = STRAIGHT;
rightKerningGroup = STRAIGHT;
unicode = 0244;
},
{
glyphname = Udieresisacute;
layers = (
{
components = (
{
name = U;
},
{
name = dieresiscomb.case;
transform = "{1, 0, 0, 1, 281, -42}";
}
);
layerId = "849A9C4C-BF7C-40C5-8614-1FD725A2A379";
paths = (
{
closed = 1;
nodes = (
"399 1045 LINE",
"335 1169 LINE",
"145 1029 LINE",
"177 964 LINE"
);
}
);
width = 562;
}
);
leftKerningGroup = STRAIGHT;
rightKerningGroup = STRAIGHT;
unicode = 01D7;
},
{
glyphname = Udieresisgrave;
layers = (
{
components = (
{
name = U;
},
{
alignment = -1;
name = dieresiscomb.case;
transform = "{1, 0, 0, 1, 281, -42}";
}
);
layerId = "849A9C4C-BF7C-40C5-8614-1FD725A2A379";
paths = (
{
closed = 1;
nodes = (
"399 1029 LINE",
"209 1169 LINE",
"145 1045 LINE",
"367 964 LINE"
);
}
);
width = 562;
}
);
leftKerningGroup = STRAIGHT;
rightKerningGroup = STRAIGHT;
unicode = 01DB;
},
{
glyphname = Uhorn;
layers = (
{
anchors = (
{
name = bottom;
position = "{288, 0}";
},
{
name = top;
position = "{290, 750}";
}
);
background = {
anchors = (
{
name = bottom;
position = "{288, 0}";
},
{
name = ogonek;
position = "{457, 5}";
},
{
name = top;
position = "{290, 750}";
},
{
name = topright;
position = "{514, 480}";
}
);
paths = (
{
closed = 1;
nodes = (
"446 -14 OFFCURVE",
"516 97 OFFCURVE",
"516 243 CURVE SMOOTH",
"516 750 LINE",
"379 750 LINE",
"379 230 LINE SMOOTH",
"379 157 OFFCURVE",
"351 109 OFFCURVE",
"295 109 CURVE SMOOTH",
"239 109 OFFCURVE",
"211 157 OFFCURVE",
"211 230 CURVE SMOOTH",
"211 750 LINE",
"64 750 LINE",
"64 243 LINE SMOOTH",
"64 76 OFFCURVE",
"134 -14 OFFCURVE",
"293 -14 CURVE SMOOTH"
);
},
{
closed = 1;
nodes = (
"614 556 OFFCURVE",
"689 616 OFFCURVE",
"689 703 CURVE SMOOTH",
"689 756 OFFCURVE",
"671 792 OFFCURVE",
"661 805 CURVE",
"554 765 LINE",
"567 743 OFFCURVE",
"581 711 OFFCURVE",
"581 685 CURVE SMOOTH",
"581 659 OFFCURVE",
"563 641 OFFCURVE",
"533 641 CURVE SMOOTH",
"526 641 OFFCURVE",
"517 642 OFFCURVE",
"512 643 CURVE",
"512 559 LINE",
"521 557 OFFCURVE",
"530 556 OFFCURVE",
"539 556 CURVE SMOOTH"
);
}
);
};
layerId = "849A9C4C-BF7C-40C5-8614-1FD725A2A379";
paths = (
{
closed = 1;
nodes = (
"446 -14 OFFCURVE",
"516 97 OFFCURVE",
"516 243 CURVE SMOOTH",
"516 558 LINE",
"522 557 OFFCURVE",
"531 556 OFFCURVE",
"539 556 CURVE SMOOTH",
"614 556 OFFCURVE",
"689 616 OFFCURVE",
"689 703 CURVE SMOOTH",
"689 756 OFFCURVE",
"671 792 OFFCURVE",
"661 805 CURVE",
"554 765 LINE",
"567 743 OFFCURVE",
"581 711 OFFCURVE",
"581 685 CURVE SMOOTH",
"581 659 OFFCURVE",
"563 641 OFFCURVE",
"533 641 CURVE SMOOTH",
"527 641 OFFCURVE",
"519 642 OFFCURVE",
"516 643 CURVE",
"516 750 LINE",
"379 750 LINE",
"379 230 LINE SMOOTH",
"379 157 OFFCURVE",
"351 109 OFFCURVE",
"295 109 CURVE SMOOTH",
"239 109 OFFCURVE",
"211 157 OFFCURVE",
"211 230 CURVE SMOOTH",
"211 750 LINE",
"64 750 LINE",
"64 243 LINE SMOOTH",
"64 76 OFFCURVE",
"134 -14 OFFCURVE",
"293 -14 CURVE SMOOTH"
);
}
);
width = 659;
}
);
leftKerningGroup = STRAIGHT;
rightKerningGroup = STRAIGHT;
unicode = 01AF;
},
{
glyphname = Upsilonafrican;
layers = (
{
background = {
components = (
{
name = Omega;
transform = "{1, 0, 0, -1, -11, 747}";
}
);
};
guideLines = (
{
position = "{367, 628}";
}
);
layerId = "849A9C4C-BF7C-40C5-8614-1FD725A2A379";
paths = (
{
closed = 1;
nodes = (
"443 -14 OFFCURVE",
"525 103 OFFCURVE",
"525 320 CURVE SMOOTH",
"525 512 OFFCURVE",
"385 702 OFFCURVE",
"309 716 CURVE",
"309 628 LINE",
"335 610 OFFCURVE",
"370 475 OFFCURVE",
"370 341 CURVE SMOOTH",
"370 188 OFFCURVE",
"353 109 OFFCURVE",
"280 109 CURVE SMOOTH",
"208 109 OFFCURVE",
"190 188 OFFCURVE",
"190 341 CURVE SMOOTH",
"190 474 OFFCURVE",
"226 608 OFFCURVE",
"249 628 CURVE",
"249 716 LINE",
"155 680 OFFCURVE",
"35 511 OFFCURVE",
"35 320 CURVE SMOOTH",
"35 103 OFFCURVE",
"117 -14 OFFCURVE",
"280 -14 CURVE SMOOTH"
);
},
{
closed = 1;
nodes = (
"249 628 LINE",
"249 750 LINE",
"45 750 LINE",
"29 628 LINE"
);
},
{
closed = 1;
nodes = (
"534 628 LINE",
"518 750 LINE",
"309 750 LINE",
"309 628 LINE"
);
}
);
width = 560;
}
);
unicode = 01B1;
},
{
glyphname = Utildeacute;
layers = (
{
components = (
{
name = U;
},
{
alignment = -1;
name = tildecomb.case;
transform = "{1, 0, 0, 1, 285, -30}";
}
);
layerId = "849A9C4C-BF7C-40C5-8614-1FD725A2A379";
paths = (
{
closed = 1;
nodes = (
"412 1045 LINE",
"348 1169 LINE",
"158 1029 LINE",
"190 964 LINE"
);
}
);
width = 571;
}
);
leftKerningGroup = STRAIGHT;
rightKerningGroup = STRAIGHT;
unicode = 1E78;
},
{
glyphname = V;
layers = (
{
anchors = (
{
name = bottom;
position = "{251, 0}";
},
{
name = top;
position = "{251, 750}";
}
);
background = {
paths = (
{
closed = 1;
nodes = (
"523 750 LINE",
"382 744 LINE",
"278 232 LINE",
"179 750 LINE",
"5 744 LINE",
"182 0 LINE",
"343 0 LINE"
);
}
);
};
guideLines = (
{
angle = 7;
position = "{7, 750}";
},
{
angle = -7;
position = "{371, 761}";
}
);
layerId = "849A9C4C-BF7C-40C5-8614-1FD725A2A379";
paths = (
{
closed = 1;
nodes = (
"368 8 LINE",
"526 750 LINE",
"389 750 LINE",
"263 94 LINE",
"288 94 LINE",
"171 760 LINE",
"8 742 LINE",
"173 -13 LINE"
);
}
);
width = 533;
}
);
leftKerningGroup = ANGLE;
rightKerningGroup = ANGLE;
unicode = 0056;
},
{
glyphname = Gammaafrican;
layers = (
{
background = {
paths = (
{
closed = 1;
nodes = (
"342 208 LINE",
"500 750 LINE",
"371 750 LINE",
"257 356 LINE",
"151 760 LINE",
"8 742 LINE",
"173 187 LINE"
);
}
);
};
guideLines = (
{
angle = -66.8014;
position = "{121, 480}";
},
{
angle = 112.1306;
position = "{255, 506}";
}
);
layerId = "849A9C4C-BF7C-40C5-8614-1FD725A2A379";
paths = (
{
closed = 1;
nodes = (
"254 -79 LINE",
"212 -79 OFFCURVE",
"189 -46 OFFCURVE",
"189 -4 CURVE SMOOTH",
"189 25 OFFCURVE",
"195 63 OFFCURVE",
"225 130 CURVE SMOOTH",
"500 742 LINE",
"357 760 LINE",
"107 163 LINE SMOOTH",
"80 99 OFFCURVE",
"60 51 OFFCURVE",
"60 -8 CURVE SMOOTH",
"60 -98 OFFCURVE",
"129 -185 OFFCURVE",
"254 -185 CURVE"
);
},
{
closed = 1;
nodes = (
"379 -185 OFFCURVE",
"448 -98 OFFCURVE",
"448 -8 CURVE SMOOTH",
"448 51 OFFCURVE",
"428 99 OFFCURVE",
"401 163 CURVE SMOOTH",
"151 760 LINE",
"8 742 LINE",
"283 130 LINE SMOOTH",
"313 63 OFFCURVE",
"319 25 OFFCURVE",
"319 -4 CURVE SMOOTH",
"319 -46 OFFCURVE",
"296 -79 OFFCURVE",
"254 -79 CURVE",
"254 -185 LINE"
);
}
);
width = 508;
}
);
unicode = 0194;
},
{
glyphname = Vhook;
layers = (
{
background = {
paths = (
{
closed = 1;
nodes = (
"406 -14 OFFCURVE",
"507 138 OFFCURVE",
"507 385 CURVE SMOOTH",
"507 636 OFFCURVE",
"424 778 OFFCURVE",
"318 778 CURVE",
"268 653 LINE",
"315 653 OFFCURVE",
"360 573 OFFCURVE",
"360 386 CURVE SMOOTH",
"360 173 OFFCURVE",
"317 109 OFFCURVE",
"260 109 CURVE SMOOTH",
"224 109 OFFCURVE",
"202 137 OFFCURVE",
"202 200 CURVE SMOOTH",
"202 750 LINE",
"55 750 LINE",
"55 213 LINE SMOOTH",
"55 56 OFFCURVE",
"125 -14 OFFCURVE",
"243 -14 CURVE SMOOTH"
);
}
);
};
guideLines = (
{
angle = 12;
position = "{379, 587}";
}
);
layerId = "849A9C4C-BF7C-40C5-8614-1FD725A2A379";
paths = (
{
closed = 1;
nodes = (
"404 -14 OFFCURVE",
"507 108 OFFCURVE",
"507 425 CURVE SMOOTH",
"507 679 OFFCURVE",
"455 760 OFFCURVE",
"355 760 CURVE SMOOTH",
"325 760 OFFCURVE",
"290 751 OFFCURVE",
"266 738 CURVE",
"295 624 LINE",
"306 632 OFFCURVE",
"314 637 OFFCURVE",
"329 637 CURVE SMOOTH",
"354 637 OFFCURVE",
"368 600 OFFCURVE",
"368 426 CURVE SMOOTH",
"368 173 OFFCURVE",
"317 109 OFFCURVE",
"260 109 CURVE SMOOTH",
"224 109 OFFCURVE",
"202 137 OFFCURVE",
"202 200 CURVE SMOOTH",
"202 750 LINE",
"55 750 LINE",
"55 213 LINE SMOOTH",
"55 56 OFFCURVE",
"125 -14 OFFCURVE",
"243 -14 CURVE SMOOTH"
);
}
);
width = 547;
}
);
leftKerningGroup = STRAIGHT;
rightKerningGroup = ROUND;
unicode = 01B2;
},
{
glyphname = Vturned;
layers = (
{
layerId = "849A9C4C-BF7C-40C5-8614-1FD725A2A379";
paths = (
{
closed = 1;
nodes = (
"144 0 LINE",
"270 656 LINE",
"245 656 LINE",
"362 -10 LINE",
"525 8 LINE",
"360 763 LINE",
"165 742 LINE",
"7 0 LINE"
);
}
);
width = 533;
}
);
unicode = 0245;
},
{
glyphname = W;
layers = (
{
anchors = (
{
name = bottom;
position = "{392, 0}";
},
{
name = top;
position = "{396, 750}";
}
);
background = {
paths = (
{
closed = 1;
nodes = (
"309 0 LINE",
"388 511 LINE",
"462 0 LINE",
"610 0 LINE",
"757 751 LINE",
"627 751 LINE",
"543 206 LINE",
"537 255 LINE",
"466 746 LINE",
"321 746 LINE",
"245 258 LINE",
"238 206 LINE",
"165 761 LINE",
"13 742 LINE",
"154 0 LINE"
);
}
);
};
guideLines = (
{
angle = 7;
position = "{169, 758}";
},
{
position = "{541, -8}";
},
{
angle = 7;
position = "{616, 6}";
}
);
layerId = "849A9C4C-BF7C-40C5-8614-1FD725A2A379";
paths = (
{
closed = 1;
nodes = (
"313 0 LINE",
"402 573 LINE",
"383 573 LINE",
"466 0 LINE",
"614 0 LINE",
"766 750 LINE",
"636 750 LINE",
"537 144 LINE",
"556 144 LINE",
"469 750 LINE",
"325 743 LINE",
"232 144 LINE",
"250 144 LINE",
"165 761 LINE",
"13 742 LINE",
"158 0 LINE"
);
}
);
width = 774;
}
);
leftKerningGroup = ANGLE;
rightKerningGroup = ANGLE;
unicode = 0057;
},
{
glyphname = Whook;
layers = (
{
background = {
paths = (
{
closed = 1;
nodes = (
"733 630 OFFCURVE",
"748 639 OFFCURVE",
"767 639 CURVE SMOOTH",
"784 639 OFFCURVE",
"793 634 OFFCURVE",
"806 624 CURVE",
"835 738 LINE",
"810 752 OFFCURVE",
"786 760 OFFCURVE",
"759 760 CURVE SMOOTH",
"658 760 OFFCURVE",
"619 696 OFFCURVE",
"601 582 CURVE SMOOTH",
"543 206 LINE",
"537 255 LINE",
"466 746 LINE",
"321 746 LINE",
"245 258 LINE",
"238 206 LINE",
"165 761 LINE",
"13 742 LINE",
"154 0 LINE",
"309 0 LINE",
"388 511 LINE",
"462 0 LINE",
"610 0 LINE",
"728 604 LINE SMOOTH"
);
}
);
};
layerId = "849A9C4C-BF7C-40C5-8614-1FD725A2A379";
paths = (
{
closed = 1;
nodes = (
"309 0 LINE",
"398 573 LINE",
"379 573 LINE",
"462 0 LINE",
"610 0 LINE",
"718 604 LINE SMOOTH",
"723 630 OFFCURVE",
"738 639 OFFCURVE",
"757 639 CURVE SMOOTH",
"774 639 OFFCURVE",
"783 634 OFFCURVE",
"796 624 CURVE",
"825 738 LINE",
"800 752 OFFCURVE",
"776 760 OFFCURVE",
"749 760 CURVE SMOOTH",
"648 760 OFFCURVE",
"606 696 OFFCURVE",
"591 582 CURVE SMOOTH",
"535 144 LINE",
"552 144 LINE",
"466 746 LINE",
"321 746 LINE",
"228 144 LINE",
"246 144 LINE",
"165 761 LINE",
"13 742 LINE",
"154 0 LINE"
);
}
);
width = 815;
}
);
leftKerningGroup = ANGLE;
unicode = 2C72;
},
{
glyphname = X;
layers = (
{
anchors = (
{
name = bottom;
position = "{250, 0}";
},
{
name = top;
position = "{237, 750}";
}
);
background = {
paths = (
{
closed = 1;
nodes = (
"245 235 LINE",
"351 0 LINE",
"525 0 LINE",
"331 409 LINE",
"500 750 LINE",
"360 750 LINE",
"270 555 LINE",
"183 750 LINE",
"8 750 LINE",
"187 381 LINE",
"0 0 LINE",
"139 0 LINE"
);
}
);
};
guideLines = (
{
angle = 15;
position = "{141, 761}";
},
{
angle = 7;
position = "{358, -12}";
},
{
angle = 173;
position = "{355, 756}";
},
{
angle = 173;
position = "{124, -12}";
},
{
angle = 16;
position = "{329, -17}";
}
);
layerId = "849A9C4C-BF7C-40C5-8614-1FD725A2A379";
paths = (
{
closed = 1;
nodes = (
"508 18 LINE",
"328 438 LINE",
"284 438 LINE",
"154 762 LINE",
"9 725 LINE",
"185 327 LINE",
"224 327 LINE",
"366 -22 LINE"
);
},
{
closed = 1;
nodes = (
"136 0 LINE",
"272 315 LINE",
"314 315 LINE",
"504 750 LINE",
"371 750 LINE",
"226 417 LINE",
"187 417 LINE",
"0 0 LINE"
);
}
);
width = 503;
}
);
leftKerningGroup = VOID;
rightKerningGroup = VOID;
unicode = 0058;
},
{
glyphname = Y;
layers = (
{
anchors = (
{
name = bottom;
position = "{250, 0}";
},
{
name = top;
position = "{250, 750}";
},
{
name = topleft;
position = "{9, 750}";
}
);
background = {
paths = (
{
closed = 1;
nodes = (
"323 314 LINE",
"496 750 LINE",
"370 750 LINE",
"259 438 LINE",
"156 750 LINE",
"-5 750 LINE",
"175 297 LINE",
"175 -6 LINE",
"323 6 LINE"
);
}
);
};
guideLines = (
{
angle = 7;
position = "{321, 266}";
},
{
angle = 7;
position = "{157, 756}";
},
{
angle = 71.7762;
position = "{321, 266}";
},
{
angle = -74.2967;
position = "{153, 758}";
}
);
layerId = "849A9C4C-BF7C-40C5-8614-1FD725A2A379";
paths = (
{
closed = 1;
nodes = (
"321 0 LINE",
"321 276 LINE",
"500 750 LINE",
"362 750 LINE",
"252 418 LINE",
"139 761 LINE",
"-1 739 LINE",
"174 268 LINE",
"174 0 LINE"
);
}
);
width = 501;
}
);
leftKerningGroup = OPEN;
rightKerningGroup = OPEN;
unicode = 0059;
},
{
glyphname = Yhook;
layers = (
{
layerId = "849A9C4C-BF7C-40C5-8614-1FD725A2A379";
paths = (
{
closed = 1;
nodes = (
"321 0 LINE",
"321 266 LINE",
"437 604 LINE SMOOTH",
"445 628 OFFCURVE",
"457 639 OFFCURVE",
"476 639 CURVE SMOOTH",
"493 639 OFFCURVE",
"502 634 OFFCURVE",
"515 624 CURVE",
"544 738 LINE",
"519 752 OFFCURVE",
"495 760 OFFCURVE",
"468 760 CURVE SMOOTH",
"372 760 OFFCURVE",
"333 697 OFFCURVE",
"302 582 CURVE SMOOTH",
"252 398 LINE",
"148 761 LINE",
"8 739 LINE",
"174 248 LINE",
"174 0 LINE"
);
}
);
width = 544;
}
);
leftKerningGroup = OPEN;
unicode = 01B3;
},
{
glyphname = Ystroke;
layers = (
{
components = (
{
name = Y;
transform = "{1, 0, 0, 1, 10, 0}";
}
);
layerId = "849A9C4C-BF7C-40C5-8614-1FD725A2A379";
paths = (
{
closed = 1;
nodes = (
"502 557 LINE",
"513 646 LINE",
"2 646 LINE",
"2 557 LINE"
);
}
);
width = 515;
}
);
leftKerningGroup = OPEN;
rightKerningGroup = OPEN;
unicode = 024E;
},
{
glyphname = Z;
layers = (
{
anchors = (
{
name = bottom;
position = "{235, 0}";
},
{
name = center;
position = "{236, 375}";
},
{
name = top;
position = "{253, 750}";
}
);
background = {
components = (
{
name = H;
transform = "{1, 0, 0, 1, -53, 0}";
}
);
};
layerId = "849A9C4C-BF7C-40C5-8614-1FD725A2A379";
paths = (
{
closed = 1;
nodes = (
"440 0 LINE",
"455 122 LINE",
"191 122 LINE",
"452 651 LINE",
"440 750 LINE",
"45 750 LINE",
"45 632 LINE",
"291 632 LINE",
"30 103 LINE",
"42 0 LINE"
);
}
);
width = 479;
}
);
leftKerningGroup = VOID;
rightKerningGroup = VOID;
unicode = 005A;
},
{
glyphname = Zstroke;
layers = (
{
components = (
{
name = Z;
}
);
layerId = "849A9C4C-BF7C-40C5-8614-1FD725A2A379";
paths = (
{
closed = 1;
nodes = (
"406 341 LINE",
"416 431 LINE",
"55 431 LINE",
"55 341 LINE"
);
}
);
width = 465;
}
);
leftKerningGroup = VOID;
rightKerningGroup = VOID;
unicode = 01B5;
},
{
glyphname = B.ori;
layers = (
{
background = {
paths = (
{
closed = 1;
nodes = (
"190 0 LINE SMOOTH",
"348 0 OFFCURVE",
"521 35 OFFCURVE",
"521 210 CURVE SMOOTH",
"521 329 OFFCURVE",
"470 372 OFFCURVE",
"417 399 CURVE",
"467 424 OFFCURVE",
"498 484 OFFCURVE",
"498 557 CURVE SMOOTH",
"498 664 OFFCURVE",
"431 750 OFFCURVE",
"238 750 CURVE SMOOTH",
"70 750 LINE",
"70 0 LINE"
);
},
{
closed = 1;
nodes = (
"217 338 LINE",
"249 338 LINE SMOOTH",
"318 338 OFFCURVE",
"380 326 OFFCURVE",
"380 230 CURVE SMOOTH",
"380 186 OFFCURVE",
"351 117 OFFCURVE",
"244 117 CURVE SMOOTH",
"217 117 LINE"
);
},
{
closed = 1;
nodes = (
"212 633 LINE",
"241 633 LINE SMOOTH",
"306 633 OFFCURVE",
"362 617 OFFCURVE",
"362 542 CURVE SMOOTH",
"362 457 OFFCURVE",
"315 445 OFFCURVE",
"247 445 CURVE SMOOTH",
"212 445 LINE"
);
}
);
};
layerId = "849A9C4C-BF7C-40C5-8614-1FD725A2A379";
paths = (
{
closed = 1;
nodes = (
"190 0 LINE SMOOTH",
"348 0 OFFCURVE",
"521 35 OFFCURVE",
"521 210 CURVE SMOOTH",
"521 329 OFFCURVE",
"470 372 OFFCURVE",
"417 399 CURVE",
"467 424 OFFCURVE",
"498 484 OFFCURVE",
"498 557 CURVE SMOOTH",
"498 664 OFFCURVE",
"431 750 OFFCURVE",
"238 750 CURVE SMOOTH",
"70 750 LINE",
"70 0 LINE"
);
},
{
closed = 1;
nodes = (
"217 338 LINE",
"249 338 LINE SMOOTH",
"318 338 OFFCURVE",
"380 326 OFFCURVE",
"380 230 CURVE SMOOTH",
"380 186 OFFCURVE",
"351 117 OFFCURVE",
"244 117 CURVE SMOOTH",
"217 117 LINE"
);
},
{
closed = 1;
nodes = (
"212 633 LINE",
"241 633 LINE SMOOTH",
"306 633 OFFCURVE",
"362 617 OFFCURVE",
"362 542 CURVE SMOOTH",
"362 457 OFFCURVE",
"315 445 OFFCURVE",
"247 445 CURVE SMOOTH",
"212 445 LINE"
);
}
);
width = 551;
}
);
},
{
glyphname = C.ori;
layers = (
{
background = {
components = (
{
name = O.001;
transform = "{1, 0, 0, 1, -23, 0}";
}
);
paths = (
{
closed = 1;
nodes = (
"418 -14 OFFCURVE",
"487 116 OFFCURVE",
"487 255 CURVE",
"362 267 LINE",
"357 202 OFFCURVE",
"344 104 OFFCURVE",
"283 104 CURVE SMOOTH",
"199 104 OFFCURVE",
"186 249 OFFCURVE",
"186 391 CURVE SMOOTH",
"186 501 OFFCURVE",
"199 646 OFFCURVE",
"269 646 CURVE SMOOTH",
"341 646 OFFCURVE",
"344 501 OFFCURVE",
"344 486 CURVE",
"486 493 LINE",
"486 625 OFFCURVE",
"409 764 OFFCURVE",
"277 764 CURVE SMOOTH",
"102 764 OFFCURVE",
"40 559 OFFCURVE",
"40 391 CURVE SMOOTH",
"40 201 OFFCURVE",
"85 -14 OFFCURVE",
"274 -14 CURVE SMOOTH"
);
},
{
closed = 1;
nodes = (
"418 -14 OFFCURVE",
"487 116 OFFCURVE",
"487 255 CURVE",
"362 267 LINE",
"357 202 OFFCURVE",
"344 104 OFFCURVE",
"283 104 CURVE SMOOTH",
"199 104 OFFCURVE",
"186 249 OFFCURVE",
"186 391 CURVE SMOOTH",
"186 501 OFFCURVE",
"199 646 OFFCURVE",
"269 646 CURVE SMOOTH",
"341 646 OFFCURVE",
"344 501 OFFCURVE",
"344 486 CURVE",
"486 493 LINE",
"486 625 OFFCURVE",
"409 764 OFFCURVE",
"277 764 CURVE SMOOTH",
"102 764 OFFCURVE",
"40 559 OFFCURVE",
"40 391 CURVE SMOOTH",
"40 201 OFFCURVE",
"85 -14 OFFCURVE",
"274 -14 CURVE SMOOTH"
);
},
{
closed = 1;
nodes = (
"88 764 OFFCURVE",
"20 590 OFFCURVE",
"20 369 CURVE SMOOTH",
"20 163 OFFCURVE",
"96 -14 OFFCURVE",
"277 -14 CURVE SMOOTH",
"407 -14 OFFCURVE",
"470 71 OFFCURVE",
"501 187 CURVE",
"374 214 LINE",
"365 157 OFFCURVE",
"336 114 OFFCURVE",
"282 114 CURVE SMOOTH",
"188 114 OFFCURVE",
"171 245 OFFCURVE",
"171 370 CURVE SMOOTH",
"171 517 OFFCURVE",
"185 639 OFFCURVE",
"282 639 CURVE SMOOTH",
"340 639 OFFCURVE",
"361 591 OFFCURVE",
"375 542 CURVE",
"497 568 LINE",
"465 680 OFFCURVE",
"401 764 OFFCURVE",
"277 764 CURVE SMOOTH"
);
}
);
};
guideLines = (
{
position = "{361, 445}";
},
{
angle = -12;
position = "{371, 209}";
},
{
angle = 12;
position = "{368, 534}";
},
{
position = "{156, 252}";
}
);
layerId = "849A9C4C-BF7C-40C5-8614-1FD725A2A379";
paths = (
{
closed = 1;
nodes = (
"418 -14 OFFCURVE",
"487 116 OFFCURVE",
"487 255 CURVE",
"362 267 LINE",
"357 202 OFFCURVE",
"344 104 OFFCURVE",
"283 104 CURVE SMOOTH",
"199 104 OFFCURVE",
"186 249 OFFCURVE",
"186 391 CURVE SMOOTH",
"186 501 OFFCURVE",
"199 646 OFFCURVE",
"269 646 CURVE SMOOTH",
"341 646 OFFCURVE",
"344 501 OFFCURVE",
"344 486 CURVE",
"486 493 LINE",
"486 625 OFFCURVE",
"409 764 OFFCURVE",
"277 764 CURVE SMOOTH",
"102 764 OFFCURVE",
"40 559 OFFCURVE",
"40 391 CURVE SMOOTH",
"40 201 OFFCURVE",
"85 -14 OFFCURVE",
"274 -14 CURVE SMOOTH"
);
}
);
width = 522;
}
);
},
{
glyphname = E.ori;
layers = (
{
guideLines = (
{
position = "{447, 622}";
},
{
position = "{405, 443}";
}
);
layerId = "849A9C4C-BF7C-40C5-8614-1FD725A2A379";
paths = (
{
closed = 1;
nodes = (
"447 0 LINE",
"459 117 LINE",
"217 117 LINE",
"217 328 LINE",
"375 328 LINE",
"375 454 LINE",
"217 454 LINE",
"217 633 LINE",
"439 633 LINE",
"451 750 LINE",
"70 750 LINE",
"70 0 LINE"
);
}
);
width = 483;
}
);
},
{
glyphname = F.ori;
layers = (
{
guideLines = (
{
position = "{7, 438}";
}
);
layerId = "849A9C4C-BF7C-40C5-8614-1FD725A2A379";
paths = (
{
closed = 1;
nodes = (
"217 6 LINE",
"217 312 LINE",
"374 312 LINE",
"374 436 LINE",
"217 436 LINE",
"217 632 LINE",
"439 632 LINE",
"451 750 LINE",
"70 750 LINE",
"70 -6 LINE"
);
}
);
width = 460;
}
);
},
{
glyphname = G.ori;
layers = (
{
background = {
paths = (
{
closed = 1;
nodes = (
"379 -14 OFFCURVE",
"402 91 OFFCURVE",
"413 139 CURVE",
"437 40 OFFCURVE",
"446 6 OFFCURVE",
"447 0 CURVE",
"503 6 LINE",
"503 375 LINE",
"300 375 LINE",
"288 263 LINE",
"362 263 LINE",
"362 179 OFFCURVE",
"334 104 OFFCURVE",
"282 104 CURVE SMOOTH",
"186 104 OFFCURVE",
"186 263 OFFCURVE",
"186 370 CURVE SMOOTH",
"186 484 OFFCURVE",
"203 646 OFFCURVE",
"281 646 CURVE SMOOTH",
"345 646 OFFCURVE",
"358 573 OFFCURVE",
"361 496 CURVE",
"500 505 LINE",
"500 653 OFFCURVE",
"435 764 OFFCURVE",
"283 764 CURVE SMOOTH",
"103 764 OFFCURVE",
"40 551 OFFCURVE",
"40 378 CURVE SMOOTH",
"40 173 OFFCURVE",
"96 -14 OFFCURVE",
"254 -14 CURVE SMOOTH"
);
}
);
};
layerId = "849A9C4C-BF7C-40C5-8614-1FD725A2A379";
paths = (
{
closed = 1;
nodes = (
"344 -14 OFFCURVE",
"389 34 OFFCURVE",
"413 139 CURVE",
"447 0 LINE",
"503 6 LINE",
"503 375 LINE",
"300 375 LINE",
"288 263 LINE",
"362 263 LINE",
"362 179 OFFCURVE",
"334 104 OFFCURVE",
"282 104 CURVE SMOOTH",
"186 104 OFFCURVE",
"186 263 OFFCURVE",
"186 370 CURVE SMOOTH",
"186 484 OFFCURVE",
"203 646 OFFCURVE",
"281 646 CURVE SMOOTH",
"345 646 OFFCURVE",
"358 573 OFFCURVE",
"361 496 CURVE",
"500 505 LINE",
"500 653 OFFCURVE",
"435 764 OFFCURVE",
"283 764 CURVE SMOOTH",
"103 764 OFFCURVE",
"40 551 OFFCURVE",
"40 378 CURVE SMOOTH",
"40 173 OFFCURVE",
"96 -14 OFFCURVE",
"254 -14 CURVE SMOOTH"
);
}
);
width = 553;
}
);
},
{
glyphname = Hbar.ori;
layers = (
{
background = {
components = (
{
name = H;
}
);
};
layerId = "849A9C4C-BF7C-40C5-8614-1FD725A2A379";
paths = (
{
closed = 1;
nodes = (
"217 6 LINE",
"217 312 LINE",
"358 312 LINE",
"358 -6 LINE",
"504 6 LINE",
"504 750 LINE",
"358 738 LINE",
"358 446 LINE",
"217 446 LINE",
"217 750 LINE",
"71 738 LINE",
"71 -6 LINE"
);
},
{
closed = 1;
nodes = (
"556 567 LINE",
"556 656 LINE",
"13 656 LINE",
"13 567 LINE"
);
}
);
width = 576;
}
);
},
{
glyphname = K.ori;
layers = (
{
layerId = "849A9C4C-BF7C-40C5-8614-1FD725A2A379";
paths = (
{
closed = 1;
nodes = (
"553 21 LINE",
"390 440 LINE",
"551 750 LINE",
"395 750 LINE",
"217 422 LINE",
"217 750 LINE",
"70 738 LINE",
"70 0 LINE",
"217 0 LINE",
"217 237 LINE",
"274 336 LINE",
"404 -13 LINE"
);
}
);
width = 563;
}
);
},
{
glyphname = M.ori;
layers = (
{
background = {
paths = (
{
closed = 1;
nodes = (
"724 6 LINE",
"724 744 LINE",
"528 732 LINE",
"409 285 LINE",
"285 749 LINE",
"70 743 LINE",
"70 0 LINE",
"191 6 LINE",
"191 559 LINE",
"342 0 LINE",
"432 0 LINE",
"572 557 LINE",
"572 -6 LINE"
);
}
);
};
guideLines = (
{
angle = 7;
position = "{340, -7}";
},
{
angle = 7;
position = "{575, -10}";
}
);
layerId = "849A9C4C-BF7C-40C5-8614-1FD725A2A379";
paths = (
{
closed = 1;
nodes = (
"724 6 LINE",
"724 744 LINE",
"528 732 LINE",
"409 285 LINE",
"285 749 LINE",
"70 743 LINE",
"70 0 LINE",
"191 6 LINE",
"191 559 LINE",
"342 0 LINE",
"432 0 LINE",
"572 557 LINE",
"572 -6 LINE"
);
}
);
width = 794;
}
);
},
{
glyphname = O.ori;
layers = (
{
background = {
paths = (
{
closed = 1;
nodes = (
"463 -14 OFFCURVE",
"507 192 OFFCURVE",
"507 383 CURVE SMOOTH",
"507 623 OFFCURVE",
"438 764 OFFCURVE",
"274 764 CURVE SMOOTH",
"104 764 OFFCURVE",
"42 613 OFFCURVE",
"42 379 CURVE SMOOTH",
"42 180 OFFCURVE",
"87 -14 OFFCURVE",
"272 -14 CURVE SMOOTH"
);
},
{
closed = 1;
nodes = (
"197 104 OFFCURVE",
"188 223 OFFCURVE",
"188 385 CURVE SMOOTH",
"188 490 OFFCURVE",
"192 646 OFFCURVE",
"274 646 CURVE SMOOTH",
"356 646 OFFCURVE",
"361 490 OFFCURVE",
"361 384 CURVE SMOOTH",
"361 222 OFFCURVE",
"351 104 OFFCURVE",
"274 104 CURVE SMOOTH"
);
}
);
};
layerId = "849A9C4C-BF7C-40C5-8614-1FD725A2A379";
paths = (
{
closed = 1;
nodes = (
"463 -14 OFFCURVE",
"507 192 OFFCURVE",
"507 383 CURVE SMOOTH",
"507 623 OFFCURVE",
"438 764 OFFCURVE",
"274 764 CURVE SMOOTH",
"104 764 OFFCURVE",
"42 613 OFFCURVE",
"42 379 CURVE SMOOTH",
"42 180 OFFCURVE",
"87 -14 OFFCURVE",
"272 -14 CURVE SMOOTH"
);
},
{
closed = 1;
nodes = (
"197 104 OFFCURVE",
"188 223 OFFCURVE",
"188 385 CURVE SMOOTH",
"188 490 OFFCURVE",
"192 646 OFFCURVE",
"274 646 CURVE SMOOTH",
"356 646 OFFCURVE",
"361 490 OFFCURVE",
"361 384 CURVE SMOOTH",
"361 222 OFFCURVE",
"351 104 OFFCURVE",
"274 104 CURVE SMOOTH"
);
}
);
width = 549;
}
);
},
{
glyphname = P.ori;
layers = (
{
layerId = "849A9C4C-BF7C-40C5-8614-1FD725A2A379";
paths = (
{
closed = 1;
nodes = (
"217 6 LINE",
"217 295 LINE",
"350 295 OFFCURVE",
"514 314 OFFCURVE",
"514 525 CURVE SMOOTH",
"514 718 OFFCURVE",
"407 750 OFFCURVE",
"219 750 CURVE SMOOTH",
"70 750 LINE",
"70 -6 LINE"
);
},
{
closed = 1;
nodes = (
"218 633 LINE",
"239 633 LINE SMOOTH",
"321 633 OFFCURVE",
"368 616 OFFCURVE",
"368 526 CURVE SMOOTH",
"368 434 OFFCURVE",
"311 414 OFFCURVE",
"243 414 CURVE SMOOTH",
"218 414 LINE"
);
}
);
width = 533;
}
);
},
{
glyphname = Thorn.ori;
layers = (
{
layerId = "849A9C4C-BF7C-40C5-8614-1FD725A2A379";
paths = (
{
closed = 1;
nodes = (
"215 -33 LINE",
"215 129 LINE",
"348 129 OFFCURVE",
"512 148 OFFCURVE",
"512 350 CURVE SMOOTH",
"512 551 OFFCURVE",
"356 568 OFFCURVE",
"216 570 CURVE",
"216 750 LINE",
"68 750 LINE",
"68 -45 LINE"
);
},
{
closed = 1;
nodes = (
"216 458 LINE",
"237 458 LINE SMOOTH",
"319 458 OFFCURVE",
"366 440 OFFCURVE",
"366 351 CURVE SMOOTH",
"366 259 OFFCURVE",
"309 238 OFFCURVE",
"241 238 CURVE SMOOTH",
"216 238 LINE"
);
}
);
width = 528;
}
);
},
{
glyphname = R.ori;
layers = (
{
background = {
components = (
{
name = P;
}
);
paths = (
{
closed = 1;
nodes = (
"551 26 LINE",
"483 188 LINE SMOOTH",
"450 268 OFFCURVE",
"416 350 OFFCURVE",
"416 351 CURVE",
"480 388 OFFCURVE",
"523 443 OFFCURVE",
"523 541 CURVE SMOOTH",
"523 688 OFFCURVE",
"413 750 OFFCURVE",
"248 750 CURVE",
"70 750 LINE",
"70 -6 LINE",
"216 6 LINE",
"216 329 LINE",
"273 329 LINE",
"407 -13 LINE"
);
},
{
closed = 1;
nodes = (
"216 633 LINE",
"285 633 LINE SMOOTH",
"337 633 OFFCURVE",
"377 610 OFFCURVE",
"377 540 CURVE SMOOTH",
"377 452 OFFCURVE",
"325 437 OFFCURVE",
"266 437 CURVE SMOOTH",
"216 437 LINE"
);
}
);
};
layerId = "849A9C4C-BF7C-40C5-8614-1FD725A2A379";
paths = (
{
closed = 1;
nodes = (
"551 26 LINE",
"483 188 LINE SMOOTH",
"450 268 OFFCURVE",
"416 350 OFFCURVE",
"416 351 CURVE",
"480 388 OFFCURVE",
"523 443 OFFCURVE",
"523 541 CURVE SMOOTH",
"523 688 OFFCURVE",
"413 750 OFFCURVE",
"248 750 CURVE",
"70 750 LINE",
"70 -6 LINE",
"216 6 LINE",
"216 329 LINE",
"273 329 LINE",
"407 -13 LINE"
);
},
{
closed = 1;
nodes = (
"216 633 LINE",
"285 633 LINE SMOOTH",
"337 633 OFFCURVE",
"377 610 OFFCURVE",
"377 540 CURVE SMOOTH",
"377 452 OFFCURVE",
"325 437 OFFCURVE",
"266 437 CURVE SMOOTH",
"216 437 LINE"
);
}
);
width = 565;
}
);
},
{
glyphname = S.ori;
layers = (
{
guideLines = (
{
angle = 150.8712;
position = "{235, 491}";
},
{
angle = 150.8712;
position = "{238, 315}";
},
{
angle = 216.2538;
position = "{59, 170}";
},
{
angle = 216.2538;
position = "{465, 589}";
}
);
layerId = "849A9C4C-BF7C-40C5-8614-1FD725A2A379";
paths = (
{
closed = 1;
nodes = (
"407 -14 OFFCURVE",
"507 86 OFFCURVE",
"507 226 CURVE",
"502 309 OFFCURVE",
"454 374 OFFCURVE",
"366 426 CURVE SMOOTH",
"245 497 LINE SMOOTH",
"220 512 OFFCURVE",
"199 539 OFFCURVE",
"199 571 CURVE SMOOTH",
"199 615 OFFCURVE",
"223 646 OFFCURVE",
"267 646 CURVE SMOOTH",
"328 646 OFFCURVE",
"341 620 OFFCURVE",
"361 557 CURVE",
"485 613 LINE",
"450 713 OFFCURVE",
"377 764 OFFCURVE",
"274 764 CURVE SMOOTH",
"141 764 OFFCURVE",
"42 672 OFFCURVE",
"42 541 CURVE SMOOTH",
"42 460 OFFCURVE",
"92 395 OFFCURVE",
"167 350 CURVE SMOOTH",
"298 272 LINE",
"327 253 OFFCURVE",
"348 221 OFFCURVE",
"348 184 CURVE SMOOTH",
"348 144 OFFCURVE",
"316 104 OFFCURVE",
"281 104 CURVE SMOOTH",
"232 104 OFFCURVE",
"187 130 OFFCURVE",
"147 230 CURVE",
"23 172 LINE",
"62 59 OFFCURVE",
"147 -14 OFFCURVE",
"268 -14 CURVE SMOOTH"
);
}
);
width = 533;
}
);
},
{
glyphname = V.ori;
layers = (
{
background = {
paths = (
{
closed = 1;
nodes = (
"346 0 LINE",
"526 750 LINE",
"385 744 LINE",
"281 232 LINE",
"182 750 LINE",
"8 744 LINE",
"185 0 LINE"
);
}
);
};
guideLines = (
{
angle = 7;
position = "{33, 743}";
}
);
layerId = "849A9C4C-BF7C-40C5-8614-1FD725A2A379";
paths = (
{
closed = 1;
nodes = (
"346 0 LINE",
"526 750 LINE",
"385 744 LINE",
"281 232 LINE",
"182 750 LINE",
"8 744 LINE",
"185 0 LINE"
);
}
);
width = 533;
}
);
},
{
glyphname = W.ori;
layers = (
{
background = {
paths = (
{
closed = 1;
nodes = (
"300 0 LINE",
"381 458 LINE",
"460 0 LINE",
"605 0 LINE",
"766 750 LINE",
"631 744 LINE",
"536 296 LINE",
"457 750 LINE",
"337 744 LINE",
"252 301 LINE",
"173 750 LINE",
"13 744 LINE",
"166 0 LINE"
);
}
);
};
guideLines = (
{
angle = 2.1476;
position = "{93, 747}";
},
{
angle = 2.8624;
position = "{397, 747}";
},
{
angle = 2.5448;
position = "{699, 747}";
},
{
angle = 7;
position = "{-1, 743}";
}
);
layerId = "849A9C4C-BF7C-40C5-8614-1FD725A2A379";
paths = (
{
closed = 1;
nodes = (
"300 0 LINE",
"381 458 LINE",
"460 0 LINE",
"605 0 LINE",
"766 750 LINE",
"631 744 LINE",
"536 296 LINE",
"457 750 LINE",
"337 744 LINE",
"252 301 LINE",
"173 750 LINE",
"13 744 LINE",
"166 0 LINE"
);
}
);
width = 774;
}
);
},
{
glyphname = Ismall;
layers = (
{
layerId = "849A9C4C-BF7C-40C5-8614-1FD725A2A379";
paths = (
{
closed = 1;
nodes = (
"240 54 LINE",
"240 525 LINE",
"99 525 LINE",
"99 54 LINE"
);
},
{
closed = 1;
nodes = (
"328 0 LINE",
"328 105 LINE",
"23 105 LINE",
"10 0 LINE"
);
},
{
closed = 1;
nodes = (
"315 458 LINE",
"328 563 LINE",
"10 563 LINE",
"10 458 LINE"
);
}
);
width = 343;
}
);
unicode = 026A;
},
{
glyphname = a;
layers = (
{
anchors = (
{
name = bottom;
position = "{230, 0}";
},
{
name = ogonek;
position = "{495, -5}";
},
{
name = top;
position = "{235, 563}";
}
);
background = {
paths = (
{
closed = 1;
nodes = (
"133 336 OFFCURVE",
"27 280 OFFCURVE",
"27 148 CURVE SMOOTH",
"27 48 OFFCURVE",
"79 -12 OFFCURVE",
"159 -12 CURVE SMOOTH",
"232 -12 OFFCURVE",
"274 35 OFFCURVE",
"291 92 CURVE",
"275 160 LINE",
"275 124 OFFCURVE",
"253 99 OFFCURVE",
"220 99 CURVE SMOOTH",
"184 99 OFFCURVE",
"166 126 OFFCURVE",
"166 168 CURVE SMOOTH",
"166 222 OFFCURVE",
"206 261 OFFCURVE",
"275 261 CURVE SMOOTH",
"287 261 LINE",
"287 336 LINE",
"275 336 LINE SMOOTH"
);
},
{
closed = 1;
nodes = (
"284 54 OFFCURVE",
"289 28 OFFCURVE",
"299 0 CURVE",
"435 0 LINE",
"420 45 OFFCURVE",
"415 94 OFFCURVE",
"415 148 CURVE SMOOTH",
"415 372 LINE SMOOTH",
"415 498 OFFCURVE",
"356 570 OFFCURVE",
"225 570 CURVE SMOOTH",
"132 570 OFFCURVE",
"58 521 OFFCURVE",
"41 414 CURVE",
"165 387 LINE",
"170 428 OFFCURVE",
"186 463 OFFCURVE",
"221 463 CURVE SMOOTH",
"262 463 OFFCURVE",
"275 428 OFFCURVE",
"275 387 CURVE SMOOTH",
"275 86 LINE",
"284 86 LINE"
);
}
);
};
guideLines = (
{
position = "{44, 471}";
},
{
angle = -12;
position = "{46, 415}";
}
);
layerId = "849A9C4C-BF7C-40C5-8614-1FD725A2A379";
paths = (
{
closed = 1;
nodes = (
"435 0 LINE",
"420 45 OFFCURVE",
"415 94 OFFCURVE",
"415 148 CURVE SMOOTH",
"415 372 LINE SMOOTH",
"415 498 OFFCURVE",
"356 570 OFFCURVE",
"225 570 CURVE SMOOTH",
"132 570 OFFCURVE",
"58 521 OFFCURVE",
"41 414 CURVE",
"165 387 LINE",
"170 428 OFFCURVE",
"186 463 OFFCURVE",
"221 463 CURVE SMOOTH",
"262 463 OFFCURVE",
"275 428 OFFCURVE",
"275 387 CURVE SMOOTH",
"275 86 LINE",
"284 86 LINE",
"284 54 OFFCURVE",
"289 28 OFFCURVE",
"299 0 CURVE"
);
},
{
closed = 1;
nodes = (
"232 -12 OFFCURVE",
"274 35 OFFCURVE",
"291 92 CURVE",
"275 160 LINE",
"275 124 OFFCURVE",
"253 99 OFFCURVE",
"220 99 CURVE SMOOTH",
"184 99 OFFCURVE",
"166 126 OFFCURVE",
"166 168 CURVE SMOOTH",
"166 222 OFFCURVE",
"206 261 OFFCURVE",
"275 261 CURVE SMOOTH",
"287 261 LINE",
"287 336 LINE",
"275 336 LINE SMOOTH",
"133 336 OFFCURVE",
"27 280 OFFCURVE",
"27 148 CURVE SMOOTH",
"27 48 OFFCURVE",
"79 -12 OFFCURVE",
"159 -12 CURVE SMOOTH"
);
}
);
width = 475;
}
);
leftKerningGroup = a;
rightKerningGroup = a;
unicode = 0061;
},
{
glyphname = "alpha-latin";
layers = (
{
layerId = "849A9C4C-BF7C-40C5-8614-1FD725A2A379";
paths = (
{
closed = 1;
nodes = (
"477 -13 OFFCURVE",
"497 -7 OFFCURVE",
"517 0 CURVE",
"506 104 LINE",
"499 102 OFFCURVE",
"493 101 OFFCURVE",
"484 101 CURVE SMOOTH",
"467 101 OFFCURVE",
"456 113 OFFCURVE",
"456 138 CURVE SMOOTH",
"456 572 LINE",
"322 556 LINE",
"322 478 LINE",
"316 478 LINE",
"316 152 LINE",
"327 152 LINE",
"327 43 OFFCURVE",
"366 -13 OFFCURVE",
"449 -13 CURVE SMOOTH"
);
},
{
closed = 1;
nodes = (
"293 -13 OFFCURVE",
"339 54 OFFCURVE",
"339 145 CURVE",
"316 235 LINE",
"316 149 OFFCURVE",
"300 91 OFFCURVE",
"249 91 CURVE SMOOTH",
"199 91 OFFCURVE",
"179 167 OFFCURVE",
"179 279 CURVE SMOOTH",
"179 390 OFFCURVE",
"199 466 OFFCURVE",
"252 466 CURVE SMOOTH",
"300 466 OFFCURVE",
"316 404 OFFCURVE",
"316 320 CURVE",
"339 408 LINE",
"339 488 OFFCURVE",
"305 570 OFFCURVE",
"210 570 CURVE SMOOTH",
"88 570 OFFCURVE",
"36 442 OFFCURVE",
"36 278 CURVE SMOOTH",
"36 98 OFFCURVE",
"88 -13 OFFCURVE",
"203 -13 CURVE SMOOTH"
);
}
);
width = 522;
}
);
leftKerningGroup = o;
unicode = 0251;
},
{
glyphname = aringacute;
layers = (
{
background = {
components = (
{
alignment = -1;
name = acutecomb;
transform = "{1, 0, 0, 1, 227, 165}";
}
);
};
components = (
{
name = a;
},
{
name = ringcomb;
transform = "{1, 0, 0, 1, 220, 0}";
}
);
layerId = "849A9C4C-BF7C-40C5-8614-1FD725A2A379";
paths = (
{
closed = 1;
nodes = (
"450 889 LINE",
"347 984 LINE",
"247 795 LINE",
"279 768 LINE"
);
}
);
width = 480;
}
);
leftKerningGroup = a;
rightKerningGroup = a;
unicode = 01FB;
},
{
glyphname = astroke;
layers = (
{
components = (
{
name = a;
}
);
layerId = "849A9C4C-BF7C-40C5-8614-1FD725A2A379";
paths = (
{
closed = 1;
nodes = (
"307 482 LINE",
"335 675 LINE",
"267 683 LINE",
"238 482 LINE"
);
},
{
closed = 1;
nodes = (
"247 74 LINE",
"178 74 LINE",
"151 -112 LINE",
"219 -120 LINE"
);
}
);
width = 475;
}
);
leftKerningGroup = a;
rightKerningGroup = a;
unicode = 2C65;
},
{
glyphname = ae;
layers = (
{
anchors = (
{
name = bottom;
position = "{356, 0}";
},
{
name = top;
position = "{356, 563}";
}
);
background = {
paths = (
{
closed = 1;
nodes = (
"268 -13 OFFCURVE",
"328 50 OFFCURVE",
"338 134 CURVE",
"310 134 LINE",
"345 24 OFFCURVE",
"399 -13 OFFCURVE",
"489 -13 CURVE SMOOTH",
"589 -13 OFFCURVE",
"653 61 OFFCURVE",
"670 154 CURVE",
"550 179 LINE",
"544 138 OFFCURVE",
"528 93 OFFCURVE",
"486 93 CURVE SMOOTH",
"415 93 OFFCURVE",
"411 194 OFFCURVE",
"411 279 CURVE",
"389 245 LINE",
"671 245 LINE",
"673 274 OFFCURVE",
"674 305 OFFCURVE",
"674 332 CURVE SMOOTH",
"674 466 OFFCURVE",
"616 570 OFFCURVE",
"486 570 CURVE SMOOTH",
"415 570 OFFCURVE",
"359 535 OFFCURVE",
"352 494 CURVE",
"366 494 LINE",
"356 545 OFFCURVE",
"301 570 OFFCURVE",
"240 570 CURVE SMOOTH",
"166 570 OFFCURVE",
"71 538 OFFCURVE",
"55 418 CURVE",
"179 391 LINE",
"185 433 OFFCURVE",
"203 463 OFFCURVE",
"236 463 CURVE SMOOTH",
"276 463 OFFCURVE",
"286 421 OFFCURVE",
"286 383 CURVE SMOOTH",
"286 336 LINE",
"152 336 OFFCURVE",
"26 285 OFFCURVE",
"26 150 CURVE SMOOTH",
"26 45 OFFCURVE",
"91 -13 OFFCURVE",
"193 -13 CURVE SMOOTH"
);
},
{
closed = 1;
nodes = (
"186 98 OFFCURVE",
"165 120 OFFCURVE",
"165 164 CURVE SMOOTH",
"165 231 OFFCURVE",
"217 261 OFFCURVE",
"284 261 CURVE",
"284 172 LINE SMOOTH",
"284 127 OFFCURVE",
"253 98 OFFCURVE",
"220 98 CURVE SMOOTH"
);
},
{
closed = 1;
nodes = (
"410 393 OFFCURVE",
"432 466 OFFCURVE",
"482 466 CURVE SMOOTH",
"536 466 OFFCURVE",
"548 398 OFFCURVE",
"545 290 CURVE",
"567 324 LINE",
"389 324 LINE",
"411 290 LINE"
);
}
);
};
layerId = "849A9C4C-BF7C-40C5-8614-1FD725A2A379";
paths = (
{
closed = 1;
nodes = (
"268 -13 OFFCURVE",
"328 50 OFFCURVE",
"338 134 CURVE",
"310 134 LINE",
"345 24 OFFCURVE",
"399 -13 OFFCURVE",
"489 -13 CURVE SMOOTH",
"589 -13 OFFCURVE",
"653 61 OFFCURVE",
"670 154 CURVE",
"550 179 LINE",
"544 138 OFFCURVE",
"528 93 OFFCURVE",
"486 93 CURVE SMOOTH",
"415 93 OFFCURVE",
"411 194 OFFCURVE",
"411 279 CURVE",
"389 245 LINE",
"671 245 LINE",
"673 274 OFFCURVE",
"674 305 OFFCURVE",
"674 332 CURVE SMOOTH",
"674 466 OFFCURVE",
"616 570 OFFCURVE",
"486 570 CURVE SMOOTH",
"415 570 OFFCURVE",
"359 535 OFFCURVE",
"352 494 CURVE",
"366 494 LINE",
"356 545 OFFCURVE",
"301 570 OFFCURVE",
"240 570 CURVE SMOOTH",
"166 570 OFFCURVE",
"71 538 OFFCURVE",
"55 418 CURVE",
"179 391 LINE",
"185 433 OFFCURVE",
"203 463 OFFCURVE",
"236 463 CURVE SMOOTH",
"276 463 OFFCURVE",
"286 421 OFFCURVE",
"286 383 CURVE SMOOTH",
"286 336 LINE",
"152 336 OFFCURVE",
"26 285 OFFCURVE",
"26 150 CURVE SMOOTH",
"26 45 OFFCURVE",
"91 -13 OFFCURVE",
"193 -13 CURVE SMOOTH"
);
},
{
closed = 1;
nodes = (
"186 98 OFFCURVE",
"165 120 OFFCURVE",
"165 164 CURVE SMOOTH",
"165 231 OFFCURVE",
"217 261 OFFCURVE",
"284 261 CURVE",
"284 172 LINE SMOOTH",
"284 127 OFFCURVE",
"253 98 OFFCURVE",
"220 98 CURVE SMOOTH"
);
},
{
closed = 1;
nodes = (
"536 466 OFFCURVE",
"548 398 OFFCURVE",
"548 290 CURVE",
"567 324 LINE",
"389 324 LINE",
"410 290 LINE",
"410 393 OFFCURVE",
"432 466 OFFCURVE",
"482 466 CURVE SMOOTH"
);
}
);
width = 702;
}
);
leftKerningGroup = small;
rightKerningGroup = round;
unicode = 00E6;
},
{
glyphname = b;
layers = (
{
anchors = (
{
name = bottom;
position = "{259, 0}";
},
{
name = top;
position = "{357, 563}";
}
);
background = {
paths = (
{
closed = 1;
nodes = (
"425 -13 OFFCURVE",
"483 78 OFFCURVE",
"483 281 CURVE SMOOTH",
"483 495 OFFCURVE",
"424 570 OFFCURVE",
"344 570 CURVE SMOOTH",
"286 570 OFFCURVE",
"234 538 OFFCURVE",
"201 491 CURVE",
"201 750 LINE",
"61 732 LINE",
"61 0 LINE",
"170 0 LINE",
"201 70 LINE",
"213 28 OFFCURVE",
"240 -13 OFFCURVE",
"322 -13 CURVE SMOOTH"
);
},
{
closed = 1;
nodes = (
"236 87 OFFCURVE",
"201 117 OFFCURVE",
"201 234 CURVE SMOOTH",
"201 412 LINE",
"214 425 OFFCURVE",
"252 450 OFFCURVE",
"279 450 CURVE SMOOTH",
"331 450 OFFCURVE",
"343 409 OFFCURVE",
"343 281 CURVE SMOOTH",
"343 177 OFFCURVE",
"338 87 OFFCURVE",
"270 87 CURVE SMOOTH"
);
}
);
};
guideLines = (
{
angle = 7;
position = "{126, 751}";
},
{
angle = 7;
position = "{189, 8}";
}
);
layerId = "849A9C4C-BF7C-40C5-8614-1FD725A2A379";
paths = (
{
closed = 1;
nodes = (
"189 0 LINE",
"189 84 LINE",
"201 138 LINE",
"201 760 LINE",
"61 743 LINE",
"61 0 LINE"
);
},
{
closed = 1;
nodes = (
"429 -13 OFFCURVE",
"481 115 OFFCURVE",
"481 279 CURVE SMOOTH",
"481 459 OFFCURVE",
"429 570 OFFCURVE",
"314 570 CURVE SMOOTH",
"224 570 OFFCURVE",
"178 503 OFFCURVE",
"178 412 CURVE",
"201 322 LINE",
"201 408 OFFCURVE",
"217 466 OFFCURVE",
"268 466 CURVE SMOOTH",
"318 466 OFFCURVE",
"338 390 OFFCURVE",
"338 278 CURVE SMOOTH",
"338 167 OFFCURVE",
"318 91 OFFCURVE",
"265 91 CURVE SMOOTH",
"217 91 OFFCURVE",
"201 153 OFFCURVE",
"201 237 CURVE",
"178 149 LINE",
"178 69 OFFCURVE",
"212 -13 OFFCURVE",
"307 -13 CURVE SMOOTH"
);
}
);
width = 516;
}
);
leftKerningGroup = straight;
rightKerningGroup = round;
unicode = 0062;
},
{
glyphname = "beta-latin";
layers = (
{
layerId = "849A9C4C-BF7C-40C5-8614-1FD725A2A379";
paths = (
{
closed = 1;
nodes = (
"201 -156 LINE",
"201 548 LINE SMOOTH",
"201 608 OFFCURVE",
"223 651 OFFCURVE",
"274 651 CURVE SMOOTH",
"320 651 OFFCURVE",
"349 610 OFFCURVE",
"349 552 CURVE SMOOTH",
"349 489 OFFCURVE",
"320 435 OFFCURVE",
"250 428 CURVE",
"250 336 LINE",
"324 318 OFFCURVE",
"380 269 OFFCURVE",
"380 195 CURVE SMOOTH",
"380 135 OFFCURVE",
"345 99 OFFCURVE",
"290 99 CURVE SMOOTH",
"235 99 OFFCURVE",
"201 135 OFFCURVE",
"201 195 CURVE",
"165 195 LINE",
"165 67 OFFCURVE",
"184 -15 OFFCURVE",
"320 -15 CURVE SMOOTH",
"436 -15 OFFCURVE",
"516 67 OFFCURVE",
"516 195 CURVE SMOOTH",
"516 291 OFFCURVE",
"473 348 OFFCURVE",
"397 384 CURVE",
"458 422 OFFCURVE",
"485 489 OFFCURVE",
"485 560 CURVE SMOOTH",
"485 687 OFFCURVE",
"405 766 OFFCURVE",
"274 766 CURVE SMOOTH",
"129 766 OFFCURVE",
"61 675 OFFCURVE",
"61 531 CURVE SMOOTH",
"61 -173 LINE"
);
}
);
width = 537;
}
);
leftKerningGroup = straight;
unicode = A7B5;
},
{
glyphname = bhook;
layers = (
{
layerId = "849A9C4C-BF7C-40C5-8614-1FD725A2A379";
paths = (
{
closed = 1;
nodes = (
"189 0 LINE",
"189 84 LINE",
"201 138 LINE",
"201 583 LINE SMOOTH",
"201 624 OFFCURVE",
"218 644 OFFCURVE",
"253 644 CURVE SMOOTH",
"267 644 OFFCURVE",
"277 642 OFFCURVE",
"288 638 CURVE",
"301 748 LINE",
"278 757 OFFCURVE",
"257 760 OFFCURVE",
"234 760 CURVE SMOOTH",
"127 760 OFFCURVE",
"61 685 OFFCURVE",
"61 587 CURVE SMOOTH",
"61 0 LINE"
);
},
{
closed = 1;
nodes = (
"429 -13 OFFCURVE",
"481 115 OFFCURVE",
"481 279 CURVE SMOOTH",
"481 459 OFFCURVE",
"429 570 OFFCURVE",
"314 570 CURVE SMOOTH",
"224 570 OFFCURVE",
"178 503 OFFCURVE",
"178 412 CURVE",
"201 322 LINE",
"201 408 OFFCURVE",
"217 466 OFFCURVE",
"268 466 CURVE SMOOTH",
"318 466 OFFCURVE",
"338 390 OFFCURVE",
"338 278 CURVE SMOOTH",
"338 167 OFFCURVE",
"318 91 OFFCURVE",
"265 91 CURVE SMOOTH",
"217 91 OFFCURVE",
"201 153 OFFCURVE",
"201 237 CURVE",
"178 149 LINE",
"178 69 OFFCURVE",
"212 -13 OFFCURVE",
"307 -13 CURVE SMOOTH"
);
}
);
width = 516;
}
);
leftKerningGroup = straight;
rightKerningGroup = round;
unicode = 0253;
},
{
glyphname = bilabialclick;
layers = (
{
layerId = "849A9C4C-BF7C-40C5-8614-1FD725A2A379";
paths = (
{
closed = 1;
nodes = (
"451 -14 OFFCURVE",
"522 138 OFFCURVE",
"522 375 CURVE SMOOTH",
"522 612 OFFCURVE",
"451 764 OFFCURVE",
"282 764 CURVE SMOOTH",
"114 764 OFFCURVE",
"42 612 OFFCURVE",
"42 375 CURVE SMOOTH",
"42 138 OFFCURVE",
"114 -14 OFFCURVE",
"282 -14 CURVE SMOOTH"
);
},
{
closed = 1;
nodes = (
"205 105 OFFCURVE",
"187 228 OFFCURVE",
"187 375 CURVE SMOOTH",
"187 522 OFFCURVE",
"205 645 OFFCURVE",
"282 645 CURVE SMOOTH",
"360 645 OFFCURVE",
"377 522 OFFCURVE",
"377 375 CURVE SMOOTH",
"377 228 OFFCURVE",
"360 105 OFFCURVE",
"282 105 CURVE SMOOTH"
);
},
{
closed = 1;
nodes = (
"332 326 LINE",
"332 429 LINE",
"229 429 LINE",
"229 326 LINE"
);
}
);
width = 564;
}
);
leftKerningGroup = round;
rightKerningGroup = round;
unicode = 0298;
},
{
glyphname = bstroke;
layers = (
{
background = {
components = (
{
name = hbar;
transform = "{1, 0, 0, 1, -1, 0}";
}
);
};
components = (
{
name = b;
}
);
layerId = "849A9C4C-BF7C-40C5-8614-1FD725A2A379";
paths = (
{
closed = 1;
nodes = (
"301 603 LINE",
"311 693 LINE",
"-17 693 LINE",
"-17 603 LINE"
);
}
);
width = 516;
}
);
rightKerningGroup = round;
unicode = 0180;
},
{
glyphname = c;
layers = (
{
anchors = (
{
name = bottom;
position = "{274, 0}";
},
{
name = top;
position = "{239, 563}";
}
);
background = {
components = (
{
name = o;
}
);
};
guideLines = (
{
angle = 12;
position = "{438, 379}";
},
{
angle = 90;
position = "{246, 279}";
},
{
angle = 173.7516;
position = "{435, 183}";
},
{
position = "{539, 331}";
},
{
position = "{536, 197}";
}
);
layerId = "849A9C4C-BF7C-40C5-8614-1FD725A2A379";
paths = (
{
closed = 1;
nodes = (
"357 -13 OFFCURVE",
"426 76 OFFCURVE",
"438 182 CURVE",
"310 196 LINE",
"308 154 OFFCURVE",
"294 90 OFFCURVE",
"246 90 CURVE SMOOTH",
"195 90 OFFCURVE",
"177 163 OFFCURVE",
"177 278 CURVE SMOOTH",
"177 378 OFFCURVE",
"189 467 OFFCURVE",
"246 467 CURVE SMOOTH",
"292 467 OFFCURVE",
"304 405 OFFCURVE",
"308 353 CURVE",
"438 379 LINE",
"429 497 OFFCURVE",
"357 570 OFFCURVE",
"246 570 CURVE SMOOTH",
"115 570 OFFCURVE",
"34 457 OFFCURVE",
"34 278 CURVE SMOOTH",
"34 101 OFFCURVE",
"104 -13 OFFCURVE",
"246 -13 CURVE SMOOTH"
);
}
);
width = 465;
}
);
leftKerningGroup = round;
leftMetricsKey = o;
rightKerningGroup = superopen;
unicode = 0063;
},
{
glyphname = "chi-latin";
layers = (
{
layerId = "849A9C4C-BF7C-40C5-8614-1FD725A2A379";
paths = (
{
closed = 1;
nodes = (
"437 -168 OFFCURVE",
"470 -155 OFFCURVE",
"491 -136 CURVE",
"457 -37 LINE",
"451 -41 OFFCURVE",
"443 -46 OFFCURVE",
"430 -46 CURVE SMOOTH",
"418 -46 OFFCURVE",
"410 -40 OFFCURVE",
"404 -24 CURVE SMOOTH",
"292 275 LINE",
"256 275 LINE",
"206 452 LINE SMOOTH",
"183 534 OFFCURVE",
"149 573 OFFCURVE",
"88 573 CURVE SMOOTH",
"52 573 OFFCURVE",
"22 560 OFFCURVE",
"-10 541 CURVE",
"24 442 LINE",
"30 446 OFFCURVE",
"38 451 OFFCURVE",
"51 451 CURVE SMOOTH",
"63 451 OFFCURVE",
"71 445 OFFCURVE",
"77 429 CURVE SMOOTH",
"178 159 LINE",
"216 159 LINE",
"277 -47 LINE SMOOTH",
"301 -128 OFFCURVE",
"334 -168 OFFCURVE",
"405 -168 CURVE SMOOTH"
);
},
{
closed = 1;
nodes = (
"166 -158 LINE",
"254 162 LINE",
"298 162 LINE",
"446 564 LINE",
"312 564 LINE",
"225 259 LINE",
"183 259 LINE",
"33 -158 LINE"
);
}
);
width = 481;
}
);
unicode = AB53;
},
{
glyphname = chook;
layers = (
{
background = {
paths = (
{
closed = 1;
nodes = (
"357 -13 OFFCURVE",
"426 76 OFFCURVE",
"438 182 CURVE",
"310 196 LINE",
"308 154 OFFCURVE",
"294 90 OFFCURVE",
"246 90 CURVE SMOOTH",
"195 90 OFFCURVE",
"177 163 OFFCURVE",
"177 278 CURVE SMOOTH",
"177 378 OFFCURVE",
"189 467 OFFCURVE",
"246 467 CURVE SMOOTH",
"292 467 OFFCURVE",
"304 405 OFFCURVE",
"308 353 CURVE",
"438 379 LINE",
"407 497 OFFCURVE",
"357 570 OFFCURVE",
"246 570 CURVE SMOOTH",
"115 570 OFFCURVE",
"34 457 OFFCURVE",
"34 278 CURVE SMOOTH",
"34 101 OFFCURVE",
"104 -13 OFFCURVE",
"246 -13 CURVE SMOOTH"
);
},
{
closed = 1;
nodes = (
"421 457 OFFCURVE",
"413 511 OFFCURVE",
"413 549 CURVE SMOOTH",
"413 602 OFFCURVE",
"429 621 OFFCURVE",
"458 621 CURVE SMOOTH",
"478 621 OFFCURVE",
"490 613 OFFCURVE",
"507 594 CURVE",
"544 703 LINE",
"529 723 OFFCURVE",
"496 739 OFFCURVE",
"454 739 CURVE SMOOTH",
"366 739 OFFCURVE",
"318 674 OFFCURVE",
"318 598 CURVE SMOOTH",
"318 576 OFFCURVE",
"319 543 OFFCURVE",
"332 518 CURVE",
"438 379 LINE"
);
}
);
};
layerId = "849A9C4C-BF7C-40C5-8614-1FD725A2A379";
paths = (
{
closed = 1;
nodes = (
"357 -13 OFFCURVE",
"426 76 OFFCURVE",
"438 182 CURVE",
"310 196 LINE",
"308 154 OFFCURVE",
"294 90 OFFCURVE",
"246 90 CURVE SMOOTH",
"195 90 OFFCURVE",
"177 163 OFFCURVE",
"177 278 CURVE SMOOTH",
"177 378 OFFCURVE",
"189 467 OFFCURVE",
"246 467 CURVE SMOOTH",
"292 467 OFFCURVE",
"304 405 OFFCURVE",
"308 353 CURVE",
"438 379 LINE",
"426 432 OFFCURVE",
"413 491 OFFCURVE",
"413 543 CURVE SMOOTH",
"413 591 OFFCURVE",
"423 621 OFFCURVE",
"452 621 CURVE SMOOTH",
"464 621 OFFCURVE",
"478 616 OFFCURVE",
"492 602 CURVE",
"529 703 LINE",
"510 723 OFFCURVE",
"483 739 OFFCURVE",
"444 739 CURVE SMOOTH",
"366 739 OFFCURVE",
"308 674 OFFCURVE",
"308 598 CURVE SMOOTH",
"308 556 OFFCURVE",
"315 535 OFFCURVE",
"332 514 CURVE",
"356 538 LINE",
"324 558 OFFCURVE",
"291 570 OFFCURVE",
"246 570 CURVE SMOOTH",
"115 570 OFFCURVE",
"34 457 OFFCURVE",
"34 278 CURVE SMOOTH",
"34 101 OFFCURVE",
"104 -13 OFFCURVE",
"246 -13 CURVE SMOOTH"
);
}
);
width = 509;
}
);
leftKerningGroup = round;
rightKerningGroup = superopen;
unicode = 0188;
},
{
glyphname = cstroke;
layers = (
{
background = {
paths = (
{
closed = 1;
nodes = (
"150 -112 LINE",
"218 -120 LINE",
"334 675 LINE",
"266 683 LINE"
);
},
{
closed = 1;
nodes = (
"357 -13 OFFCURVE",
"426 76 OFFCURVE",
"438 182 CURVE",
"310 196 LINE",
"308 154 OFFCURVE",
"294 90 OFFCURVE",
"246 90 CURVE SMOOTH",
"195 90 OFFCURVE",
"177 163 OFFCURVE",
"177 278 CURVE SMOOTH",
"177 378 OFFCURVE",
"189 467 OFFCURVE",
"246 467 CURVE SMOOTH",
"292 467 OFFCURVE",
"304 405 OFFCURVE",
"308 353 CURVE",
"438 379 LINE",
"429 497 OFFCURVE",
"357 570 OFFCURVE",
"246 570 CURVE SMOOTH",
"115 570 OFFCURVE",
"34 457 OFFCURVE",
"34 278 CURVE SMOOTH",
"34 101 OFFCURVE",
"104 -13 OFFCURVE",
"246 -13 CURVE SMOOTH"
);
}
);
};
layerId = "849A9C4C-BF7C-40C5-8614-1FD725A2A379";
paths = (
{
closed = 1;
nodes = (
"357 -13 OFFCURVE",
"426 76 OFFCURVE",
"438 182 CURVE",
"310 196 LINE",
"308 154 OFFCURVE",
"294 90 OFFCURVE",
"243 90 CURVE SMOOTH",
"185 90 OFFCURVE",
"167 163 OFFCURVE",
"167 278 CURVE SMOOTH",
"167 388 OFFCURVE",
"189 467 OFFCURVE",
"246 467 CURVE SMOOTH",
"292 467 OFFCURVE",
"313 417 OFFCURVE",
"318 355 CURVE",
"438 379 LINE",
"429 497 OFFCURVE",
"357 570 OFFCURVE",
"246 570 CURVE SMOOTH",
"115 570 OFFCURVE",
"34 457 OFFCURVE",
"34 278 CURVE SMOOTH",
"34 101 OFFCURVE",
"104 -13 OFFCURVE",
"246 -13 CURVE SMOOTH"
);
},
{
closed = 1;
nodes = (
"332 675 LINE",
"268 683 LINE",
"152 -112 LINE",
"216 -120 LINE"
);
}
);
width = 465;
}
);
leftKerningGroup = round;
rightKerningGroup = superopen;
unicode = 023C;
},
{
glyphname = d;
layers = (
{
anchors = (
{
name = bottom;
position = "{257, 0}";
},
{
name = center;
position = "{351, 644}";
},
{
name = top;
position = "{182, 524}";
},
{
name = topright;
position = "{490, 750}";
}
);
background = {
paths = (
{
closed = 1;
nodes = (
"278 -13 OFFCURVE",
"305 28 OFFCURVE",
"316 70 CURVE",
"351 -6 LINE",
"457 6 LINE",
"457 750 LINE",
"316 732 LINE",
"316 488 LINE",
"296 534 OFFCURVE",
"248 570 OFFCURVE",
"199 570 CURVE SMOOTH",
"88 570 OFFCURVE",
"34 489 OFFCURVE",
"34 281 CURVE SMOOTH",
"34 78 OFFCURVE",
"93 -13 OFFCURVE",
"196 -13 CURVE SMOOTH"
);
},
{
closed = 1;
nodes = (
"179 87 OFFCURVE",
"175 177 OFFCURVE",
"175 281 CURVE SMOOTH",
"175 385 OFFCURVE",
"179 467 OFFCURVE",
"248 467 CURVE SMOOTH",
"275 467 OFFCURVE",
"298 450 OFFCURVE",
"316 422 CURVE",
"316 234 LINE SMOOTH",
"316 117 OFFCURVE",
"282 87 OFFCURVE",
"248 87 CURVE SMOOTH"
);
},
{
closed = 1;
nodes = (
"275 467 OFFCURVE",
"298 450 OFFCURVE",
"316 422 CURVE",
"316 488 LINE",
"296 534 OFFCURVE",
"248 570 OFFCURVE",
"199 570 CURVE SMOOTH",
"88 570 OFFCURVE",
"34 489 OFFCURVE",
"34 281 CURVE SMOOTH",
"34 78 OFFCURVE",
"93 -13 OFFCURVE",
"196 -13 CURVE SMOOTH",
"278 -13 OFFCURVE",
"305 28 OFFCURVE",
"316 70 CURVE",
"316 234 LINE",
"316 117 OFFCURVE",
"282 87 OFFCURVE",
"248 87 CURVE SMOOTH",
"179 87 OFFCURVE",
"175 177 OFFCURVE",
"175 281 CURVE SMOOTH",
"175 385 OFFCURVE",
"179 467 OFFCURVE",
"248 467 CURVE SMOOTH"
);
}
);
};
guideLines = (
{
angle = 7;
position = "{389, 752}";
}
);
layerId = "849A9C4C-BF7C-40C5-8614-1FD725A2A379";
paths = (
{
closed = 1;
nodes = (
"456 8 LINE",
"456 760 LINE",
"316 743 LINE",
"316 138 LINE",
"328 137 LINE",
"328 -8 LINE"
);
},
{
closed = 1;
nodes = (
"293 -13 OFFCURVE",
"339 54 OFFCURVE",
"339 145 CURVE",
"316 235 LINE",
"316 149 OFFCURVE",
"300 91 OFFCURVE",
"249 91 CURVE SMOOTH",
"199 91 OFFCURVE",
"179 167 OFFCURVE",
"179 279 CURVE SMOOTH",
"179 390 OFFCURVE",
"199 466 OFFCURVE",
"252 466 CURVE SMOOTH",
"300 466 OFFCURVE",
"316 404 OFFCURVE",
"316 320 CURVE",
"339 408 LINE",
"339 488 OFFCURVE",
"305 570 OFFCURVE",
"210 570 CURVE SMOOTH",
"88 570 OFFCURVE",
"36 442 OFFCURVE",
"36 278 CURVE SMOOTH",
"36 98 OFFCURVE",
"88 -13 OFFCURVE",
"203 -13 CURVE SMOOTH"
);
}
);
width = 515;
}
);
leftKerningGroup = round;
rightKerningGroup = straight;
unicode = 0064;
},
{
glyphname = eth;
layers = (
{
background = {
components = (
{
name = o;
transform = "{1, 0, 0, 1, 5, 0}";
}
);
paths = (
{
closed = 1;
nodes = (
"413 -16 OFFCURVE",
"447 194 OFFCURVE",
"447 378 CURVE SMOOTH",
"447 541 OFFCURVE",
"384 766 OFFCURVE",
"219 766 CURVE SMOOTH",
"131 766 OFFCURVE",
"83 752 OFFCURVE",
"-4 680 CURVE",
"49 589 LINE",
"76 614 OFFCURVE",
"142 657 OFFCURVE",
"194 657 CURVE SMOOTH",
"296 657 OFFCURVE",
"302 500 OFFCURVE",
"304 418 CURVE",
"273 441 OFFCURVE",
"229 457 OFFCURVE",
"189 457 CURVE SMOOTH",
"85 457 OFFCURVE",
"21 343 OFFCURVE",
"21 221 CURVE SMOOTH",
"21 101 OFFCURVE",
"106 -16 OFFCURVE",
"230 -16 CURVE SMOOTH"
);
},
{
closed = 1;
nodes = (
"176 112 OFFCURVE",
"162 175 OFFCURVE",
"162 218 CURVE SMOOTH",
"162 276 OFFCURVE",
"181 338 OFFCURVE",
"238 338 CURVE SMOOTH",
"256 338 OFFCURVE",
"272 333 OFFCURVE",
"284 327 CURVE",
"303 317 LINE",
"303 314 OFFCURVE",
"303 312 OFFCURVE",
"304 309 CURVE",
"304 305 OFFCURVE",
"304 300 OFFCURVE",
"304 297 CURVE SMOOTH",
"304 235 OFFCURVE",
"309 112 OFFCURVE",
"236 112 CURVE SMOOTH"
);
}
);
};
guideLines = (
{
angle = 20;
position = "{257, 798}";
},
{
position = "{125, 842}";
showMeasurement = 1;
}
);
layerId = "849A9C4C-BF7C-40C5-8614-1FD725A2A379";
paths = (
{
closed = 1;
nodes = (
"414 -15 OFFCURVE",
"464 138 OFFCURVE",
"464 299 CURVE SMOOTH",
"464 518 OFFCURVE",
"397 662 OFFCURVE",
"247 778 CURVE",
"117 730 LINE",
"247 640 OFFCURVE",
"307 530 OFFCURVE",
"319 451 CURVE",
"326 430 LINE",
"311 508 OFFCURVE",
"277 571 OFFCURVE",
"210 571 CURVE SMOOTH",
"71 571 OFFCURVE",
"36 419 OFFCURVE",
"36 275 CURVE SMOOTH",
"36 114 OFFCURVE",
"96 -15 OFFCURVE",
"253 -15 CURVE SMOOTH"
);
},
{
closed = 1;
nodes = (
"189 90 OFFCURVE",
"179 200 OFFCURVE",
"179 290 CURVE SMOOTH",
"179 377 OFFCURVE",
"196 466 OFFCURVE",
"256 466 CURVE SMOOTH",
"282 466 OFFCURVE",
"300 451 OFFCURVE",
"311 427 CURVE",
"318 389 OFFCURVE",
"322 351 OFFCURVE",
"322 298 CURVE SMOOTH",
"322 189 OFFCURVE",
"316 90 OFFCURVE",
"256 90 CURVE SMOOTH"
);
},
{
closed = 1;
nodes = (
"413 693 LINE",
"388 758 LINE",
"90 644 LINE",
"115 578 LINE"
);
}
);
width = 493;
}
);
leftKerningGroup = round;
leftMetricsKey = d;
rightKerningGroup = ROUND;
unicode = 00F0;
},
{
glyphname = dhook;
layers = (
{
layerId = "849A9C4C-BF7C-40C5-8614-1FD725A2A379";
paths = (
{
closed = 1;
nodes = (
"456 8 LINE",
"456 609 LINE SMOOTH",
"456 634 OFFCURVE",
"467 646 OFFCURVE",
"484 646 CURVE SMOOTH",
"493 646 OFFCURVE",
"499 645 OFFCURVE",
"506 643 CURVE",
"517 747 LINE",
"497 754 OFFCURVE",
"477 760 OFFCURVE",
"449 760 CURVE SMOOTH",
"358 760 OFFCURVE",
"316 710 OFFCURVE",
"316 621 CURVE SMOOTH",
"316 138 LINE",
"328 137 LINE",
"328 -8 LINE"
);
},
{
closed = 1;
nodes = (
"293 -13 OFFCURVE",
"339 54 OFFCURVE",
"339 145 CURVE",
"316 235 LINE",
"316 149 OFFCURVE",
"300 91 OFFCURVE",
"249 91 CURVE SMOOTH",
"199 91 OFFCURVE",
"179 167 OFFCURVE",
"179 279 CURVE SMOOTH",
"179 390 OFFCURVE",
"199 466 OFFCURVE",
"252 466 CURVE SMOOTH",
"300 466 OFFCURVE",
"316 404 OFFCURVE",
"316 320 CURVE",
"339 408 LINE",
"339 488 OFFCURVE",
"305 570 OFFCURVE",
"210 570 CURVE SMOOTH",
"88 570 OFFCURVE",
"36 442 OFFCURVE",
"36 278 CURVE SMOOTH",
"36 98 OFFCURVE",
"88 -13 OFFCURVE",
"203 -13 CURVE SMOOTH"
);
}
);
width = 512;
}
);
unicode = 0257;
},
{
glyphname = dtail;
layers = (
{
layerId = "849A9C4C-BF7C-40C5-8614-1FD725A2A379";
paths = (
{
closed = 1;
nodes = (
"478 -173 OFFCURVE",
"498 -167 OFFCURVE",
"518 -160 CURVE",
"507 -56 LINE",
"500 -58 OFFCURVE",
"494 -59 OFFCURVE",
"485 -59 CURVE SMOOTH",
"468 -59 OFFCURVE",
"456 -47 OFFCURVE",
"456 -22 CURVE SMOOTH",
"456 760 LINE",
"316 743 LINE",
"316 -8 LINE SMOOTH",
"316 -117 OFFCURVE",
"367 -173 OFFCURVE",
"450 -173 CURVE SMOOTH"
);
},
{
closed = 1;
nodes = (
"293 -13 OFFCURVE",
"339 54 OFFCURVE",
"339 145 CURVE",
"316 235 LINE",
"316 149 OFFCURVE",
"300 91 OFFCURVE",
"249 91 CURVE SMOOTH",
"199 91 OFFCURVE",
"179 167 OFFCURVE",
"179 279 CURVE SMOOTH",
"179 390 OFFCURVE",
"199 466 OFFCURVE",
"252 466 CURVE SMOOTH",
"300 466 OFFCURVE",
"316 404 OFFCURVE",
"316 320 CURVE",
"339 408 LINE",
"339 488 OFFCURVE",
"305 570 OFFCURVE",
"210 570 CURVE SMOOTH",
"88 570 OFFCURVE",
"36 442 OFFCURVE",
"36 278 CURVE SMOOTH",
"36 98 OFFCURVE",
"88 -13 OFFCURVE",
"203 -13 CURVE SMOOTH"
);
}
);
width = 506;
}
);
unicode = 0256;
},
{
glyphname = e;
layers = (
{
anchors = (
{
name = bottom;
position = "{271, 0}";
},
{
name = ogonek;
position = "{403, 5}";
},
{
name = top;
position = "{245, 563}";
}
);
background = {
paths = (
{
closed = 1;
nodes = (
"344 -13 OFFCURVE",
"415 50 OFFCURVE",
"434 154 CURVE",
"314 179 LINE",
"308 132 OFFCURVE",
"292 90 OFFCURVE",
"247 90 CURVE SMOOTH",
"178 90 OFFCURVE",
"175 198 OFFCURVE",
"175 279 CURVE",
"153 245 LINE",
"435 245 LINE",
"437 279 OFFCURVE",
"438 304 OFFCURVE",
"438 336 CURVE SMOOTH",
"438 469 OFFCURVE",
"380 570 OFFCURVE",
"244 570 CURVE SMOOTH",
"112 570 OFFCURVE",
"34 448 OFFCURVE",
"34 276 CURVE SMOOTH",
"34 113 OFFCURVE",
"94 -13 OFFCURVE",
"245 -13 CURVE SMOOTH"
);
},
{
closed = 1;
nodes = (
"175 367 OFFCURVE",
"184 469 OFFCURVE",
"247 469 CURVE SMOOTH",
"297 469 OFFCURVE",
"309 400 OFFCURVE",
"309 342 CURVE SMOOTH",
"309 290 LINE",
"331 324 LINE",
"153 324 LINE",
"175 290 LINE"
);
}
);
};
guideLines = (
{
angle = -12;
position = "{314, 177}";
},
{
angle = 173.7516;
position = "{436, 152}";
}
);
layerId = "849A9C4C-BF7C-40C5-8614-1FD725A2A379";
paths = (
{
closed = 1;
nodes = (
"350 -13 OFFCURVE",
"421 50 OFFCURVE",
"440 154 CURVE",
"320 179 LINE",
"314 132 OFFCURVE",
"298 90 OFFCURVE",
"250 90 CURVE SMOOTH",
"182 90 OFFCURVE",
"175 185 OFFCURVE",
"175 245 CURVE SMOOTH",
"175 279 LINE",
"153 245 LINE",
"441 245 LINE",
"443 279 OFFCURVE",
"444 304 OFFCURVE",
"444 336 CURVE SMOOTH",
"444 469 OFFCURVE",
"386 570 OFFCURVE",
"247 570 CURVE SMOOTH",
"112 570 OFFCURVE",
"34 448 OFFCURVE",
"34 276 CURVE SMOOTH",
"34 113 OFFCURVE",
"94 -13 OFFCURVE",
"248 -13 CURVE SMOOTH"
);
},
{
closed = 1;
nodes = (
"175 367 OFFCURVE",
"184 469 OFFCURVE",
"250 469 CURVE SMOOTH",
"303 469 OFFCURVE",
"315 400 OFFCURVE",
"315 342 CURVE SMOOTH",
"315 290 LINE",
"337 324 LINE",
"153 324 LINE",
"175 290 LINE"
);
}
);
width = 468;
}
);
leftKerningGroup = round;
rightKerningGroup = round;
unicode = 0065;
},
{
glyphname = eogonek;
layers = (
{
background = {
paths = (
{
closed = 1;
nodes = (
"219 -15 OFFCURVE",
"178 -55 OFFCURVE",
"178 -106 CURVE SMOOTH",
"178 -171 OFFCURVE",
"224 -210 OFFCURVE",
"289 -210 CURVE SMOOTH",
"346 -210 OFFCURVE",
"381 -181 OFFCURVE",
"411 -137 CURVE",
"373 -103 LINE",
"363 -115 OFFCURVE",
"349 -128 OFFCURVE",
"325 -128 CURVE SMOOTH",
"293 -128 OFFCURVE",
"275 -103 OFFCURVE",
"275 -71 CURVE SMOOTH",
"275 -36 OFFCURVE",
"291 -11 OFFCURVE",
"320 4 CURVE SMOOTH",
"389 38 OFFCURVE",
"414 97 OFFCURVE",
"423 152 CURVE",
"305 177 LINE",
"297 132 OFFCURVE",
"280 90 OFFCURVE",
"240 90 CURVE SMOOTH",
"185 90 OFFCURVE",
"167 162 OFFCURVE",
"165 248 CURVE",
"425 248 LINE",
"427 284 OFFCURVE",
"428 307 OFFCURVE",
"428 336 CURVE SMOOTH",
"428 469 OFFCURVE",
"370 570 OFFCURVE",
"234 570 CURVE SMOOTH",
"102 570 OFFCURVE",
"24 448 OFFCURVE",
"24 276 CURVE SMOOTH",
"24 23 OFFCURVE",
"159 -13 OFFCURVE",
"251 -11 CURVE",
"251 -5 LINE"
);
},
{
closed = 1;
nodes = (
"170 412 OFFCURVE",
"195 464 OFFCURVE",
"236 464 CURVE SMOOTH",
"280 464 OFFCURVE",
"301 416 OFFCURVE",
"301 352 CURVE SMOOTH",
"301 330 LINE",
"167 330 LINE"
);
}
);
};
components = (
{
name = e;
},
{
name = ogonekcomb;
transform = "{1, 0, 0, 1, 294, 50}";
}
);
guideLines = (
{
angle = -78;
position = "{376, -91}";
}
);
layerId = "849A9C4C-BF7C-40C5-8614-1FD725A2A379";
width = 468;
}
);
leftKerningGroup = round;
rightKerningGroup = round;
unicode = 0119;
},
{
glyphname = eopen;
layers = (
{
background = {
anchors = (
{
name = bottom;
position = "{286, 0}";
},
{
name = ogonek;
position = "{414, 5}";
},
{
name = top;
position = "{260, 563}";
}
);
paths = (
{
closed = 1;
nodes = (
"359 -13 OFFCURVE",
"430 50 OFFCURVE",
"449 154 CURVE",
"329 179 LINE",
"323 132 OFFCURVE",
"307 90 OFFCURVE",
"262 90 CURVE SMOOTH",
"193 90 OFFCURVE",
"190 198 OFFCURVE",
"190 279 CURVE",
"168 245 LINE",
"450 245 LINE",
"452 279 OFFCURVE",
"453 304 OFFCURVE",
"453 336 CURVE SMOOTH",
"453 469 OFFCURVE",
"395 570 OFFCURVE",
"259 570 CURVE SMOOTH",
"127 570 OFFCURVE",
"49 448 OFFCURVE",
"49 276 CURVE SMOOTH",
"49 113 OFFCURVE",
"109 -13 OFFCURVE",
"260 -13 CURVE SMOOTH"
);
},
{
closed = 1;
nodes = (
"190 367 OFFCURVE",
"199 469 OFFCURVE",
"262 469 CURVE SMOOTH",
"312 469 OFFCURVE",
"324 400 OFFCURVE",
"324 342 CURVE SMOOTH",
"324 290 LINE",
"346 324 LINE",
"168 324 LINE",
"190 290 LINE"
);
}
);
};
guideLines = (
{
angle = 10.7131;
position = "{381, 391}";
}
);
layerId = "849A9C4C-BF7C-40C5-8614-1FD725A2A379";
paths = (
{
closed = 1;
nodes = (
"357 -13 OFFCURVE",
"439 57 OFFCURVE",
"443 155 CURVE",
"330 179 LINE",
"327 127 OFFCURVE",
"298 90 OFFCURVE",
"245 90 CURVE SMOOTH",
"198 90 OFFCURVE",
"174 119 OFFCURVE",
"174 158 CURVE SMOOTH",
"174 210 OFFCURVE",
"216 241 OFFCURVE",
"303 241 CURVE",
"303 327 LINE",
"222 327 OFFCURVE",
"184 353 OFFCURVE",
"184 401 CURVE SMOOTH",
"184 439 OFFCURVE",
"208 467 OFFCURVE",
"249 467 CURVE SMOOTH",
"296 467 OFFCURVE",
"321 431 OFFCURVE",
"325 380 CURVE",
"438 402 LINE",
"429 504 OFFCURVE",
"356 570 OFFCURVE",
"241 570 CURVE SMOOTH",
"130 570 OFFCURVE",
"44 519 OFFCURVE",
"44 420 CURVE SMOOTH",
"44 349 OFFCURVE",
"88 281 OFFCURVE",
"205 276 CURVE",
"202 297 LINE",
"89 288 OFFCURVE",
"34 228 OFFCURVE",
"34 149 CURVE SMOOTH",
"34 56 OFFCURVE",
"111 -13 OFFCURVE",
"237 -13 CURVE SMOOTH"
);
}
);
width = 470;
}
);
unicode = 025B;
},
{
glyphname = esh;
layers = (
{
layerId = "849A9C4C-BF7C-40C5-8614-1FD725A2A379";
paths = (
{
closed = 1;
nodes = (
"170 -185 OFFCURVE",
"217 -113 OFFCURVE",
"217 -10 CURVE SMOOTH",
"217 607 LINE SMOOTH",
"217 641 OFFCURVE",
"234 656 OFFCURVE",
"264 656 CURVE SMOOTH",
"279 656 OFFCURVE",
"292 654 OFFCURVE",
"311 649 CURVE",
"318 747 LINE",
"293 758 OFFCURVE",
"261 765 OFFCURVE",
"228 765 CURVE SMOOTH",
"124 765 OFFCURVE",
"77 693 OFFCURVE",
"77 590 CURVE SMOOTH",
"77 -27 LINE SMOOTH",
"77 -61 OFFCURVE",
"60 -76 OFFCURVE",
"30 -76 CURVE SMOOTH",
"15 -76 OFFCURVE",
"2 -74 OFFCURVE",
"-17 -69 CURVE",
"-24 -167 LINE",
"1 -178 OFFCURVE",
"33 -185 OFFCURVE",
"66 -185 CURVE SMOOTH"
);
}
);
width = 294;
}
);
unicode = 0283;
},
{
glyphname = estroke;
layers = (
{
components = (
{
name = e;
}
);
layerId = "849A9C4C-BF7C-40C5-8614-1FD725A2A379";
paths = (
{
closed = 1;
nodes = (
"247 49 LINE",
"178 49 LINE",
"154 -112 LINE",
"222 -120 LINE"
);
},
{
closed = 1;
nodes = (
"315 517 LINE",
"338 675 LINE",
"270 683 LINE",
"246 517 LINE"
);
}
);
width = 468;
}
);
leftKerningGroup = round;
rightKerningGroup = round;
unicode = 0247;
},
{
glyphname = eturned;
layers = (
{
layerId = "849A9C4C-BF7C-40C5-8614-1FD725A2A379";
paths = (
{
closed = 1;
nodes = (
"358 -7 OFFCURVE",
"436 115 OFFCURVE",
"436 287 CURVE SMOOTH",
"436 450 OFFCURVE",
"376 576 OFFCURVE",
"222 576 CURVE SMOOTH",
"120 576 OFFCURVE",
"49 513 OFFCURVE",
"30 409 CURVE",
"150 384 LINE",
"156 431 OFFCURVE",
"172 473 OFFCURVE",
"220 473 CURVE SMOOTH",
"288 473 OFFCURVE",
"295 378 OFFCURVE",
"295 318 CURVE SMOOTH",
"295 284 LINE",
"317 318 LINE",
"29 318 LINE",
"27 284 OFFCURVE",
"26 259 OFFCURVE",
"26 227 CURVE SMOOTH",
"26 94 OFFCURVE",
"84 -7 OFFCURVE",
"223 -7 CURVE SMOOTH"
);
},
{
closed = 1;
nodes = (
"167 94 OFFCURVE",
"155 163 OFFCURVE",
"155 221 CURVE SMOOTH",
"155 273 LINE",
"133 239 LINE",
"317 239 LINE",
"295 273 LINE",
"295 196 OFFCURVE",
"286 94 OFFCURVE",
"220 94 CURVE SMOOTH"
);
}
);
width = 470;
}
);
leftKerningGroup = round;
rightKerningGroup = round;
unicode = 01DD;
},
{
glyphname = ezh;
layers = (
{
anchors = (
{
name = bottom;
position = "{235, 0}";
},
{
name = top;
position = "{235, 563}";
}
);
background = {
paths = (
{
closed = 1;
nodes = (
"359 -181 OFFCURVE",
"441 -81 OFFCURVE",
"441 45 CURVE SMOOTH",
"441 155 OFFCURVE",
"376 261 OFFCURVE",
"241 271 CURVE",
"253 209 LINE",
"428 451 LINE",
"428 563 LINE",
"46 563 LINE",
"31 441 LINE",
"337 441 LINE",
"304 496 LINE",
"147 279 LINE",
"147 184 LINE",
"239 184 OFFCURVE",
"304 135 OFFCURVE",
"304 48 CURVE SMOOTH",
"304 -12 OFFCURVE",
"283 -63 OFFCURVE",
"221 -63 CURVE SMOOTH",
"167 -63 OFFCURVE",
"141 -15 OFFCURVE",
"141 90 CURVE",
"10 65 LINE",
"10 -100 OFFCURVE",
"100 -181 OFFCURVE",
"218 -181 CURVE SMOOTH"
);
}
);
};
layerId = "849A9C4C-BF7C-40C5-8614-1FD725A2A379";
paths = (
{
closed = 1;
nodes = (
"359 -175 OFFCURVE",
"441 -81 OFFCURVE",
"441 45 CURVE SMOOTH",
"441 155 OFFCURVE",
"376 261 OFFCURVE",
"241 271 CURVE",
"253 209 LINE",
"428 451 LINE",
"428 563 LINE",
"46 563 LINE",
"33 458 LINE",
"339 458 LINE",
"304 496 LINE",
"147 279 LINE",
"147 184 LINE",
"239 184 OFFCURVE",
"298 135 OFFCURVE",
"298 43 CURVE SMOOTH",
"298 -22 OFFCURVE",
"277 -72 OFFCURVE",
"218 -72 CURVE SMOOTH",
"167 -72 OFFCURVE",
"138 -25 OFFCURVE",
"138 90 CURVE",
"10 65 LINE",
"10 -100 OFFCURVE",
"100 -175 OFFCURVE",
"218 -175 CURVE SMOOTH"
);
}
);
width = 470;
}
);
unicode = 0292;
},
{
glyphname = ezhreversed;
layers = (
{
guideLines = (
{
angle = 82.9422;
position = "{432, 511}";
}
);
layerId = "849A9C4C-BF7C-40C5-8614-1FD725A2A379";
paths = (
{
closed = 1;
nodes = (
"370 -175 OFFCURVE",
"460 -100 OFFCURVE",
"460 65 CURVE",
"333 79 LINE",
"333 -25 OFFCURVE",
"303 -72 OFFCURVE",
"252 -72 CURVE SMOOTH",
"193 -72 OFFCURVE",
"172 -22 OFFCURVE",
"172 43 CURVE SMOOTH",
"172 135 OFFCURVE",
"231 184 OFFCURVE",
"323 184 CURVE",
"323 279 LINE",
"166 496 LINE",
"131 458 LINE",
"425 458 LINE",
"438 563 LINE",
"42 563 LINE",
"42 451 LINE",
"217 209 LINE",
"229 271 LINE",
"94 261 OFFCURVE",
"29 155 OFFCURVE",
"29 45 CURVE SMOOTH",
"29 -81 OFFCURVE",
"111 -175 OFFCURVE",
"252 -175 CURVE SMOOTH"
);
}
);
width = 470;
}
);
unicode = 01B9;
},
{
glyphname = f;
layers = (
{
anchors = (
{
name = bottom;
position = "{164, 0}";
},
{
name = top;
position = "{214, 750}";
}
);
background = {
components = (
{
name = t;
transform = "{1, 0, 0, 1, 4, 0}";
}
);
};
guideLines = (
{
angle = 83;
position = "{10, 460}";
},
{
angle = 97;
position = "{325, 566}";
},
{
angle = 7;
position = "{224, 0}";
}
);
layerId = "849A9C4C-BF7C-40C5-8614-1FD725A2A379";
paths = (
{
closed = 1;
nodes = (
"224 0 LINE",
"224 562 LINE SMOOTH",
"224 621 OFFCURVE",
"237 651 OFFCURVE",
"278 651 CURVE SMOOTH",
"296 651 OFFCURVE",
"311 649 OFFCURVE",
"330 644 CURVE",
"337 742 LINE",
"302 753 OFFCURVE",
"268 760 OFFCURVE",
"225 760 CURVE SMOOTH",
"131 760 OFFCURVE",
"84 688 OFFCURVE",
"84 585 CURVE SMOOTH",
"84 0 LINE"
);
},
{
closed = 1;
nodes = (
"317 458 LINE",
"330 563 LINE",
"19 563 LINE",
"19 458 LINE"
);
}
);
width = 347;
}
);
leftKerningGroup = open;
rightKerningGroup = open;
unicode = 0066;
},
{
glyphname = g;
layers = (
{
anchors = (
{
name = bottom;
position = "{259, 0}";
},
{
name = top;
position = "{255, 563}";
}
);
background = {
paths = (
{
closed = 1;
nodes = (
"387 -182 OFFCURVE",
"490 -128 OFFCURVE",
"490 -8 CURVE SMOOTH",
"490 82 OFFCURVE",
"438 132 OFFCURVE",
"342 140 CURVE SMOOTH",
"230 149 LINE SMOOTH",
"195 152 OFFCURVE",
"176 168 OFFCURVE",
"176 194 CURVE SMOOTH",
"176 216 OFFCURVE",
"199 233 OFFCURVE",
"230 234 CURVE",
"182 261 LINE",
"125 250 OFFCURVE",
"57 213 OFFCURVE",
"57 140 CURVE SMOOTH",
"57 72 OFFCURVE",
"101 34 OFFCURVE",
"180 28 CURVE SMOOTH",
"288 20 LINE SMOOTH",
"332 17 OFFCURVE",
"364 4 OFFCURVE",
"364 -28 CURVE SMOOTH",
"364 -66 OFFCURVE",
"321 -81 OFFCURVE",
"254 -81 CURVE SMOOTH",
"195 -81 OFFCURVE",
"147 -61 OFFCURVE",
"147 -15 CURVE SMOOTH",
"147 24 OFFCURVE",
"173 50 OFFCURVE",
"211 52 CURVE",
"156 62 LINE",
"86 57 OFFCURVE",
"30 17 OFFCURVE",
"30 -51 CURVE SMOOTH",
"30 -141 OFFCURVE",
"107 -182 OFFCURVE",
"244 -182 CURVE SMOOTH"
);
},
{
closed = 1;
nodes = (
"361 215 OFFCURVE",
"459 275 OFFCURVE",
"459 389 CURVE SMOOTH",
"459 501 OFFCURVE",
"361 570 OFFCURVE",
"253 570 CURVE SMOOTH",
"147 570 OFFCURVE",
"47 501 OFFCURVE",
"47 389 CURVE SMOOTH",
"47 275 OFFCURVE",
"147 215 OFFCURVE",
"253 215 CURVE SMOOTH"
);
},
{
closed = 1;
nodes = (
"213 297 OFFCURVE",
"191 335 OFFCURVE",
"191 390 CURVE SMOOTH",
"191 454 OFFCURVE",
"213 489 OFFCURVE",
"253 489 CURVE SMOOTH",
"295 489 OFFCURVE",
"315 454 OFFCURVE",
"315 389 CURVE SMOOTH",
"315 335 OFFCURVE",
"294 297 OFFCURVE",
"253 297 CURVE SMOOTH"
);
},
{
closed = 1;
nodes = (
"410 490 LINE",
"435 521 OFFCURVE",
"475 545 OFFCURVE",
"517 556 CURVE",
"480 670 LINE",
"414 650 OFFCURVE",
"369 571 OFFCURVE",
"369 490 CURVE"
);
}
);
};
guideLines = (
{
angle = 108;
position = "{493, 571}";
}
);
layerId = "849A9C4C-BF7C-40C5-8614-1FD725A2A379";
paths = (
{
closed = 1;
nodes = (
"403 -182 OFFCURVE",
"506 -128 OFFCURVE",
"506 -8 CURVE SMOOTH",
"506 82 OFFCURVE",
"454 132 OFFCURVE",
"358 139 CURVE SMOOTH",
"216 149 LINE SMOOTH",
"181 151 OFFCURVE",
"162 168 OFFCURVE",
"162 194 CURVE SMOOTH",
"162 216 OFFCURVE",
"185 233 OFFCURVE",
"216 234 CURVE",
"168 261 LINE",
"111 250 OFFCURVE",
"43 213 OFFCURVE",
"43 140 CURVE SMOOTH",
"43 72 OFFCURVE",
"87 33 OFFCURVE",
"166 28 CURVE SMOOTH",
"304 20 LINE SMOOTH",
"348 17 OFFCURVE",
"380 4 OFFCURVE",
"380 -28 CURVE SMOOTH",
"380 -66 OFFCURVE",
"337 -81 OFFCURVE",
"260 -81 CURVE SMOOTH",
"181 -81 OFFCURVE",
"133 -61 OFFCURVE",
"133 -15 CURVE SMOOTH",
"133 24 OFFCURVE",
"159 50 OFFCURVE",
"197 52 CURVE",
"142 62 LINE",
"72 57 OFFCURVE",
"16 17 OFFCURVE",
"16 -51 CURVE SMOOTH",
"16 -141 OFFCURVE",
"93 -182 OFFCURVE",
"250 -182 CURVE SMOOTH"
);
},
{
closed = 1;
nodes = (
"362 215 OFFCURVE",
"460 275 OFFCURVE",
"460 389 CURVE SMOOTH",
"460 501 OFFCURVE",
"362 570 OFFCURVE",
"254 570 CURVE SMOOTH",
"148 570 OFFCURVE",
"48 501 OFFCURVE",
"48 389 CURVE SMOOTH",
"48 275 OFFCURVE",
"148 215 OFFCURVE",
"254 215 CURVE SMOOTH"
);
},
{
closed = 1;
nodes = (
"214 297 OFFCURVE",
"192 335 OFFCURVE",
"192 390 CURVE SMOOTH",
"192 454 OFFCURVE",
"214 489 OFFCURVE",
"254 489 CURVE SMOOTH",
"296 489 OFFCURVE",
"316 454 OFFCURVE",
"316 389 CURVE SMOOTH",
"316 335 OFFCURVE",
"295 297 OFFCURVE",
"254 297 CURVE SMOOTH"
);
},
{
closed = 1;
nodes = (
"411 490 LINE",
"436 521 OFFCURVE",
"476 545 OFFCURVE",
"518 556 CURVE",
"481 670 LINE",
"415 650 OFFCURVE",
"370 571 OFFCURVE",
"370 490 CURVE"
);
}
);
width = 515;
}
);
leftKerningGroup = small;
rightKerningGroup = small;
unicode = 0067;
},
{
glyphname = "gamma-latin";
layers = (
{
background = {
components = (
{
name = v;
}
);
};
layerId = "849A9C4C-BF7C-40C5-8614-1FD725A2A379";
paths = (
{
closed = 1;
nodes = (
"371 -185 OFFCURVE",
"440 -101 OFFCURVE",
"440 -8 CURVE SMOOTH",
"440 61 OFFCURVE",
"412 120 OFFCURVE",
"369 194 CURVE SMOOTH",
"154 569 LINE",
"22 553 LINE",
"270 150 LINE SMOOTH",
"307 90 OFFCURVE",
"321 35 OFFCURVE",
"321 -4 CURVE SMOOTH",
"321 -46 OFFCURVE",
"298 -84 OFFCURVE",
"246 -84 CURVE",
"246 -185 LINE"
);
},
{
closed = 1;
nodes = (
"246 -84 LINE",
"194 -84 OFFCURVE",
"171 -46 OFFCURVE",
"171 -4 CURVE SMOOTH",
"171 35 OFFCURVE",
"185 73 OFFCURVE",
"220 140 CURVE SMOOTH",
"443 563 LINE",
"321 563 LINE",
"121 199 LINE SMOOTH",
"71 107 OFFCURVE",
"52 51 OFFCURVE",
"52 -8 CURVE SMOOTH",
"52 -101 OFFCURVE",
"121 -185 OFFCURVE",
"246 -185 CURVE"
);
}
);
width = 465;
}
);
unicode = 0263;
},
{
glyphname = gcommaaccent;
layers = (
{
background = {
paths = (
{
closed = 1;
nodes = (
"362 -175 OFFCURVE",
"514 -138 OFFCURVE",
"514 -10 CURVE SMOOTH",
"514 35 OFFCURVE",
"499 71 OFFCURVE",
"469 97 CURVE SMOOTH",
"440 123 OFFCURVE",
"399 133 OFFCURVE",
"349 137 CURVE SMOOTH",
"216 147 LINE",
"196 150 OFFCURVE",
"181 164 OFFCURVE",
"181 183 CURVE SMOOTH",
"181 200 OFFCURVE",
"183 211 OFFCURVE",
"188 216 CURVE SMOOTH",
"194 221 OFFCURVE",
"204 225 OFFCURVE",
"217 229 CURVE",
"231 229 OFFCURVE",
"250 227 OFFCURVE",
"276 227 CURVE",
"308 223 OFFCURVE",
"336 227 OFFCURVE",
"360 237 CURVE SMOOTH",
"384 249 OFFCURVE",
"405 263 OFFCURVE",
"421 280 CURVE SMOOTH",
"454 315 OFFCURVE",
"470 359 OFFCURVE",
"470 400 CURVE SMOOTH",
"470 417 OFFCURVE",
"465 438 OFFCURVE",
"459 455 CURVE SMOOTH",
"456 464 OFFCURVE",
"453 474 OFFCURVE",
"449 484 CURVE",
"451 485 OFFCURVE",
"454 486 OFFCURVE",
"458 488 CURVE SMOOTH",
"463 490 OFFCURVE",
"469 492 OFFCURVE",
"476 492 CURVE SMOOTH",
"484 492 OFFCURVE",
"500 488 OFFCURVE",
"513 482 CURVE SMOOTH",
"538 473 LINE",
"538 591 LINE",
"532 592 LINE SMOOTH",
"529 593 OFFCURVE",
"526 593 OFFCURVE",
"522 593 CURVE SMOOTH",
"471 593 OFFCURVE",
"421 546 OFFCURVE",
"401 528 CURVE",
"374 546 OFFCURVE",
"331 570 OFFCURVE",
"259 570 CURVE SMOOTH",
"159 570 OFFCURVE",
"52 510 OFFCURVE",
"52 398 CURVE SMOOTH",
"52 347 OFFCURVE",
"75 311 OFFCURVE",
"97 286 CURVE",
"110 272 OFFCURVE",
"125 260 OFFCURVE",
"142 250 CURVE",
"122 240 OFFCURVE",
"104 229 OFFCURVE",
"89 215 CURVE SMOOTH",
"63 193 OFFCURVE",
"36 162 OFFCURVE",
"36 125 CURVE SMOOTH",
"36 98 OFFCURVE",
"57 79 OFFCURVE",
"78 67 CURVE SMOOTH",
"90 60 OFFCURVE",
"104 55 OFFCURVE",
"120 50 CURVE",
"102 43 OFFCURVE",
"85 34 OFFCURVE",
"71 23 CURVE SMOOTH",
"46 5 OFFCURVE",
"21 -22 OFFCURVE",
"21 -60 CURVE SMOOTH",
"21 -127 OFFCURVE",
"104 -175 OFFCURVE",
"257 -175 CURVE SMOOTH"
);
},
{
closed = 1;
nodes = (
"183 -71 OFFCURVE",
"149 -50 OFFCURVE",
"149 -18 CURVE SMOOTH",
"149 16 OFFCURVE",
"172 32 OFFCURVE",
"194 39 CURVE",
"276 39 LINE SMOOTH",
"305 39 OFFCURVE",
"377 35 OFFCURVE",
"377 -8 CURVE SMOOTH",
"377 -47 OFFCURVE",
"341 -71 OFFCURVE",
"274 -71 CURVE SMOOTH"
);
},
{
closed = 1;
nodes = (
"203 307 OFFCURVE",
"193 360 OFFCURVE",
"193 403 CURVE SMOOTH",
"193 440 OFFCURVE",
"213 485 OFFCURVE",
"258 485 CURVE SMOOTH",
"292 485 OFFCURVE",
"321 458 OFFCURVE",
"321 400 CURVE SMOOTH",
"321 340 OFFCURVE",
"297 307 OFFCURVE",
"259 307 CURVE SMOOTH"
);
},
{
closed = 1;
nodes = (
"367 642 LINE",
"367 797 LINE",
"272 797 LINE",
"273 806 OFFCURVE",
"276 813 OFFCURVE",
"281 820 CURVE SMOOTH",
"291 832 OFFCURVE",
"308 844 OFFCURVE",
"343 844 CURVE",
"343 938 LINE",
"316 936 OFFCURVE",
"293 930 OFFCURVE",
"272 920 CURVE SMOOTH",
"237 902 OFFCURVE",
"202 868 OFFCURVE",
"202 797 CURVE SMOOTH",
"202 636 LINE"
);
}
);
};
components = (
{
name = g;
},
{
name = commaturnedabovecomb;
transform = "{1, 0, 0, 1, 256, 0}";
}
);
layerId = "849A9C4C-BF7C-40C5-8614-1FD725A2A379";
width = 515;
}
);
leftKerningGroup = small;
rightKerningGroup = small;
unicode = 0123;
},
{
glyphname = ghook;
layers = (
{
background = {
paths = (
{
closed = 1;
nodes = (
"404 -182 OFFCURVE",
"507 -128 OFFCURVE",
"507 -8 CURVE SMOOTH",
"507 82 OFFCURVE",
"455 132 OFFCURVE",
"359 139 CURVE SMOOTH",
"217 149 LINE SMOOTH",
"182 151 OFFCURVE",
"163 168 OFFCURVE",
"163 194 CURVE SMOOTH",
"163 216 OFFCURVE",
"186 233 OFFCURVE",
"217 234 CURVE",
"169 261 LINE",
"112 250 OFFCURVE",
"44 213 OFFCURVE",
"44 140 CURVE SMOOTH",
"44 72 OFFCURVE",
"88 33 OFFCURVE",
"167 28 CURVE SMOOTH",
"305 20 LINE SMOOTH",
"349 17 OFFCURVE",
"381 4 OFFCURVE",
"381 -28 CURVE SMOOTH",
"381 -66 OFFCURVE",
"338 -81 OFFCURVE",
"261 -81 CURVE SMOOTH",
"182 -81 OFFCURVE",
"134 -61 OFFCURVE",
"134 -15 CURVE SMOOTH",
"134 24 OFFCURVE",
"160 50 OFFCURVE",
"198 52 CURVE",
"143 62 LINE",
"73 57 OFFCURVE",
"17 17 OFFCURVE",
"17 -51 CURVE SMOOTH",
"17 -141 OFFCURVE",
"94 -182 OFFCURVE",
"251 -182 CURVE SMOOTH"
);
},
{
closed = 1;
nodes = (
"363 215 OFFCURVE",
"461 275 OFFCURVE",
"461 389 CURVE SMOOTH",
"461 501 OFFCURVE",
"363 570 OFFCURVE",
"255 570 CURVE SMOOTH",
"149 570 OFFCURVE",
"49 501 OFFCURVE",
"49 389 CURVE SMOOTH",
"49 275 OFFCURVE",
"149 215 OFFCURVE",
"255 215 CURVE SMOOTH"
);
},
{
closed = 1;
nodes = (
"215 297 OFFCURVE",
"193 335 OFFCURVE",
"193 390 CURVE SMOOTH",
"193 454 OFFCURVE",
"215 489 OFFCURVE",
"255 489 CURVE SMOOTH",
"297 489 OFFCURVE",
"317 454 OFFCURVE",
"317 389 CURVE SMOOTH",
"317 335 OFFCURVE",
"296 297 OFFCURVE",
"255 297 CURVE SMOOTH"
);
},
{
closed = 1;
nodes = (
"412 490 LINE",
"437 521 OFFCURVE",
"477 545 OFFCURVE",
"519 556 CURVE",
"482 670 LINE",
"416 650 OFFCURVE",
"371 571 OFFCURVE",
"371 490 CURVE"
);
}
);
};
layerId = "849A9C4C-BF7C-40C5-8614-1FD725A2A379";
paths = (
{
closed = 1;
nodes = (
"403 -182 OFFCURVE",
"506 -128 OFFCURVE",
"506 -8 CURVE SMOOTH",
"506 82 OFFCURVE",
"454 133 OFFCURVE",
"358 139 CURVE SMOOTH",
"216 148 LINE SMOOTH",
"181 150 OFFCURVE",
"162 168 OFFCURVE",
"162 194 CURVE SMOOTH",
"162 216 OFFCURVE",
"185 233 OFFCURVE",
"216 234 CURVE",
"168 261 LINE",
"111 250 OFFCURVE",
"43 213 OFFCURVE",
"43 140 CURVE SMOOTH",
"43 72 OFFCURVE",
"87 31 OFFCURVE",
"166 27 CURVE SMOOTH",
"304 20 LINE SMOOTH",
"348 18 OFFCURVE",
"380 4 OFFCURVE",
"380 -28 CURVE SMOOTH",
"380 -66 OFFCURVE",
"337 -81 OFFCURVE",
"260 -81 CURVE SMOOTH",
"181 -81 OFFCURVE",
"133 -61 OFFCURVE",
"133 -15 CURVE SMOOTH",
"133 24 OFFCURVE",
"159 50 OFFCURVE",
"197 52 CURVE",
"142 62 LINE",
"72 57 OFFCURVE",
"16 17 OFFCURVE",
"16 -51 CURVE SMOOTH",
"16 -141 OFFCURVE",
"93 -182 OFFCURVE",
"250 -182 CURVE SMOOTH"
);
},
{
closed = 1;
nodes = (
"362 215 OFFCURVE",
"460 275 OFFCURVE",
"460 389 CURVE SMOOTH",
"460 422 OFFCURVE",
"456 454 OFFCURVE",
"449 484 CURVE SMOOTH",
"442 512 OFFCURVE",
"439 538 OFFCURVE",
"439 563 CURVE SMOOTH",
"439 597 OFFCURVE",
"449 621 OFFCURVE",
"478 621 CURVE SMOOTH",
"490 621 OFFCURVE",
"504 616 OFFCURVE",
"518 602 CURVE",
"555 703 LINE",
"536 723 OFFCURVE",
"509 739 OFFCURVE",
"470 739 CURVE SMOOTH",
"392 739 OFFCURVE",
"334 674 OFFCURVE",
"334 598 CURVE SMOOTH",
"334 556 OFFCURVE",
"341 535 OFFCURVE",
"358 514 CURVE",
"375 537 LINE",
"340 559 OFFCURVE",
"298 570 OFFCURVE",
"254 570 CURVE SMOOTH",
"148 570 OFFCURVE",
"48 501 OFFCURVE",
"48 389 CURVE SMOOTH",
"48 275 OFFCURVE",
"148 215 OFFCURVE",
"254 215 CURVE SMOOTH"
);
},
{
closed = 1;
nodes = (
"214 297 OFFCURVE",
"192 335 OFFCURVE",
"192 390 CURVE SMOOTH",
"192 454 OFFCURVE",
"214 489 OFFCURVE",
"254 489 CURVE SMOOTH",
"296 489 OFFCURVE",
"316 454 OFFCURVE",
"316 389 CURVE SMOOTH",
"316 335 OFFCURVE",
"295 297 OFFCURVE",
"254 297 CURVE SMOOTH"
);
}
);
width = 503;
}
);
leftKerningGroup = small;
unicode = 0260;
},
{
glyphname = glottalstop;
layers = (
{
layerId = "849A9C4C-BF7C-40C5-8614-1FD725A2A379";
paths = (
{
closed = 1;
nodes = (
"292 16 LINE",
"281 36 OFFCURVE",
"266 73 OFFCURVE",
"266 126 CURVE SMOOTH",
"266 210 OFFCURVE",
"292 247 OFFCURVE",
"353 318 CURVE SMOOTH",
"400 373 OFFCURVE",
"441 461 OFFCURVE",
"441 549 CURVE SMOOTH",
"441 687 OFFCURVE",
"359 764 OFFCURVE",
"223 764 CURVE SMOOTH",
"100 764 OFFCURVE",
"14 685 OFFCURVE",
"14 553 CURVE",
"144 528 LINE",
"144 621 OFFCURVE",
"172 661 OFFCURVE",
"225 661 CURVE SMOOTH",
"278 661 OFFCURVE",
"298 621 OFFCURVE",
"298 566 CURVE SMOOTH",
"298 504 OFFCURVE",
"272 444 OFFCURVE",
"211 372 CURVE SMOOTH",
"150 300 OFFCURVE",
"126 223 OFFCURVE",
"126 138 CURVE SMOOTH",
"126 73 OFFCURVE",
"146 26 OFFCURVE",
"169 -10 CURVE"
);
}
);
width = 454;
}
);
unicode = 0294;
},
{
glyphname = glottalstopreversed;
layers = (
{
layerId = "849A9C4C-BF7C-40C5-8614-1FD725A2A379";
paths = (
{
closed = 1;
nodes = (
"308 26 OFFCURVE",
"328 73 OFFCURVE",
"328 138 CURVE SMOOTH",
"328 223 OFFCURVE",
"304 300 OFFCURVE",
"243 372 CURVE SMOOTH",
"182 444 OFFCURVE",
"156 504 OFFCURVE",
"156 566 CURVE SMOOTH",
"156 621 OFFCURVE",
"176 661 OFFCURVE",
"229 661 CURVE SMOOTH",
"282 661 OFFCURVE",
"310 621 OFFCURVE",
"310 528 CURVE",
"440 553 LINE",
"440 685 OFFCURVE",
"354 764 OFFCURVE",
"231 764 CURVE SMOOTH",
"95 764 OFFCURVE",
"13 687 OFFCURVE",
"13 549 CURVE SMOOTH",
"13 461 OFFCURVE",
"54 373 OFFCURVE",
"101 318 CURVE SMOOTH",
"162 247 OFFCURVE",
"188 210 OFFCURVE",
"188 126 CURVE SMOOTH",
"188 73 OFFCURVE",
"173 36 OFFCURVE",
"162 16 CURVE",
"285 -10 LINE"
);
}
);
width = 454;
}
);
unicode = 0295;
},
{
glyphname = glottalstopsmall;
layers = (
{
layerId = "849A9C4C-BF7C-40C5-8614-1FD725A2A379";
paths = (
{
closed = 1;
nodes = (
"282 14 LINE",
"272 28 OFFCURVE",
"266 52 OFFCURVE",
"266 75 CURVE SMOOTH",
"266 125 OFFCURVE",
"298 162 OFFCURVE",
"341 206 CURVE SMOOTH",
"402 268 OFFCURVE",
"421 325 OFFCURVE",
"421 391 CURVE SMOOTH",
"421 500 OFFCURVE",
"334 573 OFFCURVE",
"219 573 CURVE SMOOTH",
"95 573 OFFCURVE",
"14 502 OFFCURVE",
"14 382 CURVE",
"133 357 LINE",
"138 410 OFFCURVE",
"153 457 OFFCURVE",
"217 457 CURVE SMOOTH",
"258 457 OFFCURVE",
"285 429 OFFCURVE",
"285 381 CURVE SMOOTH",
"285 328 OFFCURVE",
"254 288 OFFCURVE",
"200 234 CURVE SMOOTH",
"157 191 OFFCURVE",
"134 146 OFFCURVE",
"134 79 CURVE SMOOTH",
"134 42 OFFCURVE",
"144 11 OFFCURVE",
"159 -12 CURVE"
);
}
);
width = 434;
}
);
unicode = 0242;
},
{
glyphname = gmacron;
layers = (
{
components = (
{
name = g;
}
);
layerId = "849A9C4C-BF7C-40C5-8614-1FD725A2A379";
paths = (
{
closed = 1;
nodes = (
"339 620 LINE",
"339 714 LINE",
"99 714 LINE",
"99 620 LINE"
);
}
);
width = 477;
}
);
leftKerningGroup = small;
rightKerningGroup = small;
unicode = 1E21;
},
{
glyphname = gstroke;
layers = (
{
components = (
{
name = g;
transform = "{1, 0, 0, 1, 36, 0}";
}
);
layerId = "849A9C4C-BF7C-40C5-8614-1FD725A2A379";
paths = (
{
closed = 1;
nodes = (
"139 -75 LINE",
"139 15 LINE",
"6 15 LINE",
"6 -75 LINE"
);
},
{
closed = 1;
nodes = (
"590 -75 LINE",
"590 15 LINE",
"463 15 LINE",
"463 -75 LINE"
);
}
);
width = 571;
}
);
unicode = 01E5;
},
{
glyphname = h;
layers = (
{
anchors = (
{
name = bottom;
position = "{270, 0}";
},
{
name = center;
position = "{270, 281}";
},
{
name = top;
position = "{129, 750}";
}
);
background = {
paths = (
{
closed = 1;
nodes = (
"201 6 LINE",
"201 412 LINE",
"240 435 OFFCURVE",
"267 450 OFFCURVE",
"293 450 CURVE SMOOTH",
"321 450 OFFCURVE",
"342 429 OFFCURVE",
"342 377 CURVE SMOOTH",
"342 -6 LINE",
"482 6 LINE",
"482 428 LINE SMOOTH",
"482 515 OFFCURVE",
"432 570 OFFCURVE",
"362 570 CURVE SMOOTH",
"314 570 OFFCURVE",
"260 545 OFFCURVE",
"201 491 CURVE",
"201 760 LINE",
"61 742 LINE",
"61 -6 LINE"
);
}
);
};
guideLines = (
{
angle = 7;
position = "{131, 752}";
}
);
layerId = "849A9C4C-BF7C-40C5-8614-1FD725A2A379";
paths = (
{
closed = 1;
nodes = (
"201 0 LINE",
"201 760 LINE",
"61 743 LINE",
"61 0 LINE"
);
},
{
closed = 1;
nodes = (
"475 0 LINE",
"475 404 LINE SMOOTH",
"475 521 OFFCURVE",
"424 573 OFFCURVE",
"345 573 CURVE SMOOTH",
"268 573 OFFCURVE",
"207 526 OFFCURVE",
"191 418 CURVE",
"201 287 LINE",
"201 382 OFFCURVE",
"233 454 OFFCURVE",
"280 454 CURVE SMOOTH",
"329 454 OFFCURVE",
"335 408 OFFCURVE",
"335 348 CURVE SMOOTH",
"335 0 LINE"
);
}
);
width = 532;
}
);
leftKerningGroup = straight;
leftMetricsKey = n;
rightKerningGroup = straight;
rightMetricsKey = n;
unicode = 0068;
},
{
glyphname = hbar;
layers = (
{
components = (
{
name = h;
transform = "{1, 0, 0, 1, 1, 0}";
}
);
guideLines = (
{
angle = 83;
position = "{312, 687}";
}
);
layerId = "849A9C4C-BF7C-40C5-8614-1FD725A2A379";
paths = (
{
closed = 1;
nodes = (
"302 603 LINE",
"312 693 LINE",
"-16 693 LINE",
"-16 603 LINE"
);
}
);
width = 533;
}
);
leftKerningGroup = straight;
rightKerningGroup = straight;
unicode = 0127;
},
{
glyphname = heng;
layers = (
{
layerId = "849A9C4C-BF7C-40C5-8614-1FD725A2A379";
paths = (
{
closed = 1;
nodes = (
"424 -173 OFFCURVE",
"475 -117 OFFCURVE",
"475 -8 CURVE SMOOTH",
"475 404 LINE SMOOTH",
"475 521 OFFCURVE",
"424 573 OFFCURVE",
"345 573 CURVE SMOOTH",
"268 573 OFFCURVE",
"207 526 OFFCURVE",
"191 418 CURVE",
"201 287 LINE",
"201 382 OFFCURVE",
"233 454 OFFCURVE",
"280 454 CURVE SMOOTH",
"329 454 OFFCURVE",
"335 408 OFFCURVE",
"335 348 CURVE SMOOTH",
"335 -22 LINE SMOOTH",
"335 -47 OFFCURVE",
"323 -59 OFFCURVE",
"306 -59 CURVE SMOOTH",
"297 -59 OFFCURVE",
"291 -58 OFFCURVE",
"284 -56 CURVE",
"273 -160 LINE",
"293 -167 OFFCURVE",
"313 -173 OFFCURVE",
"341 -173 CURVE SMOOTH"
);
},
{
closed = 1;
nodes = (
"201 0 LINE",
"201 760 LINE",
"61 743 LINE",
"61 0 LINE"
);
}
);
width = 532;
}
);
leftKerningGroup = straight;
rightKerningGroup = straight;
unicode = A727;
},
{
glyphname = hhook;
layers = (
{
layerId = "849A9C4C-BF7C-40C5-8614-1FD725A2A379";
paths = (
{
closed = 1;
nodes = (
"201 0 LINE",
"201 583 LINE SMOOTH",
"201 624 OFFCURVE",
"218 644 OFFCURVE",
"253 644 CURVE SMOOTH",
"267 644 OFFCURVE",
"277 642 OFFCURVE",
"288 638 CURVE",
"301 748 LINE",
"278 757 OFFCURVE",
"257 760 OFFCURVE",
"234 760 CURVE SMOOTH",
"127 760 OFFCURVE",
"61 685 OFFCURVE",
"61 587 CURVE SMOOTH",
"61 0 LINE"
);
},
{
closed = 1;
nodes = (
"475 0 LINE",
"475 404 LINE SMOOTH",
"475 521 OFFCURVE",
"424 573 OFFCURVE",
"345 573 CURVE SMOOTH",
"268 573 OFFCURVE",
"207 526 OFFCURVE",
"191 418 CURVE",
"201 287 LINE",
"201 382 OFFCURVE",
"233 454 OFFCURVE",
"280 454 CURVE SMOOTH",
"329 454 OFFCURVE",
"335 408 OFFCURVE",
"335 348 CURVE SMOOTH",
"335 0 LINE"
);
}
);
width = 532;
}
);
leftKerningGroup = straight;
rightKerningGroup = straight;
unicode = 0266;
},
{
glyphname = hturned;
layers = (
{
layerId = "849A9C4C-BF7C-40C5-8614-1FD725A2A379";
paths = (
{
closed = 1;
nodes = (
"471 -156 LINE",
"471 563 LINE",
"331 563 LINE",
"331 -173 LINE"
);
},
{
closed = 1;
nodes = (
"264 -10 OFFCURVE",
"325 37 OFFCURVE",
"341 145 CURVE",
"331 276 LINE",
"331 181 OFFCURVE",
"299 109 OFFCURVE",
"252 109 CURVE SMOOTH",
"203 109 OFFCURVE",
"197 155 OFFCURVE",
"197 215 CURVE SMOOTH",
"197 563 LINE",
"57 563 LINE",
"57 159 LINE SMOOTH",
"57 42 OFFCURVE",
"108 -10 OFFCURVE",
"187 -10 CURVE SMOOTH"
);
}
);
width = 532;
}
);
leftKerningGroup = straight;
rightKerningGroup = straight;
unicode = 0265;
},
{
glyphname = i;
layers = (
{
background = {
components = (
{
name = idotless;
transform = "{1, 0, 0, 1, 2, 0}";
}
);
paths = (
{
closed = 1;
nodes = (
"205 632 LINE",
"205 760 LINE",
"61 760 LINE",
"61 632 LINE"
);
}
);
};
guideLines = (
{
position = "{244, 566}";
},
{
angle = 7;
position = "{133, 560}";
},
{
angle = 270;
position = "{203, 638}";
},
{
angle = 270;
position = "{63, 625}";
}
);
layerId = "849A9C4C-BF7C-40C5-8614-1FD725A2A379";
paths = (
{
closed = 1;
nodes = (
"201 0 LINE",
"201 567 LINE",
"61 550 LINE",
"61 0 LINE"
);
},
{
closed = 1;
nodes = (
"196 615 LINE",
"196 748 LINE",
"66 748 LINE",
"66 615 LINE"
);
}
);
width = 262;
}
);
leftKerningGroup = straight;
rightKerningGroup = straight;
unicode = 0069;
},
{
glyphname = idotless;
layers = (
{
anchors = (
{
name = bottom;
position = "{131, 0}";
},
{
name = ogonek;
position = "{225, 5}";
},
{
name = top;
position = "{131, 561}";
}
);
guideLines = (
{
angle = 7;
position = "{111, 560}";
}
);
layerId = "849A9C4C-BF7C-40C5-8614-1FD725A2A379";
paths = (
{
closed = 1;
nodes = (
"201 0 LINE",
"201 567 LINE",
"61 550 LINE",
"61 0 LINE"
);
}
);
width = 262;
}
);
leftKerningGroup = straight;
rightKerningGroup = straight;
unicode = 0131;
userData = {
com.fontlab.hintData = {
vhints = (
{
position = 124;
width = 288;
}
);
};
};
},
{
glyphname = idieresisacute;
layers = (
{
components = (
{
name = idotless;
},
{
name = dieresiscomb;
transform = "{1, 0, 0, 1, 132, -2}";
}
);
layerId = "849A9C4C-BF7C-40C5-8614-1FD725A2A379";
paths = (
{
closed = 1;
nodes = (
"259 864 LINE",
"195 988 LINE",
"5 848 LINE",
"37 783 LINE"
);
}
);
width = 262;
}
);
leftKerningGroup = accenti;
rightKerningGroup = accenti;
unicode = 1E2F;
},
{
glyphname = "iota-latin";
layers = (
{
layerId = "849A9C4C-BF7C-40C5-8614-1FD725A2A379";
paths = (
{
closed = 1;
nodes = (
"223 -11 OFFCURVE",
"243 -5 OFFCURVE",
"263 2 CURVE",
"252 106 LINE",
"245 104 OFFCURVE",
"239 103 OFFCURVE",
"230 103 CURVE SMOOTH",
"213 103 OFFCURVE",
"201 115 OFFCURVE",
"201 140 CURVE SMOOTH",
"201 567 LINE",
"61 550 LINE",
"61 154 LINE SMOOTH",
"61 45 OFFCURVE",
"112 -11 OFFCURVE",
"195 -11 CURVE SMOOTH"
);
}
);
width = 262;
}
);
leftKerningGroup = straight;
unicode = 0269;
},
{
glyphname = istroke;
layers = (
{
components = (
{
name = idotless;
transform = "{1, 0, 0, 1, 7, 0}";
},
{
name = dotaccentcomb;
transform = "{1, 0, 0, 1, 138, -2}";
}
);
layerId = "849A9C4C-BF7C-40C5-8614-1FD725A2A379";
paths = (
{
closed = 1;
nodes = (
"261 251 LINE",
"271 341 LINE",
"10 341 LINE",
"10 251 LINE"
);
}
);
width = 281;
}
);
leftKerningGroup = straight;
rightKerningGroup = straight;
unicode = 0268;
},
{
glyphname = j;
layers = (
{
background = {
paths = (
{
closed = 1;
nodes = (
"154 -168 OFFCURVE",
"210 -93 OFFCURVE",
"210 5 CURVE SMOOTH",
"210 566 LINE",
"70 549 LINE",
"70 33 LINE SMOOTH",
"70 -25 OFFCURVE",
"59 -52 OFFCURVE",
"18 -52 CURVE SMOOTH",
"4 -52 OFFCURVE",
"-6 -50 OFFCURVE",
"-17 -46 CURVE",
"-30 -154 LINE",
"1 -164 OFFCURVE",
"29 -168 OFFCURVE",
"59 -168 CURVE SMOOTH"
);
},
{
closed = 1;
nodes = (
"212 632 LINE",
"212 761 LINE",
"67 761 LINE",
"67 632 LINE"
);
}
);
};
guideLines = (
{
angle = 270;
position = "{209, 638}";
},
{
angle = 270;
position = "{70, 625}";
},
{
angle = 7;
position = "{210, 566}";
},
{
angle = 83;
position = "{-30, -154}";
}
);
layerId = "849A9C4C-BF7C-40C5-8614-1FD725A2A379";
paths = (
{
closed = 1;
nodes = (
"172 -168 OFFCURVE",
"228 -93 OFFCURVE",
"228 5 CURVE SMOOTH",
"228 566 LINE",
"88 553 LINE",
"88 34 LINE SMOOTH",
"88 -29 OFFCURVE",
"77 -56 OFFCURVE",
"34 -56 CURVE SMOOTH",
"22 -56 OFFCURVE",
"12 -54 OFFCURVE",
"1 -50 CURVE",
"-12 -154 LINE",
"19 -164 OFFCURVE",
"47 -168 OFFCURVE",
"81 -168 CURVE SMOOTH"
);
},
{
closed = 1;
nodes = (
"223 617 LINE",
"223 750 LINE",
"93 750 LINE",
"93 617 LINE"
);
}
);
width = 286;
}
);
leftKerningGroup = open;
rightKerningGroup = straight;
unicode = 006A;
},
{
glyphname = jdotless;
layers = (
{
anchors = (
{
name = bottom;
position = "{158, 0}";
},
{
name = top;
position = "{158, 563}";
}
);
layerId = "849A9C4C-BF7C-40C5-8614-1FD725A2A379";
paths = (
{
closed = 1;
nodes = (
"172 -168 OFFCURVE",
"228 -93 OFFCURVE",
"228 5 CURVE SMOOTH",
"228 566 LINE",
"88 553 LINE",
"88 34 LINE SMOOTH",
"88 -29 OFFCURVE",
"77 -56 OFFCURVE",
"34 -56 CURVE SMOOTH",
"22 -56 OFFCURVE",
"12 -54 OFFCURVE",
"1 -50 CURVE",
"-12 -154 LINE",
"19 -164 OFFCURVE",
"47 -168 OFFCURVE",
"81 -168 CURVE SMOOTH"
);
}
);
width = 286;
}
);
leftKerningGroup = open;
rightKerningGroup = straight;
unicode = 0237;
},
{
glyphname = jcrossedtail;
layers = (
{
layerId = "849A9C4C-BF7C-40C5-8614-1FD725A2A379";
paths = (
{
closed = 1;
nodes = (
"270 -168 OFFCURVE",
"326 -93 OFFCURVE",
"326 5 CURVE SMOOTH",
"326 566 LINE",
"186 553 LINE",
"186 4 LINE SMOOTH",
"186 -39 OFFCURVE",
"172 -57 OFFCURVE",
"150 -57 CURVE SMOOTH",
"126 -57 OFFCURVE",
"112 -30 OFFCURVE",
"112 25 CURVE SMOOTH",
"112 88 OFFCURVE",
"154 139 OFFCURVE",
"213 139 CURVE",
"213 255 LINE",
"75 255 OFFCURVE",
"-10 151 OFFCURVE",
"-10 25 CURVE SMOOTH",
"-10 -93 OFFCURVE",
"39 -168 OFFCURVE",
"157 -168 CURVE SMOOTH"
);
},
{
closed = 1;
nodes = (
"386 236 LINE",
"352 251 OFFCURVE",
"324 255 OFFCURVE",
"284 255 CURVE",
"315 138 LINE",
"337 138 OFFCURVE",
"352 134 OFFCURVE",
"371 124 CURVE"
);
},
{
closed = 1;
nodes = (
"321 617 LINE",
"321 750 LINE",
"191 750 LINE",
"191 617 LINE"
);
}
);
width = 386;
}
);
unicode = 029D;
},
{
glyphname = jstroke;
layers = (
{
components = (
{
name = jdotless;
},
{
name = dotaccentcomb;
transform = "{1, 0, 0, 1, 159, 0}";
}
);
layerId = "849A9C4C-BF7C-40C5-8614-1FD725A2A379";
paths = (
{
closed = 1;
nodes = (
"279 251 LINE",
"289 341 LINE",
"28 341 LINE",
"28 251 LINE"
);
}
);
width = 270;
}
);
unicode = 0249;
},
{
glyphname = k;
layers = (
{
anchors = (
{
name = bottom;
position = "{269, 0}";
},
{
name = top;
position = "{131, 750}";
}
);
layerId = "849A9C4C-BF7C-40C5-8614-1FD725A2A379";
paths = (
{
closed = 1;
nodes = (
"299 314 LINE",
"312 306 LINE",
"474 563 LINE",
"333 563 LINE",
"185 325 LINE",
"196 158 LINE"
);
},
{
closed = 1;
nodes = (
"201 0 LINE",
"201 760 LINE",
"61 743 LINE",
"61 0 LINE"
);
},
{
closed = 1;
nodes = (
"485 25 LINE",
"328 373 LINE",
"237 265 LINE",
"361 -16 LINE"
);
}
);
width = 489;
}
);
leftKerningGroup = straight;
rightKerningGroup = void;
unicode = 006B;
},
{
glyphname = kgreenlandic;
layers = (
{
layerId = "849A9C4C-BF7C-40C5-8614-1FD725A2A379";
paths = (
{
closed = 1;
nodes = (
"201 0 LINE",
"201 131 LINE",
"266 241 LINE",
"300 221 LINE",
"472 536 LINE",
"359 581 LINE",
"201 292 LINE",
"201 563 LINE",
"61 563 LINE",
"61 0 LINE"
);
},
{
closed = 1;
nodes = (
"493 29 LINE",
"339 356 LINE",
"232 281 LINE",
"367 -16 LINE"
);
}
);
width = 497;
}
);
leftKerningGroup = straight;
rightKerningGroup = void;
unicode = 0138;
},
{
glyphname = khook;
layers = (
{
layerId = "849A9C4C-BF7C-40C5-8614-1FD725A2A379";
paths = (
{
closed = 1;
nodes = (
"201 0 LINE",
"201 583 LINE SMOOTH",
"201 624 OFFCURVE",
"218 644 OFFCURVE",
"253 644 CURVE SMOOTH",
"267 644 OFFCURVE",
"277 642 OFFCURVE",
"288 638 CURVE",
"301 748 LINE",
"278 757 OFFCURVE",
"257 760 OFFCURVE",
"234 760 CURVE SMOOTH",
"127 760 OFFCURVE",
"61 685 OFFCURVE",
"61 587 CURVE SMOOTH",
"61 0 LINE"
);
},
{
closed = 1;
nodes = (
"485 25 LINE",
"328 373 LINE",
"237 265 LINE",
"361 -16 LINE"
);
},
{
closed = 1;
nodes = (
"299 314 LINE",
"312 306 LINE",
"474 563 LINE",
"333 563 LINE",
"185 325 LINE",
"196 158 LINE"
);
}
);
width = 489;
}
);
leftKerningGroup = straight;
rightKerningGroup = void;
unicode = 0199;
},
{
glyphname = kstroke;
layers = (
{
components = (
{
name = k;
}
);
layerId = "849A9C4C-BF7C-40C5-8614-1FD725A2A379";
paths = (
{
closed = 1;
nodes = (
"301 593 LINE",
"311 683 LINE",
"-17 683 LINE",
"-17 593 LINE"
);
}
);
width = 489;
}
);
leftKerningGroup = straight;
rightKerningGroup = void;
unicode = A741;
},
{
glyphname = l;
layers = (
{
anchors = (
{
name = bottom;
position = "{131, 0}";
},
{
name = center;
position = "{311, 402}";
},
{
name = top;
position = "{131, 753}";
},
{
name = topright;
position = "{238, 750}";
}
);
background = {
paths = (
{
closed = 1;
nodes = (
"202 6 LINE",
"202 750 LINE",
"62 732 LINE",
"62 -6 LINE"
);
}
);
};
layerId = "849A9C4C-BF7C-40C5-8614-1FD725A2A379";
paths = (
{
closed = 1;
nodes = (
"202 6 LINE",
"202 765 LINE",
"62 748 LINE",
"62 -6 LINE"
);
}
);
width = 263;
}
);
leftKerningGroup = straight;
rightKerningGroup = straight;
unicode = 006C;
},
{
glyphname = lambdastroke;
layers = (
{
layerId = "849A9C4C-BF7C-40C5-8614-1FD725A2A379";
paths = (
{
closed = 1;
nodes = (
"453 -10 OFFCURVE",
"479 0 OFFCURVE",
"507 19 CURVE",
"470 120 LINE",
"456 108 OFFCURVE",
"444 102 OFFCURVE",
"431 102 CURVE SMOOTH",
"406 102 OFFCURVE",
"396 112 OFFCURVE",
"390 135 CURVE SMOOTH",
"283 575 LINE SMOOTH",
"256 688 OFFCURVE",
"192 759 OFFCURVE",
"80 759 CURVE SMOOTH",
"45 759 OFFCURVE",
"26 756 OFFCURVE",
"0 746 CURVE",
"24 633 LINE",
"39 640 OFFCURVE",
"52 642 OFFCURVE",
"68 642 CURVE SMOOTH",
"117 642 OFFCURVE",
"151 604 OFFCURVE",
"151 556 CURVE",
"4 10 LINE",
"145 -9 LINE",
"204 304 LINE SMOOTH",
"211 339 OFFCURVE",
"217 369 OFFCURVE",
"219 395 CURVE",
"221 369 OFFCURVE",
"227 338 OFFCURVE",
"234 305 CURVE SMOOTH",
"265 154 LINE SMOOTH",
"287 48 OFFCURVE",
"334 -10 OFFCURVE",
"423 -10 CURVE SMOOTH"
);
},
{
closed = 1;
nodes = (
"357 627 LINE",
"332 692 LINE",
"34 578 LINE",
"59 512 LINE"
);
}
);
width = 495;
}
);
unicode = 019B;
},
{
glyphname = lbar;
layers = (
{
components = (
{
name = l;
}
);
layerId = "849A9C4C-BF7C-40C5-8614-1FD725A2A379";
paths = (
{
closed = 1;
nodes = (
"257 332 LINE",
"267 422 LINE",
"6 422 LINE",
"6 332 LINE"
);
}
);
width = 263;
}
);
unicode = 019A;
},
{
glyphname = lbelt;
layers = (
{
components = (
{
name = l;
transform = "{1, 0, 0, 1, 88, 0}";
}
);
layerId = "849A9C4C-BF7C-40C5-8614-1FD725A2A379";
paths = (
{
closed = 1;
nodes = (
"339 263 LINE",
"349 353 LINE",
"136 353 LINE SMOOTH",
"100 353 OFFCURVE",
"89 371 OFFCURVE",
"89 393 CURVE SMOOTH",
"89 414 OFFCURVE",
"100 433 OFFCURVE",
"136 433 CURVE SMOOTH",
"203 433 LINE",
"203 523 LINE",
"132 523 LINE SMOOTH",
"61 523 OFFCURVE",
"0 472 OFFCURVE",
"0 392 CURVE SMOOTH",
"0 315 OFFCURVE",
"61 263 OFFCURVE",
"132 263 CURVE SMOOTH"
);
}
);
width = 335;
}
);
unicode = 026C;
},
{
glyphname = ldoublebar;
layers = (
{
components = (
{
name = l;
}
);
layerId = "849A9C4C-BF7C-40C5-8614-1FD725A2A379";
paths = (
{
closed = 1;
nodes = (
"255 412 LINE",
"265 502 LINE",
"4 502 LINE",
"4 412 LINE"
);
},
{
closed = 1;
nodes = (
"255 252 LINE",
"265 342 LINE",
"4 342 LINE",
"4 252 LINE"
);
}
);
width = 263;
}
);
unicode = 2C61;
},
{
glyphname = lslash;
layers = (
{
components = (
{
name = l;
transform = "{1, 0, 0, 1, 23, 0}";
}
);
layerId = "849A9C4C-BF7C-40C5-8614-1FD725A2A379";
paths = (
{
closed = 1;
nodes = (
"308 439 LINE",
"289 552 LINE",
"0 333 LINE",
"19 220 LINE"
);
}
);
width = 312;
}
);
leftKerningGroup = straight;
rightKerningGroup = straight;
unicode = 0142;
},
{
glyphname = m;
layers = (
{
anchors = (
{
name = bottom;
position = "{380, 0}";
},
{
name = top;
position = "{384, 563}";
}
);
background = {
components = (
{
name = n;
}
);
};
guideLines = (
{
position = "{195, 456}";
},
{
position = "{191, 339}";
},
{
angle = 180;
position = "{390, 447}";
},
{
angle = 7;
position = "{195, 564}";
}
);
layerId = "849A9C4C-BF7C-40C5-8614-1FD725A2A379";
paths = (
{
closed = 1;
nodes = (
"201 0 LINE",
"201 390 LINE",
"195 437 LINE",
"195 564 LINE",
"61 547 LINE",
"61 0 LINE"
);
},
{
closed = 1;
nodes = (
"445 0 LINE",
"445 421 LINE",
"445 495 OFFCURVE",
"408 570 OFFCURVE",
"332 570 CURVE SMOOTH",
"263 570 OFFCURVE",
"215 517 OFFCURVE",
"195 437 CURVE",
"201 323 LINE",
"201 374 OFFCURVE",
"230 447 OFFCURVE",
"269 447 CURVE SMOOTH",
"300 447 OFFCURVE",
"313 418 OFFCURVE",
"313 366 CURVE SMOOTH",
"313 0 LINE"
);
},
{
closed = 1;
nodes = (
"687 0 LINE",
"687 410 LINE SMOOTH",
"687 503 OFFCURVE",
"662 570 OFFCURVE",
"573 570 CURVE SMOOTH",
"500 570 OFFCURVE",
"452 513 OFFCURVE",
"432 431 CURVE",
"445 334 LINE",
"445 393 OFFCURVE",
"472 447 OFFCURVE",
"507 447 CURVE SMOOTH",
"544 447 OFFCURVE",
"555 414 OFFCURVE",
"555 367 CURVE SMOOTH",
"555 0 LINE"
);
}
);
width = 743;
}
);
leftKerningGroup = straight;
leftMetricsKey = n;
rightKerningGroup = straight;
unicode = 006D;
},
{
glyphname = mturned;
layers = (
{
layerId = "849A9C4C-BF7C-40C5-8614-1FD725A2A379";
paths = (
{
closed = 1;
nodes = (
"243 -7 OFFCURVE",
"291 50 OFFCURVE",
"311 132 CURVE",
"298 229 LINE",
"298 170 OFFCURVE",
"271 116 OFFCURVE",
"236 116 CURVE SMOOTH",
"199 116 OFFCURVE",
"188 149 OFFCURVE",
"188 196 CURVE SMOOTH",
"188 563 LINE",
"56 563 LINE",
"56 153 LINE SMOOTH",
"56 60 OFFCURVE",
"81 -7 OFFCURVE",
"170 -7 CURVE SMOOTH"
);
},
{
closed = 1;
nodes = (
"480 -7 OFFCURVE",
"528 46 OFFCURVE",
"548 126 CURVE",
"542 240 LINE",
"542 189 OFFCURVE",
"513 116 OFFCURVE",
"474 116 CURVE SMOOTH",
"443 116 OFFCURVE",
"430 145 OFFCURVE",
"430 197 CURVE SMOOTH",
"430 563 LINE",
"298 563 LINE",
"298 142 LINE",
"298 68 OFFCURVE",
"335 -7 OFFCURVE",
"411 -7 CURVE SMOOTH"
);
},
{
closed = 1;
nodes = (
"682 16 LINE",
"682 563 LINE",
"542 563 LINE",
"542 173 LINE",
"548 126 LINE",
"548 -1 LINE"
);
}
);
width = 743;
}
);
leftKerningGroup = straight;
rightKerningGroup = straight;
unicode = 026F;
},
{
glyphname = n;
layers = (
{
anchors = (
{
name = bottom;
position = "{270, 0}";
},
{
name = top;
position = "{270, 563}";
}
);
background = {
paths = (
{
closed = 1;
nodes = (
"195 390 LINE",
"195 564 LINE",
"61 547 LINE",
"61 0 LINE",
"201 0 LINE",
"201 390 LINE"
);
},
{
closed = 1;
nodes = (
"201 0 LINE",
"201 390 LINE",
"195 390 LINE",
"195 564 LINE",
"61 547 LINE",
"61 0 LINE"
);
},
{
closed = 1;
nodes = (
"475 0 LINE",
"475 404 LINE SMOOTH",
"475 521 OFFCURVE",
"424 573 OFFCURVE",
"345 573 CURVE SMOOTH",
"268 573 OFFCURVE",
"207 526 OFFCURVE",
"191 418 CURVE",
"201 287 LINE",
"201 382 OFFCURVE",
"233 454 OFFCURVE",
"280 454 CURVE SMOOTH",
"329 454 OFFCURVE",
"335 408 OFFCURVE",
"335 348 CURVE SMOOTH",
"335 0 LINE"
);
}
);
};
guideLines = (
{
angle = 7;
position = "{195, 552}";
},
{
angle = -83;
position = "{261, 615}";
showMeasurement = 1;
}
);
layerId = "849A9C4C-BF7C-40C5-8614-1FD725A2A379";
paths = (
{
closed = 1;
nodes = (
"201 0 LINE",
"201 390 LINE",
"195 390 LINE",
"195 564 LINE",
"61 547 LINE",
"61 0 LINE"
);
},
{
closed = 1;
nodes = (
"475 0 LINE",
"475 404 LINE SMOOTH",
"475 521 OFFCURVE",
"424 573 OFFCURVE",
"345 573 CURVE SMOOTH",
"257 573 OFFCURVE",
"202 512 OFFCURVE",
"186 404 CURVE",
"201 287 LINE",
"201 382 OFFCURVE",
"233 454 OFFCURVE",
"280 454 CURVE SMOOTH",
"329 454 OFFCURVE",
"335 408 OFFCURVE",
"335 348 CURVE SMOOTH",
"335 0 LINE"
);
}
);
width = 532;
}
);
leftKerningGroup = straight;
rightKerningGroup = straight;
unicode = 006E;
},
{
glyphname = napostrophe;
layers = (
{
components = (
{
name = n;
transform = "{1, 0, 0, 1, 114, 0}";
}
);
layerId = "849A9C4C-BF7C-40C5-8614-1FD725A2A379";
paths = (
{
closed = 1;
nodes = (
"88 482 OFFCURVE",
"126 537 OFFCURVE",
"126 601 CURVE SMOOTH",
"126 750 LINE",
"-10 750 LINE",
"-10 599 LINE",
"57 599 LINE",
"57 562 OFFCURVE",
"40 536 OFFCURVE",
"9 524 CURVE",
"35 461 LINE"
);
}
);
width = 646;
}
);
leftKerningGroup = straight;
rightKerningGroup = straight;
unicode = 0149;
},
{
glyphname = eng;
layers = (
{
background = {
paths = (
{
closed = 1;
nodes = (
"195 390 LINE",
"195 564 LINE",
"61 547 LINE",
"61 0 LINE",
"201 0 LINE",
"201 390 LINE"
);
},
{
closed = 1;
nodes = (
"268 573 OFFCURVE",
"207 526 OFFCURVE",
"191 418 CURVE",
"201 299 LINE",
"201 387 OFFCURVE",
"240 454 OFFCURVE",
"284 454 CURVE SMOOTH",
"332 454 OFFCURVE",
"342 417 OFFCURVE",
"342 347 CURVE SMOOTH",
"342 33 LINE SMOOTH",
"342 -25 OFFCURVE",
"331 -52 OFFCURVE",
"290 -52 CURVE SMOOTH",
"276 -52 OFFCURVE",
"266 -50 OFFCURVE",
"255 -46 CURVE",
"242 -154 LINE",
"273 -164 OFFCURVE",
"301 -168 OFFCURVE",
"331 -168 CURVE SMOOTH",
"424 -168 OFFCURVE",
"480 -96 OFFCURVE",
"482 0 CURVE SMOOTH",
"482 404 LINE SMOOTH",
"482 521 OFFCURVE",
"431 573 OFFCURVE",
"347 573 CURVE SMOOTH"
);
}
);
};
layerId = "849A9C4C-BF7C-40C5-8614-1FD725A2A379";
paths = (
{
closed = 1;
nodes = (
"424 -168 OFFCURVE",
"482 -96 OFFCURVE",
"482 0 CURVE SMOOTH",
"482 404 LINE SMOOTH",
"482 521 OFFCURVE",
"431 573 OFFCURVE",
"347 573 CURVE SMOOTH",
"268 573 OFFCURVE",
"207 526 OFFCURVE",
"191 418 CURVE",
"201 299 LINE",
"201 387 OFFCURVE",
"240 454 OFFCURVE",
"284 454 CURVE SMOOTH",
"332 454 OFFCURVE",
"342 417 OFFCURVE",
"342 347 CURVE SMOOTH",
"342 33 LINE SMOOTH",
"342 -25 OFFCURVE",
"331 -52 OFFCURVE",
"290 -52 CURVE SMOOTH",
"276 -52 OFFCURVE",
"266 -50 OFFCURVE",
"255 -46 CURVE",
"242 -154 LINE",
"273 -164 OFFCURVE",
"301 -168 OFFCURVE",
"331 -168 CURVE SMOOTH"
);
},
{
closed = 1;
nodes = (
"201 0 LINE",
"201 390 LINE",
"195 390 LINE",
"195 564 LINE",
"61 547 LINE",
"61 0 LINE"
);
}
);
width = 539;
}
);
leftKerningGroup = straight;
leftMetricsKey = n;
rightKerningGroup = straight;
unicode = 014B;
},
{
glyphname = nhookleft;
layers = (
{
background = {
anchors = (
{
name = bottom;
position = "{261, 0}";
},
{
name = top;
position = "{261, 563}";
}
);
components = (
{
name = n_arch;
transform = "{1, 0, 0, 1, 192, 0}";
}
);
paths = (
{
closed = 1;
nodes = (
"186 390 LINE",
"186 564 LINE",
"52 547 LINE",
"52 0 LINE",
"192 0 LINE",
"192 390 LINE"
);
}
);
};
layerId = "849A9C4C-BF7C-40C5-8614-1FD725A2A379";
paths = (
{
closed = 1;
nodes = (
"136 -168 OFFCURVE",
"192 -93 OFFCURVE",
"192 5 CURVE SMOOTH",
"192 390 LINE",
"186 390 LINE",
"186 564 LINE",
"52 547 LINE",
"52 33 LINE SMOOTH",
"52 -25 OFFCURVE",
"41 -52 OFFCURVE",
"0 -52 CURVE SMOOTH",
"-14 -52 OFFCURVE",
"-24 -50 OFFCURVE",
"-35 -46 CURVE",
"-48 -154 LINE",
"-17 -164 OFFCURVE",
"11 -168 OFFCURVE",
"41 -168 CURVE SMOOTH"
);
},
{
closed = 1;
nodes = (
"466 0 LINE",
"466 404 LINE SMOOTH",
"466 521 OFFCURVE",
"415 573 OFFCURVE",
"336 573 CURVE SMOOTH",
"259 573 OFFCURVE",
"198 526 OFFCURVE",
"182 418 CURVE",
"192 287 LINE",
"192 382 OFFCURVE",
"224 454 OFFCURVE",
"271 454 CURVE SMOOTH",
"320 454 OFFCURVE",
"326 408 OFFCURVE",
"326 348 CURVE SMOOTH",
"326 0 LINE"
);
}
);
width = 523;
}
);
leftKerningGroup = straight;
rightKerningGroup = straight;
unicode = 0272;
},
{
glyphname = nlegrightlong;
layers = (
{
layerId = "849A9C4C-BF7C-40C5-8614-1FD725A2A379";
paths = (
{
closed = 1;
nodes = (
"475 -175 LINE",
"475 404 LINE SMOOTH",
"475 521 OFFCURVE",
"424 573 OFFCURVE",
"345 573 CURVE SMOOTH",
"268 573 OFFCURVE",
"207 526 OFFCURVE",
"191 418 CURVE",
"201 287 LINE",
"201 382 OFFCURVE",
"233 454 OFFCURVE",
"280 454 CURVE SMOOTH",
"329 454 OFFCURVE",
"335 408 OFFCURVE",
"335 348 CURVE SMOOTH",
"335 -175 LINE"
);
},
{
closed = 1;
nodes = (
"201 0 LINE",
"201 390 LINE",
"195 390 LINE",
"195 564 LINE",
"61 547 LINE",
"61 0 LINE"
);
}
);
width = 532;
}
);
leftKerningGroup = straight;
rightKerningGroup = straight;
unicode = 019E;
},
{
glyphname = o;
layers = (
{
anchors = (
{
name = bottom;
position = "{246, 0}";
},
{
name = center;
position = "{247, 281}";
},
{
name = ogonek;
position = "{402, 5}";
},
{
name = top;
position = "{246, 563}";
},
{
name = topright;
position = "{432, 603}";
}
);
background = {
paths = (
{
closed = 1;
nodes = (
"381 -13 OFFCURVE",
"460 94 OFFCURVE",
"460 279 CURVE SMOOTH",
"460 456 OFFCURVE",
"381 570 OFFCURVE",
"246 570 CURVE SMOOTH",
"110 570 OFFCURVE",
"34 454 OFFCURVE",
"34 279 CURVE SMOOTH",
"34 95 OFFCURVE",
"111 -13 OFFCURVE",
"246 -13 CURVE SMOOTH"
);
},
{
closed = 1;
nodes = (
"187 94 OFFCURVE",
"177 190 OFFCURVE",
"177 279 CURVE SMOOTH",
"177 355 OFFCURVE",
"186 463 OFFCURVE",
"246 463 CURVE SMOOTH",
"306 463 OFFCURVE",
"317 354 OFFCURVE",
"317 279 CURVE SMOOTH",
"317 190 OFFCURVE",
"306 94 OFFCURVE",
"246 94 CURVE SMOOTH"
);
}
);
};
layerId = "849A9C4C-BF7C-40C5-8614-1FD725A2A379";
paths = (
{
closed = 1;
nodes = (
"381 -13 OFFCURVE",
"460 94 OFFCURVE",
"460 279 CURVE SMOOTH",
"460 456 OFFCURVE",
"381 570 OFFCURVE",
"246 570 CURVE SMOOTH",
"110 570 OFFCURVE",
"34 454 OFFCURVE",
"34 279 CURVE SMOOTH",
"34 95 OFFCURVE",
"111 -13 OFFCURVE",
"246 -13 CURVE SMOOTH"
);
},
{
closed = 1;
nodes = (
"187 90 OFFCURVE",
"177 183 OFFCURVE",
"177 279 CURVE SMOOTH",
"177 362 OFFCURVE",
"186 467 OFFCURVE",
"246 467 CURVE SMOOTH",
"306 467 OFFCURVE",
"317 361 OFFCURVE",
"317 279 CURVE SMOOTH",
"317 183 OFFCURVE",
"306 90 OFFCURVE",
"246 90 CURVE SMOOTH"
);
}
);
width = 494;
}
);
leftKerningGroup = round;
rightKerningGroup = round;
unicode = 006F;
},
{
glyphname = obarred;
layers = (
{
components = (
{
name = o;
}
);
layerId = "849A9C4C-BF7C-40C5-8614-1FD725A2A379";
paths = (
{
closed = 1;
nodes = (
"359 237 LINE",
"359 327 LINE",
"103 327 LINE",
"103 237 LINE"
);
}
);
width = 494;
}
);
leftKerningGroup = round;
rightKerningGroup = round;
unicode = 0275;
},
{
glyphname = ohorn;
layers = (
{
anchors = (
{
name = bottom;
position = "{246, 0}";
},
{
name = top;
position = "{246, 563}";
}
);
background = {
paths = (
{
closed = 1;
nodes = (
"381 -13 OFFCURVE",
"460 94 OFFCURVE",
"460 279 CURVE SMOOTH",
"460 456 OFFCURVE",
"381 570 OFFCURVE",
"246 570 CURVE SMOOTH",
"110 570 OFFCURVE",
"34 454 OFFCURVE",
"34 279 CURVE SMOOTH",
"34 95 OFFCURVE",
"111 -13 OFFCURVE",
"246 -13 CURVE SMOOTH"
);
},
{
closed = 1;
nodes = (
"187 90 OFFCURVE",
"177 183 OFFCURVE",
"177 279 CURVE SMOOTH",
"177 362 OFFCURVE",
"186 467 OFFCURVE",
"246 467 CURVE SMOOTH",
"306 467 OFFCURVE",
"317 361 OFFCURVE",
"317 279 CURVE SMOOTH",
"317 183 OFFCURVE",
"306 90 OFFCURVE",
"246 90 CURVE SMOOTH"
);
},
{
closed = 1;
nodes = (
"473 383 OFFCURVE",
"548 443 OFFCURVE",
"548 530 CURVE SMOOTH",
"548 583 OFFCURVE",
"527 617 OFFCURVE",
"512 629 CURVE",
"413 592 LINE",
"429 570 OFFCURVE",
"440 541 OFFCURVE",
"440 516 CURVE SMOOTH",
"440 494 OFFCURVE",
"426 470 OFFCURVE",
"371 470 CURVE",
"371 386 LINE",
"380 384 OFFCURVE",
"389 383 OFFCURVE",
"398 383 CURVE SMOOTH"
);
}
);
};
layerId = "849A9C4C-BF7C-40C5-8614-1FD725A2A379";
paths = (
{
closed = 1;
nodes = (
"381 -13 OFFCURVE",
"460 94 OFFCURVE",
"460 279 CURVE SMOOTH",
"460 320 OFFCURVE",
"456 358 OFFCURVE",
"447 392 CURVE",
"503 411 OFFCURVE",
"548 462 OFFCURVE",
"548 530 CURVE SMOOTH",
"548 583 OFFCURVE",
"527 617 OFFCURVE",
"512 629 CURVE",
"413 592 LINE",
"429 570 OFFCURVE",
"440 541 OFFCURVE",
"440 516 CURVE SMOOTH",
"440 501 OFFCURVE",
"434 486 OFFCURVE",
"413 477 CURVE",
"376 536 OFFCURVE",
"319 570 OFFCURVE",
"246 570 CURVE SMOOTH",
"110 570 OFFCURVE",
"34 454 OFFCURVE",
"34 279 CURVE SMOOTH",
"34 95 OFFCURVE",
"111 -13 OFFCURVE",
"246 -13 CURVE SMOOTH"
);
},
{
closed = 1;
nodes = (
"187 90 OFFCURVE",
"177 183 OFFCURVE",
"177 279 CURVE SMOOTH",
"177 362 OFFCURVE",
"186 467 OFFCURVE",
"246 467 CURVE SMOOTH",
"306 467 OFFCURVE",
"317 361 OFFCURVE",
"317 279 CURVE SMOOTH",
"317 183 OFFCURVE",
"306 90 OFFCURVE",
"246 90 CURVE SMOOTH"
);
}
);
width = 518;
}
);
leftKerningGroup = round;
rightKerningGroup = round;
unicode = 01A1;
},
{
glyphname = omacronacute;
layers = (
{
background = {
paths = (
{
closed = 1;
nodes = (
"358 814 LINE",
"294 938 LINE",
"104 798 LINE",
"136 733 LINE"
);
}
);
};
components = (
{
name = o;
},
{
name = macroncomb_acutecomb;
transform = "{1, 0, 0, 1, 246, 0}";
}
);
layerId = "849A9C4C-BF7C-40C5-8614-1FD725A2A379";
width = 494;
}
);
leftKerningGroup = round;
rightKerningGroup = round;
unicode = 1E53;
},
{
glyphname = "omega-latin";
layers = (
{
background = {
components = (
{
name = m;
}
);
};
layerId = "849A9C4C-BF7C-40C5-8614-1FD725A2A379";
paths = (
{
closed = 1;
nodes = (
"293 -14 OFFCURVE",
"339 27 OFFCURVE",
"362 115 CURVE",
"335 115 LINE",
"358 27 OFFCURVE",
"404 -14 OFFCURVE",
"488 -14 CURVE SMOOTH",
"592 -14 OFFCURVE",
"663 75 OFFCURVE",
"663 251 CURVE SMOOTH",
"663 370 OFFCURVE",
"641 469 OFFCURVE",
"595 563 CURVE",
"454 563 LINE",
"502 463 OFFCURVE",
"522 368 OFFCURVE",
"522 232 CURVE SMOOTH",
"522 130 OFFCURVE",
"508 89 OFFCURVE",
"465 89 CURVE SMOOTH",
"433 89 OFFCURVE",
"419 111 OFFCURVE",
"419 154 CURVE SMOOTH",
"419 341 LINE",
"279 341 LINE",
"279 154 LINE SMOOTH",
"279 111 OFFCURVE",
"265 89 OFFCURVE",
"232 89 CURVE SMOOTH",
"190 89 OFFCURVE",
"176 130 OFFCURVE",
"176 232 CURVE SMOOTH",
"176 368 OFFCURVE",
"196 463 OFFCURVE",
"244 563 CURVE",
"103 563 LINE",
"57 469 OFFCURVE",
"35 370 OFFCURVE",
"35 251 CURVE SMOOTH",
"35 75 OFFCURVE",
"106 -14 OFFCURVE",
"209 -14 CURVE SMOOTH"
);
}
);
width = 698;
}
);
unicode = A7B7;
},
{
glyphname = oopen;
layers = (
{
layerId = "849A9C4C-BF7C-40C5-8614-1FD725A2A379";
paths = (
{
closed = 1;
nodes = (
"350 -7 OFFCURVE",
"431 106 OFFCURVE",
"431 285 CURVE SMOOTH",
"431 462 OFFCURVE",
"361 576 OFFCURVE",
"219 576 CURVE SMOOTH",
"108 576 OFFCURVE",
"39 487 OFFCURVE",
"27 381 CURVE",
"155 367 LINE",
"157 409 OFFCURVE",
"171 473 OFFCURVE",
"219 473 CURVE SMOOTH",
"270 473 OFFCURVE",
"288 400 OFFCURVE",
"288 285 CURVE SMOOTH",
"288 185 OFFCURVE",
"276 96 OFFCURVE",
"219 96 CURVE SMOOTH",
"173 96 OFFCURVE",
"161 158 OFFCURVE",
"157 210 CURVE",
"27 184 LINE",
"36 66 OFFCURVE",
"108 -7 OFFCURVE",
"219 -7 CURVE SMOOTH"
);
}
);
width = 465;
}
);
leftKerningGroup = round;
rightKerningGroup = round;
unicode = 0254;
},
{
glyphname = oslash;
layers = (
{
anchors = (
{
name = bottom;
position = "{246, 0}";
},
{
name = center;
position = "{247, 281}";
},
{
name = ogonek;
position = "{402, 5}";
},
{
name = top;
position = "{246, 563}";
},
{
name = topright;
position = "{432, 603}";
}
);
layerId = "849A9C4C-BF7C-40C5-8614-1FD725A2A379";
paths = (
{
closed = 1;
nodes = (
"381 -13 OFFCURVE",
"460 94 OFFCURVE",
"460 279 CURVE SMOOTH",
"460 456 OFFCURVE",
"381 570 OFFCURVE",
"246 570 CURVE SMOOTH",
"110 570 OFFCURVE",
"34 454 OFFCURVE",
"34 279 CURVE SMOOTH",
"34 95 OFFCURVE",
"111 -13 OFFCURVE",
"246 -13 CURVE SMOOTH"
);
},
{
closed = 1;
nodes = (
"187 90 OFFCURVE",
"177 183 OFFCURVE",
"177 279 CURVE SMOOTH",
"177 362 OFFCURVE",
"186 467 OFFCURVE",
"246 467 CURVE SMOOTH",
"306 467 OFFCURVE",
"317 361 OFFCURVE",
"317 279 CURVE SMOOTH",
"317 183 OFFCURVE",
"306 90 OFFCURVE",
"246 90 CURVE SMOOTH"
);
},
{
closed = 1;
nodes = (
"154 97 LINE",
"148 102 LINE",
"407 428 LINE",
"410 426 LINE",
"482 517 LINE",
"420 569 LINE",
"348 479 LINE",
"353 475 LINE",
"94 147 LINE",
"92 149 LINE",
"11 47 LINE",
"74 -5 LINE"
);
}
);
width = 494;
}
);
leftKerningGroup = round;
rightKerningGroup = round;
unicode = 00F8;
},
{
glyphname = otildeacute;
layers = (
{
components = (
{
name = o;
},
{
name = tildecomb;
transform = "{1, 0, 0, 1, 247, 0}";
}
);
layerId = "849A9C4C-BF7C-40C5-8614-1FD725A2A379";
paths = (
{
closed = 1;
nodes = (
"374 864 LINE",
"310 988 LINE",
"120 848 LINE",
"152 783 LINE"
);
}
);
width = 494;
}
);
leftKerningGroup = round;
rightKerningGroup = round;
unicode = 1E4D;
},
{
glyphname = ou;
layers = (
{
background = {
paths = (
{
closed = 1;
nodes = (
"379 -10 OFFCURVE",
"450 72 OFFCURVE",
"450 189 CURVE SMOOTH",
"450 563 LINE",
"310 563 LINE",
"310 196 LINE SMOOTH",
"310 126 OFFCURVE",
"294 90 OFFCURVE",
"247 90 CURVE SMOOTH",
"200 90 OFFCURVE",
"184 126 OFFCURVE",
"184 196 CURVE SMOOTH",
"184 563 LINE",
"44 563 LINE",
"44 189 LINE SMOOTH",
"44 72 OFFCURVE",
"115 -10 OFFCURVE",
"247 -10 CURVE SMOOTH"
);
}
);
};
layerId = "849A9C4C-BF7C-40C5-8614-1FD725A2A379";
paths = (
{
closed = 1;
nodes = (
"381 -13 OFFCURVE",
"460 77 OFFCURVE",
"460 238 CURVE SMOOTH",
"460 401 OFFCURVE",
"381 495 OFFCURVE",
"246 495 CURVE SMOOTH",
"110 495 OFFCURVE",
"34 399 OFFCURVE",
"34 238 CURVE SMOOTH",
"34 78 OFFCURVE",
"111 -13 OFFCURVE",
"246 -13 CURVE SMOOTH"
);
},
{
closed = 1;
nodes = (
"195 90 OFFCURVE",
"177 135 OFFCURVE",
"177 238 CURVE SMOOTH",
"177 343 OFFCURVE",
"196 395 OFFCURVE",
"249 395 CURVE SMOOTH",
"300 395 OFFCURVE",
"317 342 OFFCURVE",
"317 238 CURVE SMOOTH",
"317 135 OFFCURVE",
"298 90 OFFCURVE",
"246 90 CURVE SMOOTH"
);
},
{
closed = 1;
nodes = (
"379 395 OFFCURVE",
"450 477 OFFCURVE",
"450 594 CURVE SMOOTH",
"450 750 LINE",
"310 750 LINE",
"310 601 LINE SMOOTH",
"310 531 OFFCURVE",
"294 495 OFFCURVE",
"247 495 CURVE SMOOTH",
"200 495 OFFCURVE",
"184 531 OFFCURVE",
"184 601 CURVE SMOOTH",
"184 750 LINE",
"44 750 LINE",
"44 594 LINE SMOOTH",
"44 477 OFFCURVE",
"115 395 OFFCURVE",
"247 395 CURVE SMOOTH"
);
}
);
width = 494;
}
);
unicode = 0223;
},
